<?xml version="1.0" encoding="UTF-8" standalone="no"?>
<!-- Created with Inkscape (http://www.inkscape.org/) -->

<svg
   xmlns:dc="http://purl.org/dc/elements/1.1/"
   xmlns:cc="http://creativecommons.org/ns#"
   xmlns:rdf="http://www.w3.org/1999/02/22-rdf-syntax-ns#"
   xmlns:svg="http://www.w3.org/2000/svg"
   xmlns="http://www.w3.org/2000/svg"
   xmlns:xlink="http://www.w3.org/1999/xlink"
   xmlns:sodipodi="http://sodipodi.sourceforge.net/DTD/sodipodi-0.dtd"
   xmlns:inkscape="http://www.inkscape.org/namespaces/inkscape"
   width="2057"
   height="2533"
   id="svg9859"
   version="1.1"
   inkscape:version="0.48.3.1 r9886"
   sodipodi:docname="anhui.svg">
  <defs
     id="defs9861">
    <linearGradient
       id="linearGradient3777">
      <stop
         style="stop-color:#00a0e9;stop-opacity:1;"
         offset="0"
         id="stop3779" />
      <stop
         style="stop-color:#ffffff;stop-opacity:1;"
         offset="1"
         id="stop3781" />
    </linearGradient>
    <linearGradient
       inkscape:collect="always"
       xlink:href="#linearGradient3777"
       id="linearGradient3783"
       x1="17841"
       y1="11707"
       x2="17959.857"
       y2="11672.715"
       gradientUnits="userSpaceOnUse" />
  </defs>
  <sodipodi:namedview
     id="base"
     pagecolor="#ffffff"
     bordercolor="#666666"
     borderopacity="1.0"
     inkscape:pageopacity="0.0"
     inkscape:pageshadow="2"
     inkscape:zoom="0.175"
     inkscape:cx="763.42276"
     inkscape:cy="1644.984"
     inkscape:document-units="px"
     inkscape:current-layer="g486"
     showgrid="false"
     inkscape:window-width="1440"
     inkscape:window-height="876"
     inkscape:window-x="0"
     inkscape:window-y="24"
     inkscape:window-maximized="1" />
  <metadata
     id="metadata9864">
    <rdf:RDF>
      <cc:Work
         rdf:about="">
        <dc:format>image/svg+xml</dc:format>
        <dc:type
           rdf:resource="http://purl.org/dc/dcmitype/StillImage" />
        <dc:title />
      </cc:Work>
    </rdf:RDF>
  </metadata>
  <g
     inkscape:label="Layer 1"
     inkscape:groupmode="layer"
     id="layer1"
     transform="translate(0,1480.6378)">
    <g
       transform="translate(-17841,-11921.638)"
       class="com.sun.star.drawing.CustomShape"
       id="g486">
      <g
         id="g488">
        <path
           style="fill:url(#linearGradient3783);stroke:none"
           inkscape:connector-curvature="0"
           d="m 18793,12972 0,0 -17,-17 0,0 0,-203 0,0 -44,-35 0,0 -89,0 -26,8 -26,9 -18,9 -18,27 -35,61 0,0 -27,18 -17,9 0,0 -9,-27 -9,-17 -44,-27 0,0 -35,-53 0,0 0,-44 -9,-35 -9,-35 -18,-18 -26,-44 -18,-18 -8,-26 0,0 -36,-36 0,0 0,-44 27,-26 53,-44 0,0 -9,-53 -18,-35 -26,-27 -36,-18 -79,-26 -26,-9 -36,-18 0,0 -9,-61 0,0 -17,-18 0,0 0,-26 9,-18 35,-44 44,-27 53,-17 0,0 71,-88 0,0 -9,-98 -18,-88 -35,-79 -18,-27 -26,-35 0,0 -97,0 0,0 -36,44 0,0 -35,9 0,0 -26,-26 -18,-27 -27,-62 -17,-97 0,0 -88,-61 0,0 8,-36 18,-35 18,-26 26,-36 62,-53 53,-53 0,0 17,-88 0,-88 -8,-159 0,0 17,-9 0,0 44,18 0,0 9,35 27,62 26,35 18,27 26,26 36,18 0,0 88,0 0,0 35,-71 18,-53 17,-53 27,-61 0,0 9,-53 0,0 -168,-159 0,0 9,-35 18,-18 17,-9 27,-17 0,0 26,0 0,0 44,52 53,53 44,71 44,88 0,0 71,88 0,0 318,62 0,0 70,53 0,0 36,88 35,106 26,53 36,53 35,44 53,44 0,0 18,36 0,0 79,-9 53,-9 44,-18 0,0 9,-53 0,-8 9,0 17,0 62,0 0,0 35,61 18,53 9,62 0,0 -53,18 -53,8 -97,0 0,0 -44,106 0,0 -18,106 0,0 -18,27 -17,17 0,36 0,44 0,0 185,176 0,0 18,9 35,9 35,17 9,18 9,27 0,0 71,61 0,0 211,18 0,0 45,35 0,0 0,71 0,0 -36,26 -35,18 -71,18 -35,17 -18,18 -17,26 -9,44 0,0 18,45 0,26 0,18 0,0 -53,26 -36,27 0,0 0,220 0,0 -35,44 -35,36 -27,26 -44,18 -70,26 -98,18 0,0 -61,26 -62,18 -53,0 -53,-18 0,0 -44,-44 -35,-44 -18,-44 -26,-27 0,0 -36,0 -17,9 -18,44 0,0 -35,141 0,0 -45,0 0,0 0,0 z m -952,-2531 0,0 z m 2056,2532 0,0 z"
           id="path490" />
        <rect
           style="fill:none;stroke:none"
           x="17841"
           y="10441"
           width="2057"
           height="2533"
           id="rect492" />
        <rect
           style="fill:none;stroke:none"
           x="17842"
           y="10442"
           width="2056"
           height="2532"
           id="rect494" />
      </g>
    </g>
  </g>
</svg>
