<?xml version="1.0" encoding="UTF-8" standalone="no"?>
<!-- Created with Inkscape (http://www.inkscape.org/) -->

<svg
   xmlns:dc="http://purl.org/dc/elements/1.1/"
   xmlns:cc="http://creativecommons.org/ns#"
   xmlns:rdf="http://www.w3.org/1999/02/22-rdf-syntax-ns#"
   xmlns:svg="http://www.w3.org/2000/svg"
   xmlns="http://www.w3.org/2000/svg"
   xmlns:sodipodi="http://sodipodi.sourceforge.net/DTD/sodipodi-0.dtd"
   xmlns:inkscape="http://www.inkscape.org/namespaces/inkscape"
   width="1025"
   height="1167"
   id="svg6805"
   version="1.1"
   inkscape:version="0.48.3.1 r9886"
   sodipodi:docname="New document 52">
  <defs
     id="defs6807" />
  <sodipodi:namedview
     id="base"
     pagecolor="#ffffff"
     bordercolor="#666666"
     borderopacity="1.0"
     inkscape:pageopacity="0.0"
     inkscape:pageshadow="2"
     inkscape:zoom="0.35"
     inkscape:cx="375"
     inkscape:cy="520"
     inkscape:document-units="px"
     inkscape:current-layer="layer1"
     showgrid="false"
     inkscape:window-width="1280"
     inkscape:window-height="936"
     inkscape:window-x="0"
     inkscape:window-y="24"
     inkscape:window-maximized="1" />
  <metadata
     id="metadata6810">
    <rdf:RDF>
      <cc:Work
         rdf:about="">
        <dc:format>image/svg+xml</dc:format>
        <dc:type
           rdf:resource="http://purl.org/dc/dcmitype/StillImage" />
        <dc:title></dc:title>
      </cc:Work>
    </rdf:RDF>
  </metadata>
  <g
     inkscape:label="Layer 1"
     inkscape:groupmode="layer"
     id="layer1"
     transform="translate(0,114.63782)">
    <g
       transform="translate(-17629,-7336.6378)"
       class="com.sun.star.drawing.CustomShape"
       id="g596">
      <g
         id="g598">
        <path
           style="fill:#ebf5ec;stroke:none"
           inkscape:connector-curvature="0"
           d="m 18494,8388 0,0 -62,-36 -53,-35 -53,-44 0,0 -27,-44 -17,-44 -9,-71 -9,-71 -9,-17 -9,-18 0,0 -17,-53 0,0 -89,-79 -35,-18 -35,-18 -35,-9 -45,9 -88,18 0,0 -26,35 -27,27 0,0 -220,9 0,0 0,-62 8,-53 0,-18 18,-17 18,-9 35,-9 0,0 97,-80 0,0 9,-35 9,-35 0,-27 -9,-26 -27,-44 -8,-27 0,-17 0,0 105,-62 53,-44 53,-44 0,0 9,-45 9,-26 18,-18 44,-8 0,0 79,70 0,0 159,18 0,0 -17,53 -9,88 9,97 8,44 18,44 0,0 79,9 0,0 53,35 0,0 -8,89 0,35 8,35 9,27 27,35 26,35 53,36 0,0 88,114 0,0 -105,53 -36,27 -26,44 0,0 9,177 0,0 0,0 z m -865,-1165 0,0 z m 1024,1165 0,0 z"
           id="path600" />
        <rect
           style="fill:none;stroke:none"
           x="17629"
           y="7222"
           width="1025"
           height="1167"
           id="rect602" />
        <rect
           style="fill:none;stroke:none"
           x="17630"
           y="7223"
           width="1024"
           height="1165"
           id="rect604" />
      </g>
    </g>
  </g>
</svg>
