<?xml version="1.0" encoding="UTF-8" standalone="no"?>
<!-- Created with Inkscape (http://www.inkscape.org/) -->

<svg
   xmlns:dc="http://purl.org/dc/elements/1.1/"
   xmlns:cc="http://creativecommons.org/ns#"
   xmlns:rdf="http://www.w3.org/1999/02/22-rdf-syntax-ns#"
   xmlns:svg="http://www.w3.org/2000/svg"
   xmlns="http://www.w3.org/2000/svg"
   xmlns:sodipodi="http://sodipodi.sourceforge.net/DTD/sodipodi-0.dtd"
   xmlns:inkscape="http://www.inkscape.org/namespaces/inkscape"
   width="676.29999"
   height="703.09003"
   id="svg3508"
   version="1.1"
   inkscape:version="0.48.3.1 r9886"
   sodipodi:docname="beijing.svg">
  <defs
     id="defs3510">
    <linearGradient
       id="linearGradient2983">
      <stop
         style="stop-color:#ebf5ec;stop-opacity:1;"
         offset="0"
         id="stop2985" />
      <stop
         style="stop-color:#ebf5ec;stop-opacity:0;"
         offset="1"
         id="stop2987" />
    </linearGradient>
  </defs>
  <sodipodi:namedview
     id="base"
     pagecolor="#ffffff"
     bordercolor="#666666"
     borderopacity="1.0"
     inkscape:pageopacity="0.0"
     inkscape:pageshadow="2"
     inkscape:zoom="0.7"
     inkscape:cx="191.00009"
     inkscape:cy="266.09342"
     inkscape:document-units="px"
     inkscape:current-layer="layer1"
     showgrid="false"
     inkscape:window-width="1440"
     inkscape:window-height="876"
     inkscape:window-x="0"
     inkscape:window-y="24"
     inkscape:window-maximized="1" />
  <metadata
     id="metadata3513">
    <rdf:RDF>
      <cc:Work
         rdf:about="">
        <dc:format>image/svg+xml</dc:format>
        <dc:type
           rdf:resource="http://purl.org/dc/dcmitype/StillImage" />
        <dc:title />
      </cc:Work>
    </rdf:RDF>
  </metadata>
  <g
     inkscape:label="Layer 1"
     inkscape:groupmode="layer"
     id="layer1"
     transform="translate(0,-349.27218)">
    <path
       style="fill:#ffffff;fill-opacity:1"
       d="m 0.00214211,1023.5458 c 0.01379869,-18.5625 1.44914059,-38.03952 4.04061019,-54.82937 2.2105659,-14.322 4.0192109,-30.72066 4.0192109,-36.44144 0,-9.75494 0.5964437,-10.98017 9.5964488,-19.71306 12.013969,-11.65743 21.608333,-16.47957 43.92493,-22.07674 l 17.613927,-4.4177 48.780081,-40.21814 48.78008,-40.21813 8.53082,-33.72675 c 14.06577,-55.60932 12.37509,-69.80791 -13.2778,-111.50852 -14.35134,-23.32915 -20.46783,-39.99357 -20.4914,-55.82897 l -0.0154,-10.37212 52.02286,-30.68476 c 53.71662,-31.68378 60.09139,-36.45926 151.6867,-113.63178 5.76967,-4.86116 6.92702,-7.72741 10.60501,-26.26396 6.85273,-34.53678 12.76455,-50.11511 22.60457,-59.56567 7.80884,-7.4998 10.14512,-8.49367 27.02024,-11.49468 10.1598,-1.80677 20.30195,-3.28504 22.53816,-3.28504 2.39687,0 19.95478,14.09828 42.77332,34.34519 21.28912,18.88985 38.87564,34.36588 39.08114,34.39117 0.20553,0.0253 35.20319,4.01989 77.7726,8.87689 42.56938,4.857 77.94315,9.37517 78.60835,10.04037 0.66519,0.66519 -2.49409,12.80777 -7.0206,26.98351 -7.24316,22.68339 -8.76045,30.97775 -12.65311,69.169 -5.27429,51.74637 -4.4572,73.84871 4.10928,111.15841 3.18913,13.8896 6.90195,36.18839 8.25075,49.55287 l 2.45232,24.29906 -19.28955,56.5226 -19.28955,56.52262 -24.79688,41.40678 c -22.93434,38.29668 -91.4938,137.37126 -95.06067,137.37126 -0.85768,0 -17.47887,-10.45385 -36.93598,-23.23083 -32.40315,-21.27832 -36.87069,-23.59334 -53.1536,-27.54365 l -17.77707,-4.31278 -55.55839,11.27752 c -30.55712,6.20264 -60.35981,12.31475 -66.22821,13.58249 -10.31172,2.22759 -11.16954,2.96003 -25.55736,21.82195 -8.18814,10.7344 -20.20576,24.6611 -26.70583,30.9482 l -11.81828,11.4312 -105.05586,4.2531 c -57.780725,2.3392 -107.1014232,4.241 -109.6015507,4.2262 -4.50112883,-0.027 -4.54547675,-0.3092 -4.52428719,-28.8163 z"
       id="path3535"
       inkscape:connector-curvature="0" />
  </g>
</svg>
