<?xml version="1.0" encoding="UTF-8" standalone="no"?>
<!-- Created with Inkscape (http://www.inkscape.org/) -->

<svg
   xmlns:dc="http://purl.org/dc/elements/1.1/"
   xmlns:cc="http://creativecommons.org/ns#"
   xmlns:rdf="http://www.w3.org/1999/02/22-rdf-syntax-ns#"
   xmlns:svg="http://www.w3.org/2000/svg"
   xmlns="http://www.w3.org/2000/svg"
   xmlns:sodipodi="http://sodipodi.sourceforge.net/DTD/sodipodi-0.dtd"
   xmlns:inkscape="http://www.inkscape.org/namespaces/inkscape"
   width="250"
   height="285"
   id="svg11540"
   version="1.1"
   inkscape:version="0.48.3.1 r9886"
   sodipodi:docname="New document 75">
  <defs
     id="defs11542" />
  <sodipodi:namedview
     id="base"
     pagecolor="#ffffff"
     bordercolor="#666666"
     borderopacity="1.0"
     inkscape:pageopacity="0.0"
     inkscape:pageshadow="2"
     inkscape:zoom="0.35"
     inkscape:cx="285.25471"
     inkscape:cy="411.25366"
     inkscape:document-units="px"
     inkscape:current-layer="layer1"
     showgrid="false"
     inkscape:window-width="1280"
     inkscape:window-height="936"
     inkscape:window-x="0"
     inkscape:window-y="24"
     inkscape:window-maximized="1" />
  <metadata
     id="metadata11545">
    <rdf:RDF>
      <cc:Work
         rdf:about="">
        <dc:format>image/svg+xml</dc:format>
        <dc:type
           rdf:resource="http://purl.org/dc/dcmitype/StillImage" />
        <dc:title></dc:title>
      </cc:Work>
    </rdf:RDF>
  </metadata>
  <g
     inkscape:label="Layer 1"
     inkscape:groupmode="layer"
     id="layer1"
     transform="translate(0,-767.36218)">
    <g
       transform="matrix(0.24390244,0,0,0.24390244,-4299.7561,-993.73539)"
       style="visibility:visible"
       class="com.sun.star.drawing.CustomShape"
       id="g596">
      <g
         id="g598">
        <path
           d="m 18494,8388 0,0 -62,-36 -53,-35 -53,-44 0,0 -27,-44 -17,-44 -9,-71 -9,-71 -9,-17 -9,-18 0,0 -17,-53 0,0 -89,-79 -35,-18 -35,-18 -35,-9 -45,9 -88,18 0,0 -26,35 -27,27 0,0 -220,9 0,0 0,-62 8,-53 0,-18 18,-17 18,-9 35,-9 0,0 97,-80 0,0 9,-35 9,-35 0,-27 -9,-26 -27,-44 -8,-27 0,-17 0,0 105,-62 53,-44 53,-44 0,0 9,-45 9,-26 18,-18 44,-8 0,0 79,70 0,0 159,18 0,0 -17,53 -9,88 9,97 8,44 18,44 0,0 79,9 0,0 53,35 0,0 -8,89 0,35 8,35 9,27 27,35 26,35 53,36 0,0 88,114 0,0 -105,53 -36,27 -26,44 0,0 9,177 0,0 0,0 z m -865,-1165 0,0 z m 1024,1165 0,0 z"
           id="path600"
           inkscape:connector-curvature="0"
           style="fill:#ebf5ec;stroke:none" />
        <rect
           x="17629"
           y="7222"
           width="1025"
           height="1167"
           id="rect602"
           style="fill:none;stroke:none" />
        <rect
           x="17630"
           y="7223"
           width="1024"
           height="1165"
           id="rect604"
           style="fill:none;stroke:none" />
      </g>
    </g>
    <path
       style="fill:#b3b3b3"
       d="m 189.10837,269.83898 c -20.10975,-14.04928 -27.61764,-25.57729 -29.83371,-45.80824 -3.75836,-34.31088 -19.69144,-59.47064 -44.84414,-70.81293 -15.577649,-7.02454 -44.544164,-2.54708 -54.363684,8.4032 -5.785068,6.45124 -9.528482,7.49777 -32.954985,9.21303 l -26.42857171,1.93507 0,-8.58281 c 0,-18.73991 3.13822431,-26.08768 12.47779271,-29.21525 4.922928,-1.64855 14.23029,-7.90489 20.683027,-13.90297 15.133149,-14.06686 18.35328,-27.862353 9.86264,-42.252913 C 35.457616,64.833941 36.171342,62.116241 50.260688,53.859335 72.254174,40.970295 87.627491,26.314388 90.759022,15.250891 94.677582,1.4068682 106.19378,-0.54101341 117.88753,10.662302 c 6.06303,5.808754 12.14597,8.135655 25.33271,9.690497 9.54457,1.125396 17.91508,2.607486 18.60112,3.293534 0.68605,0.686048 0.0309,7.674922 -1.456,15.530828 -2.82905,14.947546 -1.23167,39.203963 3.62182,54.997754 2.44219,7.947135 4.1715,9.285715 11.99623,9.285715 5.02848,0 12.0002,2.00148 15.49271,4.44773 5.49892,3.85159 6.35002,7.04095 6.35002,23.79587 0,16.67787 1.17215,21.11777 8.49312,32.17042 4.67122,7.05226 11.42122,14.43491 15,16.40589 5.81363,3.20182 25.0783,26.36607 25.0783,30.1547 0,0.8253 -6.33906,4.71281 -14.08682,8.63889 -19.74809,10.00711 -23.05603,15.85175 -23.05603,40.73652 0,11.43606 -1.06613,20.79284 -2.36916,20.79284 -1.30304,0 -9.30277,-4.84403 -17.77718,-10.76451 z"
       id="path11563"
       inkscape:connector-curvature="0"
       transform="translate(0,767.36218)" />
  </g>
</svg>
