<?xml version="1.0" encoding="UTF-8" standalone="no"?>
<!-- Created with Inkscape (http://www.inkscape.org/) -->

<svg
   xmlns:dc="http://purl.org/dc/elements/1.1/"
   xmlns:cc="http://creativecommons.org/ns#"
   xmlns:rdf="http://www.w3.org/1999/02/22-rdf-syntax-ns#"
   xmlns:svg="http://www.w3.org/2000/svg"
   xmlns="http://www.w3.org/2000/svg"
   xmlns:sodipodi="http://sodipodi.sourceforge.net/DTD/sodipodi-0.dtd"
   xmlns:inkscape="http://www.inkscape.org/namespaces/inkscape"
   width="22156"
   height="18303"
   id="svg3846"
   version="1.1"
   inkscape:version="0.48.3.1 r9886"
   sodipodi:docname="New document 3">
  <defs
     id="defs3848" />
  <sodipodi:namedview
     id="base"
     pagecolor="#ffffff"
     bordercolor="#666666"
     borderopacity="1.0"
     inkscape:pageopacity="0.0"
     inkscape:pageshadow="2"
     inkscape:zoom="0.04375"
     inkscape:cx="9022.3484"
     inkscape:cy="8222.4823"
     inkscape:document-units="px"
     inkscape:current-layer="layer1"
     showgrid="false"
     inkscape:window-width="1440"
     inkscape:window-height="876"
     inkscape:window-x="0"
     inkscape:window-y="24"
     inkscape:window-maximized="1" />
  <metadata
     id="metadata3851">
    <rdf:RDF>
      <cc:Work
         rdf:about="">
        <dc:format>image/svg+xml</dc:format>
        <dc:type
           rdf:resource="http://purl.org/dc/dcmitype/StillImage" />
        <dc:title></dc:title>
      </cc:Work>
    </rdf:RDF>
  </metadata>
  <g
     inkscape:label="Layer 1"
     inkscape:groupmode="layer"
     id="layer1"
     transform="translate(0,17250.638)">
    <g
       transform="translate(-1498,-17999.638)"
       style="visibility:visible"
       class="com.sun.star.drawing.CustomShape"
       id="g326">
      <g
         id="g328">
        <path
           d="m 15636,19050 0,0 -115,-45 -97,-26 -88,-44 -36,-27 -26,-26 0,0 -18,-106 -8,-124 8,-106 9,-44 18,-44 0,0 79,-27 44,-17 36,-18 0,0 9,-168 0,0 26,-17 18,-9 44,9 44,9 35,0 27,0 0,0 229,-124 0,0 406,-26 0,0 36,17 35,27 35,44 35,53 0,0 0,88 0,0 -17,35 -18,36 0,0 -97,141 -44,71 -35,79 0,0 -27,62 -17,44 -27,35 0,0 -106,53 -97,62 -177,115 0,0 -123,18 0,0 0,0 z m -388,-980 0,0 z m 1174,980 0,0 z"
           id="path330"
           inkscape:connector-curvature="0"
           style="fill:#dcdddd;stroke:none" />
        <rect
           x="15248"
           y="18070"
           width="1175"
           height="982"
           id="rect332"
           style="fill:none;stroke:none" />
        <rect
           x="15249"
           y="18071"
           width="1174"
           height="980"
           id="rect334"
           style="fill:none;stroke:none" />
      </g>
    </g>
    <path
       d="m 14429,8.3621826 0,0 -62,-60.9999996 -35,-53.000003 -18,-44 -17,-53 0,0 -115,-168 0,0 0,-79 0,-62 9,-26 18,-27 17,-17 36,-18 0,0 8,-27 0,0 -44,0 -35,9 -44,18 -44,26 -44,36 0,0 -141,0 0,0 -18,-115 0,0 -62,-26 -26,-27 -9,-26 -18,-27 0,0 -17,9 -9,9 -9,26 -9,44 -9,44 0,0 -53,0 0,0 -8,-8 -27,-9 -35,9 -44,8 -27,18 0,0 -132,-9 -123,-17 -115,-18 -106,-9 0,0 -44,-26 -35,-36 -71,-79 -106,-150 0,0 0,-96.99998 0,0 44,-88 18,-44 9,-44 0,0 -97,-62 0,0 -133,-9 -149,-17 -71,-18 -62,-27 -53,-26 -26,-35 0,0 -27,-71 0,0 -26,-9 0,0 -44,9 -35,9 -36,18 -35,17 -26,27 -27,35 -35,62 0,0 -53,44 -44,44 0,0 -168,0 0,0 -17,35 -45,44 -70,62 0,0 -106,9 0,0 -71,-80 0,0 -17,-26 -27,0 -26,0 -35,18 -71,35 -44,26 0,0 -106,-8 0,0 -53,-45 -44,-35 -44,-17 -44,0 0,0 -124,141 0,0 -114,9 0,0 -71,-45 -26,-17 -27,0 0,0 -35,35 -9,18 -9,70 0,0 36,61.99998 26,44 9,62 0,97 0,0 0,53 0,53 35,123 0,0 0,88 0,0 -44,53 0,0 -97,0 0,0 -229,-158 0,0 0,-221 0,0 -18,-18 -26,-8 -36,-9 0,0 -97,79 -53,44 -44.0003,35 0,0 -35,0 0,0 -26,-26 -27,-18 -44,-17 0,0 -62,-80 -26,-35 -27,-18 0,0 -88,-114 0,0 -97,-9 -70,-18 -44,-26 -27,-43.99998 -18,-44 0,-53 0,-150 0,0 36,-80 0,0 -9,-97 0,0 -159,-52 0,0 -26,-27 0,0 0,-88 0,0 -9,-9 -9,-9 -9,-44 -17,-62 0,0 -62,-132 0,0 -18,-79 -26,-36 -18,-8 -18,-9 -44,0 0,0 -185,97 0,0 -53,0 -35,-9 -27,-9 -17,-17 0,0 0,-433 0,0 35,-88 35,-70 53,-62 44,-62 62,-53 62,-53 150,-106 0,0 17,-8 9,-18 18,-79 0,-115 0,0 26,-79 18,-71 0,-132 0,0 18,-80 17,-26 18,-27 0,0 9,-132 0,0 -27,-44 -26,-35 -71,-53 -53,-44 -26,-27 -18,-26 0,0 0,-159 0,0 -17,0 0,0 -36,-70 -44,-53 -70,-89 0,0 -89,0 0,0 -70,71 0,0 0,62 -9,70 -18,71 -17,26 -18,27 0,0 -106,0 0,0 -79,-36 -53,-35 -18,-26 -17,-18 -9,-35 0,-35 0,0 -79,-36 -71,-26 -106,-35 0,0 -53,-62 0,0 -70,0 0,0 -80,62 -79,52 -159,106 0,0 -53,9 -35,9 -27,18 -26,17 -35,53 -44,62 0,0 -106,9 -35,9 -27,17 -44,53 -71,79 0,0 -44,27 -61,18 -106,17 0,0 -9,27 0,0 -450,-18 0,0 -79,9 -80,0 -35,-9 -26,-9 -27,-17 -26,-27 0,0 0,-79 0,0 88,-203 0,0 -62,-18 -44,-35 -71,-53 0,0 -35,-132 0,0 -123,-9 -106,-27 0,0 -80,-88 0,0 -167,-70 0,0 -97,-53 -35,-18 -45,-18 -44,0 -35,18 -35,27 -27,44 0,0 -132,61 0,0 -53,53 0,0 -70,247 0,0 -97,0 0,0 -53,-26 -36,-27 -17,-26 -9,-35 -9,-36 0,-35 0,-70 0,0 53,-150 0,0 -26,-36 -9,-9 -18,-8 0,0 -115,8 -97,27 -97,26 -88,36 0,0 -26,17 -27,9 -35,0 -35,-9 -53,-17 -36,-9 0,0 -167,-203 0,0 -344,0 0,0 -53,-26 0,0 -35,-71 -27,-62 -26,-53 -18,-44 0,0 -53,-17 -35,-18 -26,-26 -9,-27 0,0 -115,-62 0,0 -26,-9 -36,-8 -35,8 0,0 -123,-97 0,0 -45,-44 -26,-53 -18,-52 -8,-45 -9,-97 -9,-44 -9,-44 0,0 -194,9 0,0 -79,-35 -44,-36 -18,-35 -18,-53 0,0 -53,-88 0,0 -264,-194 0,0 -150,-247 0,0 -71,9 -62,18 -52,26 -45,35 0,0 -211,0 0,0 -53,-44 -35,-35 -53,-71 0,0 -36,-79 0,0 -8,-62 -9,-44 -44,-88 -89,-150 0,0 -238,-141 0,0 -140.9997,-53 -62,-26 -44,-27 0,0 -17,-44 0,-35 0,-36 9,-35 35,-62 53,-52 0,0 17,-327 0,0 -44,-114 0,-45 0,-26 18,-18 26,-8 53,-9 71,0 0,0 34.9997,26 18,18 26,35 35,62 0,0 53,17 0,0 27,-35 9,-35 9,-53 8,-44 -8,-97 0,-80 0,0 -98,-291 0,0 0,-123 9,-71 9,-35 18,-26 62,-71 0,0 35,-62 0,0 0,-35 0,0 -159,-106 0,0 -18,-9 -8,-8 -18,-36 0,0 -27,-35 -16.9997,-26 -9,-36 -9,-35 9,-79 0,-53 0,0 18,-27 7.9997,-26 0,0 -7.9997,-53 -18,-35 -26,-27 -27,-17 -35,-9 -35,0 -71,0 0,0 -44,-27 -44,-26 -27,-35 -35,-45 -44,-79 -35,-71 0,0 -124,-35 -35,-17 -18,-27 -9,-26 0,-36 0,-114 0,0 53,-150 0,0 -8,-44 -18,-44.0002 -27,-36 -26,-35 -62,-53 -62,-44 0,0 -185,-106 0,0 -17,-26 0,0 0,-133 0,-35 8,-26 18,-18 35,-9 97,-53 0,0 71,-35 0,0 9,-273 0,-133 -18,-61 -18,-53 0,0 -26,-18 -26,-9 -62,-9 -53,9 -44,9 0,0 -9,26 -18,9 -17,9 -18,-9 -26,-17 -18,-18 0,0 -26,-115 0,-105 0,0 114,-45 0,0 0,-35 -9,-26 -26,-27 -27,-26 -17,-18 0,0 0,-79 9,-18 8,-9 36,-17 70,-27 0,0 36,-35 26,-44 53,-88 0,0 53,-36 62,-26 0,0 97,-35 0,0 88,0 141,-9 70,-9 71,-18 62,-26 44,-27 0,0 62,-8 53,-9 8,9 18,17 9,36 9,52 0,0 25.9997,62 18,27 17,17 27,9 26,9 97,-9 0,0 44,-44 45,-62 44,-53 44,-44 0,0 106,9 52,0 71,-9 0,0 18,-35 26,-26 27,-18 26,-9 71,-18 79,0 0,0 185,62 0,0 27,-17 35,-9 123,-18 133,-18 114,-26 0,0 80,-44 88,-44 0,0 18,-80 26,-53 35,-35 62,-53 0,0 106,-238 0,0 141,-79 0,0 53,-150 0,0 18,-203 0,0 -36,-106 0,0 0,-106 0,0 18,-53 18,-53 0,-105 0,0 -36,-44 -8,-36 0,-53 0,0 17,-8 35,-9 115,0 212,9 0,0 79,8 80,18 88,18 97,17 0,0 167,71 0,0 36,-44 0,0 -27,-53 0,0 0,-150 0,0 44,-71 53,-70 106,-124 0,0 18,-97 35,-61 44,-53 62,-71 0,0 26,-70 9,-18 18,-18 17,-9 27,0 88,-8 0,0 53,44 79,44 80,53 88,35 0,0 44,0 53,9 53,17 26,18 27,27 0,0 79,0 88,-9 44,-18 36,-18 26,-26 18,-35 0,0 0,-115 0,0 -9,-79 -9,-53 9,-44 9,-36 17,-35 27,-35 70,-88 0,0 89,-36 79,-17 97,-18 106,-9 0,0 44,-17 0,0 44,-133 0,0 88,-79 0,0 238,-9 0,0 27,35 18,44 17,53 9,62 0,0 27,71 44,79 105,176 0,0 27,18 26,27 62,26 168,44 0,0 167,132 0,0 53,106 0,0 27,221 0,0 8,9 0,0 80,158 0,0 9,80 8,106 0,105 -8,53 -18,44 0,0 -176,150 0,0 -9,89 0,0 9,61 17,53 27,62 0,0 158,106 0,0 168,35 0,0 176,79 0,0 353,44 0,0 88,53 0,0 106,115 115,106 62,44 70,44 71,35 79,27 0,0 106,97 0,0 62,229 0,0 17,35 27,36 53,61 17,36 18,44 0,53 -9,61 0,0 27,62 26,44 53,36 0,0 124,17 123,18 132,26 142,44 0,0 343,80 0,0 759.0003,9 0,0 150,35 88,18 71,35 0,0 229,185 0,0 88,44 0,0 230,35 0,0 97,71 0,0 291,97 0,0 26,18 35,26 71,62 35,17 44,9 18,0 26,-17 18,-18 18,-26 0,0 97,-62 0,0 53,-18 53,-35 97,-71 0,0 202,-61 0,0 71,-45 88,-35 88,-35 36,-18 44,-26 0,0 70,-27 0,0 53,-26 53,-18 53,-9 62,0 132,18 141,35 0,0 203,0 0,0 44,-26 53,-18 106,-26 0,0 62,-35 53,-36 0,0 79,-88 71,-88 70,-79 44,-36 53,-26 0,0 97,-97 53,-53 27,-9 17,-9 0,0 0,-9 0,0 62,-44 71,-35 0,0 0,-71 0,0 -62,-44 0,0 -53,-70 -35,-53 -18,-53 -9,-53 0,-53 9,-53 26,-123 0,0 27,-44 26,-44 44,-62 0,0 45,-27 0,0 123,27 0,0 79,70 44,27 53,26 53,18 62,9 62,-9 62,-27 0,0 70,-88 35,-35 36,-18 0,0 8,-35 18,-26 53,-62 62,-62 53,-44 0,0 203,9 0,0 26,-35 0,0 71,-27 70,-35 62,-44 62,-62 0,0 26,-106 18,-44 17,-44 27,-35 35,-36 44,-26 53,-27 0,0 150,-35 0,0 79,-79 0,0 124,-71 53,-35 70,-26 0,0 433,17 0,0 61,-26 0,0 18,-36 9,-35 9,-35 -9,-27 -27,-53 -26,-52 0,0 -318,-230 0,0 -53,-70 -44,-44 -17,-18 -27,-9 -70,0 0,0 -53,80 0,0 -133,0 0,0 -8,114 0,0 -9,27 -18,17 -17,9 -18,9 -53,0 -53,-9 -62,-18 -44,-26 -70,-26 0,0 -71,0 -70,26 -53,26 -44,53 0,0 -106,0 0,0 -53,-17 -36,-27 -26,-35 -18,-26 0,-36 -8,-35 0,-62 0,0 70,-53 27,-35 35,-35 0,0 0,-133 9,-105 0,0 35,-89 44,-88 0,0 0,-97 9,-79 18,-62 35,-70 0,0 159,-9 0,0 105,17 62,0 62,0 62,-8 61,-27 62,-26 44,-53 0,0 115,-88 0,0 70,-80 0,0 9,-220 9,-97 9,-89 0,0 44,-79 35,-62 44,-70 27,-62 0,0 9,-71 8,-52 27,-53 35,-44 0,0 0,-133 0,0 -123,-141 0,0 -53,-17 -35,-27 0,0 8,-71 9,-52 9,-45 18,-35 26,-26 35,-27 106,-53 0,0 35,-8 45,-9 88,-36 88,-44 44,-17 53,-9 0,0 97,-71 115,-61 0,0 53,-27 61,-17 0,0 186,0 0,0 88,26 53,18 53,44 0,0 79,-9 88,-9 88,-9 97,0 0,0 142,71 0,0 70,79 79,80 71,97 79,114 0,0 53,53 62,80 44,97 18,52 17,53 0,0 115,97 71,71 70,79 0,0 9,27 0,26 0,53 0,27 18,26 26,27 44,26 0,0 106,106 0,0 0,70 9,44 18,53 0,0 114,0 53,0 53,-8 0,0 159,0 0,0 62,35 35,9 53,8 0,0 0,-17 0,0 26,-9 44,-9 89,0 0,0 70,71 106,97 0,0 79,0 62,17 53,27 35,35 36,53 26,62 44,167 0,0 132,150 0,0 36,0 0,0 97,-26 114,-27 115,-44 44,-17 35,-27 0,0 62,-97 53,-70 71,-71 79,-62 0,0 62,-79 79,-71 159,-141 0,0 18,0 17,-17 27,-27 0,0 70,0 44,9 53,18 0,0 9,35 0,53 -18,97 0,0 0,150 0,0 80,70 35,53 26,71 0,0 -17,229 0,0 -44,115 0,0 -27,44 -9,44 0,62 18,61 0,0 -9,344 0,0 -44,212 0,0 9,150 0,0 -53,71 0,0 -44,26 -35,9 -44,0 -44,0 -71,-9 -53,-18 0,0 -97,-8 0,0 -26,35 -18,44 0,0 -44,35 -44,36 -36,17 -26,27 -9,35 0,35 35,53 53,79 0,0 27,89 35,97 44,106 53,105 0,0 18,115 17,62 27,70 0,0 0,53 9,80 -9,44 -9,35 -9,26 -26,27 0,0 -44,115 0,0 -27,158 0,0 -44,27 0,0 -35,-9 -27,0 -17,-18 -27,-26 0,0 -35,17 -35,0 -53,-17 0,0 -9,-203 0,0 -27,-35 -17,-9 -9,0 -26,18 -18,35 -35,88 -9,62 0,0 -53,79 -44,80 -44,79 -53,70 0,0 -62,27 -53,9 -106,17 0,0 -17,27 0,62 0,0 17,26 0,0 36,18 35,35 9,18 8,26 9,35 -9,36 0,0 -52,61 -36,27 -35,17 0,0 -247,-8 0,0 -53,-27 -53,-35 -26,-9 -27,0 -26,0 -18,9 0,0 -44,70 -35,80 -53,176 0,0 -53,62 -35,70 0,0 -97,97 0,0 -124,71 -53,44 -26,18 -9,26 0,0 -53,36 -53,52 -97,115 0,0 -9,168 0,0 -176,79 0,0 -88,18 -71,26 -62,27 -61,35 -53,35 -53,44 -106,115 0,0 -35,53 -27,53 0,0 -17,114 -53,115.0002 0,0 -27,9 -44,18 -97,17 -97,0 -35,-9 -18,-8 0,0 0,-45 18,-35 9,-35 17,-18.0002 53,-53 53,-53 0,0 27,-61 0,0 -45,-27 -35,-26 -17,-36 -18,-26 0,-35 0,-36 18,-70 0,0 149,-203 0,0 18,-176 0,0 -53,-62 -44,-44 -44,-35 -35,-27 0,0 -150,27 0,0 -53,44 -53,53 -79,105 0,0 -89,133 -44,70 -53,62 0,0 -44,35 -44,36 -62,79 -132,176 0,0 -18,71 0,0 -44,35 -35,44 0,0 -159,88.0002 0,0 -185,45 -88,26 -88,44 0,0 -9,35 -9,44 9,45 9,35 35,88 53,97 0,0 9,0 9,18 17,35 27,115 0,0 8,26 0,0 45,0 0,0 35,-79 9,-18 17,-9 53,0 97,9 0,0 9,-18 27,0 70,0 0,0 9,27 9,18 53,79 0,0 0,185 0,0 44,35 61,36 80,35 79,18 0,0 115,-203 0,0 97,-106 35,-44 44,-27 53,-26 53,-9 71,0 79,9 0,0 168,70 0,0 432,-8 0,0 62,35 0,0 -18,44 -9,44 0,0 0,44 0,44 -18,44 -8,18 -27,26 0,0 -141,0 0,0 -132,71 0,0 -159,115 -35,35 -36,35 -26,36 -9,44 0,0 -26,17 -36,18 -52,26 0,0 -36,36 -44,17 -70,27 0,0 -18,158 0,0 -88,106 -44,53 -27,53 0,0 -17,159 0,0 -53,88 0,0 -9,79 0,0 79,53 62,36 79,35 0,0 18,26 53,36 53,35 70,18 0,0 27,26 26,44 62,97 115,230 0,0 141,211 0,0 9,71 8,44 18,44 27,44 26,35 35,27 53,9 0,0 300,194 0,0 18,44 0,61 0,0 -62,45 0,0 -194,-9 0,0 9,26 0,0 44,0 53,18 26,9 18,17 9,36 8,35 0,0 -26,44 0,0 88,44 53,27 53,44 0,0 0,114 0,0 -79,80 0,0 -53,26 -44,27 -80,70 -88,79 -88,80 0,0 -106,26 0,0 0,36 0,0 18,17 26,18 35,9 45,0 0,0 61,-44 36,-36 52,-17 80,-9 0,0 79,44 80,26 97,18 105,9 0,0 9,9 9,17 -9,27 -26,26 -27,36 -70,61 -62,36 0,0 -35,26 -9,18 9,17 0,0 62,0 0,0 52,-70 0,0 53,9 0,0 27,52 0,45 9,61 0,0 -44,44 0,0 -89,18 -44,18 -9,17 -8,18 0,0 97,53 0,0 -18,247 0,0 35,62 0,0 -9,44 -8,53 -18,52 -18,27 -17,18 0,0 -88,0 0,0 -18,-53 0,0 -124,123 -35,44 -26,53 -18,53 -9,62 0,176 0,0 -26,44 -36,44 -88,89 0,0 -9,158 0,0 -35,18 -35,9 -62,9 -53,-9 -35,9 -27,8 0,0 71,62 0,0 18,35 0,0 106,45 0,0 0,35 0,0 -53,35 -27,18 -18,35 0,71 0,0 -17,26 -9,35 -9,97 0,0 18,27 26,26 18,36 9,52 0,0 -177,9 0,0 9,36 9,8 18,18 0,0 0,26 0,0 -133,97 0,0 -8,45 -9,53 -27,52 -35,53 0,0 -71,62 0,0 -141,9 0,0 0,18 9,17 35,18 0,0 0,62 0,0 -26,17 -27,9 -35,9 0,0 -62,44 -61,53 -53,62 -44,61 0,0 -18,71 0,0 -79,70 -71,45 -79,35 -88,17 0,0 -71,62 -62,53 0,0 0,27 0,0 9,17 9,35 0,36 -18,44 0,0 -132,62 0,0 -97,61 -88,53 -88,53 -89,71 0,0 -53,-9 -44,-18 -26,-17 -27,0 0,0 -53,61 0,0 -105,0 0,0 -62,-44 0,0 0,62 -18,35 -9,9 -17,18 0,0 -53,9 -27,8 -8,27 -9,44 0,0 -27,18 -26,0 -53,0 -44,-18 -27,-9 0,0 -17,-62 0,0 -27,0 0,0 -132,-114 0,0 -18,53 -17,53 0,0 -62,97 -79,97 0,0 -53,25.99998 -36,35 -35,36 -35,35 0,0 -62,9 -44,17 -35,36 -36,26 0,0 -105,0 -36,9 -26,9 0,0 -18,35 -26,26 -27,9 -26,9 -27,0 -26,-9 -53,-26 0,0 -97,26 -88,36 -88,44 -89,26 0,0 -114,9 -36,9 -35,9 -18,26 -17,27 -18,52 -17,53 0,0 -27,27 -35,9 -27,17 -17,27 0,0 158,185 0,0 0,97.000003 0,0 -61,35 -53,26.99999962 -62,7.99999998 -53,0 0,0 0,0 z M 0,-17250.638 l 0,0 z M 22156,9.3621826 l 0,0 z"
       id="path350"
       inkscape:connector-curvature="0"
       style="fill:#dcdddd;stroke:none;visibility:visible" />
    <g
       transform="translate(-1498,-17999.638)"
       style="visibility:visible"
       class="com.sun.star.drawing.CustomShape"
       id="g386">
      <g
         id="g388">
        <path
           d="m 20866,16783 0,0 -142,-211 0,0 -44,-18 -26,-17 -27,-27 -9,-18 -26,-44 -18,-53 0,0 -70,-88 0,0 8,-106 18,-97 9,-88 0,-44 -9,-35 0,0 0,-106 18,-71 26,-61 62,-71 0,0 35,-168 0,0 97,-211 0,0 71,-88 62,-71 62,-62 79,-61 0,0 186,8 0,0 26,18 0,0 27,106 9,62 0,61 0,0 -27,62 -18,62 -8,70 0,71 8,159 9,150 0,0 -26,61 -27,71 0,0 -176,379 0,0 -45,415 0,0 -44,44 0,0 -35,9 -35,8 0,0 0,0 z m -362,-1816 0,0 z m 786,1817 0,0 z"
           id="path390"
           inkscape:connector-curvature="0"
           style="fill:#dcdddd;stroke:none" />
        <rect
           x="20504"
           y="14967"
           width="788"
           height="1818"
           id="rect392"
           style="fill:none;stroke:none" />
        <rect
           x="20505"
           y="14967"
           width="786"
           height="1817"
           id="rect394"
           style="fill:none;stroke:none" />
      </g>
    </g>
  </g>
</svg>
