<?xml version="1.0" encoding="UTF-8" standalone="no"?>
<!-- Created with Inkscape (http://www.inkscape.org/) -->

<svg
   xmlns:dc="http://purl.org/dc/elements/1.1/"
   xmlns:cc="http://creativecommons.org/ns#"
   xmlns:rdf="http://www.w3.org/1999/02/22-rdf-syntax-ns#"
   xmlns:svg="http://www.w3.org/2000/svg"
   xmlns="http://www.w3.org/2000/svg"
   xmlns:sodipodi="http://sodipodi.sourceforge.net/DTD/sodipodi-0.dtd"
   xmlns:inkscape="http://www.inkscape.org/namespaces/inkscape"
   width="250"
   height="260"
   id="svg11964"
   version="1.1"
   inkscape:version="0.48.3.1 r9886"
   sodipodi:docname="New document 97">
  <defs
     id="defs11966" />
  <sodipodi:namedview
     id="base"
     pagecolor="#ffffff"
     bordercolor="#666666"
     borderopacity="1.0"
     inkscape:pageopacity="0.0"
     inkscape:pageshadow="2"
     inkscape:zoom="0.49497475"
     inkscape:cx="319.5595"
     inkscape:cy="627.11523"
     inkscape:document-units="px"
     inkscape:current-layer="layer1"
     showgrid="false"
     inkscape:window-width="1280"
     inkscape:window-height="936"
     inkscape:window-x="0"
     inkscape:window-y="24"
     inkscape:window-maximized="1" />
  <metadata
     id="metadata11969">
    <rdf:RDF>
      <cc:Work
         rdf:about="">
        <dc:format>image/svg+xml</dc:format>
        <dc:type
           rdf:resource="http://purl.org/dc/dcmitype/StillImage" />
        <dc:title></dc:title>
      </cc:Work>
    </rdf:RDF>
  </metadata>
  <g
     inkscape:label="Layer 1"
     inkscape:groupmode="layer"
     id="layer1"
     transform="translate(0,-792.36218)">
    <g
       transform="matrix(0.12260912,0,0,0.12260912,-1694.3354,-662.8168)"
       class="com.sun.star.drawing.CustomShape"
       id="g466">
      <g
         id="g468">
        <path
           style="fill:#fffeee;stroke:none"
           inkscape:connector-curvature="0"
           d="m 15459,13987 0,0 -52,-26 -53,-35 -44,-36 -45,-44 -70,-79 -53,-80 0,0 -18,-79 -26,-79 -36,-62 -44,-53 -61,-35 -27,-9 -26,-9 -36,0 -35,9 -35,9 -35,17 0,0 -53,53 -18,27 -9,53 0,0 -35,61 -53,53 -106,97 0,0 0,18 0,0 -26,0 -9,9 -18,18 0,0 -97,35 0,0 -106,-9 -97,-26 -79,-36 -36,-17 -35,-27 0,0 35,-71 0,-61 -8,-53 -9,-62 0,0 -115,-106 -35,-53 -27,-53 0,0 36,-370 0,0 -36,-150 -8,-53 0,-62 0,0 17,-9 0,0 150,97 0,0 115,106 0,0 44,18 35,0 44,0 44,-18 36,-18 35,-17 71,-62 61,-80 44,-79 45,-88 35,-80 0,0 150,-238 0,0 0,-203 0,0 97,-53 0,0 88,-9 88,-8 53,8 44,9 53,27 53,35 0,0 150,141 0,0 186,44 0,0 79,44 97,80 44,44 44,53 27,53 9,53 0,0 -80,53 -62,53 -61,53 -62,53 0,0 -71,17 -79,9 -141,0 -62,-9 -71,9 -61,18 -53,26 0,0 17,88 0,0 18,45 0,35 -18,88 -9,44 9,44 27,44 62,45 0,0 132,123 0,0 123,177 0,0 44,158 0,0 0,353 0,0 0,0 z m -1640,-2117 0,0 z m 2038,2118 0,0 z"
           id="path470" />
        <rect
           style="fill:none;stroke:none"
           x="13819"
           y="11870"
           width="2039"
           height="2119"
           id="rect472" />
        <rect
           style="fill:none;stroke:none"
           x="13820"
           y="11871"
           width="2038"
           height="2118"
           id="rect474" />
      </g>
    </g>
    <path
       style="fill:#b3b3b3"
       d="m 179.00244,242.3098 c -13.34391,-13.37885 -15.97845,-17.17926 -18.10372,-26.11536 -8.64946,-36.3683 -41.83003,-44.93987 -55.37786,-14.30582 -5.30554,11.99678 -25.183366,31.33417 -35.929034,34.95219 -8.601404,2.89607 -24.715463,0.55219 -37.213591,-5.4129 -7.876764,-3.75943 -9.829568,-5.63518 -9.17819,-8.81609 0.455084,-2.22233 0.762591,-8.86081 0.68335,-14.75219 -0.131889,-9.8055 -0.904957,-11.52501 -9.139317,-20.32821 C 0.82939066,172.6555 0.74807095,172.35773 3.4152834,146.04917 5.173958,128.70215 5.1850214,120.64214 3.4595638,113.78973 2.1944823,108.76564 1.1594158,101.36965 1.1594158,97.354207 l 0,-7.300809 6.1946287,3.649754 c 3.4070455,2.007365 11.3619965,7.945068 17.6776695,13.194898 9.180087,7.63085 13.018598,9.55544 19.13967,9.59645 16.807249,0.11261 30.619427,-11.99801 43.972031,-38.555023 4.472715,-8.895789 12.186905,-22.689634 17.142645,-30.652992 8.09598,-13.009385 9.01044,-15.727657 9.01044,-26.783809 0,-12.0961832 0.12114,-12.3627463 7.13961,-15.7096189 9.48786,-4.52444582 33.18864,-4.59340515 41.83592,-0.1217254 3.49165,1.8056048 11.00389,7.6858253 16.69385,13.0671553 8.44761,7.989399 12.6608,10.324389 22.96745,12.728766 19.45517,4.538583 42.10489,23.388769 45.77518,38.096305 0.78564,3.148173 0.55098,5.555839 -0.54148,5.555839 -1.06036,0 -8.46963,5.492644 -16.46504,12.205876 -16.64207,13.973267 -24.54233,16.346557 -51.74557,15.544667 -10.15743,-0.29941 -18.59423,0.54972 -22.70758,2.28542 -5.7542,2.4281 -6.36455,3.40465 -5.05076,8.08122 0.8219,2.92566 1.29768,12.73559 1.05728,21.79986 l -0.4371,16.48048 13.16489,11.55813 c 15.25586,13.3939 28.11275,31.30941 32.24777,44.93587 1.69534,5.58681 2.90403,18.12103 2.91684,30.24811 0.0182,17.75747 -0.44483,20.70813 -3.25348,20.70813 -1.80144,0 -10.30277,-7.04581 -18.89184,-15.65736 l 0,0 z"
       id="path11987"
       inkscape:connector-curvature="0"
       transform="translate(0,792.36218)" />
  </g>
</svg>
