<?xml version="1.0" encoding="UTF-8" standalone="no"?>
<!-- Created with Inkscape (http://www.inkscape.org/) -->

<svg
   xmlns:dc="http://purl.org/dc/elements/1.1/"
   xmlns:cc="http://creativecommons.org/ns#"
   xmlns:rdf="http://www.w3.org/1999/02/22-rdf-syntax-ns#"
   xmlns:svg="http://www.w3.org/2000/svg"
   xmlns="http://www.w3.org/2000/svg"
   xmlns:sodipodi="http://sodipodi.sourceforge.net/DTD/sodipodi-0.dtd"
   xmlns:inkscape="http://www.inkscape.org/namespaces/inkscape"
   width="1828"
   height="2374"
   id="svg5161"
   version="1.1"
   inkscape:version="0.48.3.1 r9886"
   sodipodi:docname="New document 27">
  <defs
     id="defs5163" />
  <sodipodi:namedview
     id="base"
     pagecolor="#ffffff"
     bordercolor="#666666"
     borderopacity="1.0"
     inkscape:pageopacity="0.0"
     inkscape:pageshadow="2"
     inkscape:zoom="0.35"
     inkscape:cx="375"
     inkscape:cy="520"
     inkscape:document-units="px"
     inkscape:current-layer="layer1"
     showgrid="false"
     inkscape:window-width="1280"
     inkscape:window-height="936"
     inkscape:window-x="0"
     inkscape:window-y="24"
     inkscape:window-maximized="1" />
  <metadata
     id="metadata5166">
    <rdf:RDF>
      <cc:Work
         rdf:about="">
        <dc:format>image/svg+xml</dc:format>
        <dc:type
           rdf:resource="http://purl.org/dc/dcmitype/StillImage" />
        <dc:title></dc:title>
      </cc:Work>
    </rdf:RDF>
  </metadata>
  <g
     inkscape:label="Layer 1"
     inkscape:groupmode="layer"
     id="layer1"
     transform="translate(0,1321.6378)">
    <g
       transform="translate(-18635,-14965.638)"
       class="com.sun.star.drawing.CustomShape"
       id="g406">
      <g
         id="g408">
        <path
           style="fill:#75a672;stroke:none"
           inkscape:connector-curvature="0"
           d="m 19235,16016 0,0 0,-26 -9,-26 -27,-45 -26,-35 -27,-17 0,0 0,-27 0,0 -256,-318 0,0 -79,-17 -62,-9 -62,0 -44,-9 0,0 -8,-70 0,-71 26,-115 0,0 9,-35 9,-26 0,-62 0,-62 -9,-53 0,0 141,-159 0,0 18,-105 0,0 -9,-142 0,-61 9,-27 8,-17 0,0 62,-36 62,-35 0,0 88,-97 0,0 36,-79 0,0 0,-80 0,0 -27,-53 -9,-44 -9,-26 9,-27 18,-26 26,-18 71,-53 0,0 53,-9 53,-8 62,-9 62,-27 0,0 44,-35 35,-53 35,-62 27,-53 0,0 26,-8 27,0 35,8 35,18 0,0 18,44 9,53 35,106 18,53 35,53 35,44 62,44 0,0 247,18 0,0 27,-27 35,-9 71,-26 88,0 79,-9 0,0 44,26 0,0 -70,62 -27,36 -35,52 0,0 -9,142 0,0 -88,-9 -88,0 -27,17 -26,18 -18,27 9,52 0,0 44,27 44,53 0,0 71,44 0,0 -62,62 0,0 0,35 -9,44 -26,79 0,45 -9,44 9,35 17,44 0,0 45,35 0,0 0,18 0,0 -27,-9 0,0 -124,0 0,0 -17,27 0,26 9,27 -9,53 0,0 -62,44 -35,35 -18,44 -18,88 0,0 -44,53 -44,53 0,0 -159,9 0,0 -17,26 0,27 8,35 45,44 0,0 -53,18 -44,26 -45,27 -35,35 -71,71 -70,88 0,0 -9,62 0,0 -35,35 -36,26 -61,44 0,0 0,0 z m -600,-2372 0,0 z m 1827,2373 0,0 z"
           id="path410" />
        <rect
           style="fill:none;stroke:none"
           x="18635"
           y="13644"
           width="1828"
           height="2374"
           id="rect412" />
        <rect
           style="fill:none;stroke:none"
           x="18635"
           y="13644"
           width="1827"
           height="2373"
           id="rect414" />
      </g>
    </g>
  </g>
</svg>
