<?xml version="1.0" encoding="UTF-8" standalone="no"?>
<!-- Created with Inkscape (http://www.inkscape.org/) -->

<svg
   xmlns:dc="http://purl.org/dc/elements/1.1/"
   xmlns:cc="http://creativecommons.org/ns#"
   xmlns:rdf="http://www.w3.org/1999/02/22-rdf-syntax-ns#"
   xmlns:svg="http://www.w3.org/2000/svg"
   xmlns="http://www.w3.org/2000/svg"
   xmlns:sodipodi="http://sodipodi.sourceforge.net/DTD/sodipodi-0.dtd"
   xmlns:inkscape="http://www.inkscape.org/namespaces/inkscape"
   width="250"
   height="213"
   id="svg10926"
   version="1.1"
   inkscape:version="0.48.3.1 r9886"
   sodipodi:docname="New document 43">
  <defs
     id="defs10928" />
  <sodipodi:namedview
     id="base"
     pagecolor="#ffffff"
     bordercolor="#666666"
     borderopacity="1.0"
     inkscape:pageopacity="0.0"
     inkscape:pageshadow="2"
     inkscape:zoom="3.959798"
     inkscape:cx="79.652859"
     inkscape:cy="195.81334"
     inkscape:document-units="px"
     inkscape:current-layer="layer1"
     showgrid="false"
     inkscape:window-width="1280"
     inkscape:window-height="936"
     inkscape:window-x="0"
     inkscape:window-y="24"
     inkscape:window-maximized="1" />
  <metadata
     id="metadata10931">
    <rdf:RDF>
      <cc:Work
         rdf:about="">
        <dc:format>image/svg+xml</dc:format>
        <dc:type
           rdf:resource="http://purl.org/dc/dcmitype/StillImage" />
        <dc:title></dc:title>
      </cc:Work>
    </rdf:RDF>
  </metadata>
  <g
     inkscape:label="Layer 1"
     inkscape:groupmode="layer"
     id="layer1"
     transform="translate(0,-839.36218)">
    <g
       transform="matrix(0.04018647,0,0,0.04018647,-355.12784,582.66272)"
       style="visibility:visible"
       class="com.sun.star.drawing.CustomShape"
       id="g636">
      <g
         id="g638">
        <path
           d="m 14632,10540 0,0 -53,-36 -53,-26 -44,-18 -44,-17 -88,-9 -88,9 0,0 -45,8 -52,18 0,0 -27,53 -18,62 -8,53 0,61 17,62 18,71 53,132 0,0 9,115 0,62 -18,70 0,0 -221,0 0,0 -44,27 -8,17 -9,80 0,0 97,70 0,0 0,62 0,0 -27,71 -26,70 0,0 -71,9 -44,18 -44,26 -53,18 0,0 -247,9 0,0 -26,-9 0,0 -27,-44 -35,-27 -27,-18 -26,-8 0,0 -26,-71 0,0 -98,-194 0,0 -105,-88 0,0 -18,-27 -26,-26 -53,-44 -53,-18 -44,-18 0,0 -89,-52 0,0 -35,-80 -35,-53 -35,-35 -36,-9 -35,0 -44,9 -106,62 0,0 -35,35 -27,26 -9,36 0,61 0,0 18,36 18,26 9,44 8,62 0,0 -53,35 -26,18 -35,9 0,0 -71,9 0,0 -106,-71 -97,-62 -79,-70 -71,-71 0,0 -26,-26 -27,-27 -17,-44 -9,-35 -9,-80 0,-52 0,0 185,8 0,0 150,97 0,0 53,0 53,0 27,0 26,-8 26,-18 27,-27 0,0 0,-70 0,0 -97,-88 -35,-36 -18,-35 0,0 88,-62 88,-97 80,-97 26,-53 18,-44 0,0 70,-35 53,-35 0,0 18,-9 27,-18 35,-44 0,0 -9,-185 0,0 -26,-35 -27,-45 -9,-44 -9,-35 0,-62 0,-26 -8,-9 0,0 -89,-221 0,0 -26,-150 0,0 -71,-141 -26,-53 -27,-26 0,0 -211,0 0,0 -44,-18 -53,-26 -89,-62 -79,-53 -62,-44 0,0 -211,-247 0,0 -45,0 -35,9 -53,17 0,0 -106,-8 0,0 -202,-168 0,0 -186,-88 0,0 -88,-9 -70,-9 -124,-26 0,0 -53,-44 -35,-18 -44,-18 -27,-8 -70,0 -89,0 0,0 -79,44 0,0 9,53 9,52 9,53 -9,80 0,0 -18,17 -26,9 -36,9 -26,0 -62,-18 -62,-35 -61,-35 -53,-44 -71,-71 0,0 -176,-141 0,0 -177,-97 -79,-35 -71,-27 0,0 -141,0 -132,0 -71,0 -62,-9 -61,-17 -53,-18 0,0 -44,-9 0,0 -9,-61 -18,-62 -9,-53 -17,-27 0,0 -18,-70 -17,-62 0,-26 8,-27 9,-17 35,-9 0,0 36,-71 35,-70 0,0 79,0 97,-9 53,-9 44,-18 45,-26 35,-27 0,0 53,-114 0,0 97,-106 0,0 35,-80 27,-53 44,-44 44,-26 53,-18 61,-9 159,-17 0,0 62,0 97,0 53,0 53,-9 44,-18 35,-26 0,0 -35,-203 0,0 0,-106 9,-53 9,-44 26,-35 27,-27 17,-8 27,0 53,17 0,0 388,53 0,0 -9,35 -9,53 9,106 0,0 53,88 26,44 27,71 0,0 0,106 0,0 -36,97 -17,62 9,61 0,0 194,186 0,0 26,53 0,0 0,185 0,0 18,9 26,9 88,8 0,0 53,-35 62,-35 62,-18 70,-18 159,-17 150,-9 0,0 27,71 0,0 -36,70 -26,62 0,0 -35,44 -44,27 -62,44 -27,26 -17,35 -9,44 0,53 0,0 141,53 0,0 35,53 53,53 53,44 71,44 0,0 26,53 27,62 44,62 17,17 36,18 0,0 132,177 0,0 44,17 80,27 35,0 35,0 35,-18 27,-26 0,0 0,-124 0,-35 9,-36 17,-17 18,-18 44,-17 53,-9 0,0 53,0 44,0 26,9 27,8 35,18 27,26 0,0 70,9 0,0 62,-35 62,-35 53,-36 53,-35 0,0 26,-26 35,-9 106,-9 0,0 62,88 0,0 -9,36 -18,35 -26,35 -26,35 -71,53 -71,53 0,0 -52,71 -27,79 -9,88 -9,106 0,0 106,194 0,0 36,53 52,53 36,27 35,17 44,18 44,0 0,0 9,-18 0,0 53,0 0,0 35,18 36,26 88,80 97,106 70,97 0,0 36,159 8,97 18,114 0,0 27,133 0,0 53,53 44,35 53,35 88,62 0,0 70,-27 115,-44 0,0 9,-35 17,-18 45,-17 70,-18 0,0 27,-44 26,-44 0,-35 0,-45 -18,-35 -17,-35 -44,-53 0,0 -80,-27 -26,-17 -9,-18 -9,-17 0,-27 9,-62 0,0 88,-132 0,0 0,-132 0,0 27,-18 17,0 62,0 0,0 53,-62 62,-35 0,0 9,62 -9,35 -18,27 -9,17 0,0 -9,88 0,0 18,27 35,17 71,36 176,44 0,0 221,150 0,0 71,0 0,0 -27,62 -35,70 0,0 35,265 0,0 -44,123 0,0 -35,0 -18,-9 -26,-8 0,0 -71,-18 -62,9 -26,9 -27,8 -26,27 -18,26 0,0 0,177 0,0 -44,9 0,0 0,0 z m -5795,-4146 0,0 z m 6219,5293 0,0 z"
           id="path640"
           inkscape:connector-curvature="0"
           style="fill:#e60012;stroke:none" />
        <rect
           x="8837"
           y="6394"
           width="6221"
           height="5294"
           id="rect642"
           style="fill:none;stroke:none" />
        <rect
           x="8837"
           y="6394"
           width="6219"
           height="5293"
           id="rect644"
           style="fill:none;stroke:none" />
      </g>
    </g>
  </g>
</svg>
