<?xml version="1.0" encoding="UTF-8" standalone="no"?>
<!-- Created with Inkscape (http://www.inkscape.org/) -->

<svg
   xmlns:dc="http://purl.org/dc/elements/1.1/"
   xmlns:cc="http://creativecommons.org/ns#"
   xmlns:rdf="http://www.w3.org/1999/02/22-rdf-syntax-ns#"
   xmlns:svg="http://www.w3.org/2000/svg"
   xmlns="http://www.w3.org/2000/svg"
   xmlns:sodipodi="http://sodipodi.sourceforge.net/DTD/sodipodi-0.dtd"
   xmlns:inkscape="http://www.inkscape.org/namespaces/inkscape"
   width="250"
   height="187"
   id="svg11103"
   version="1.1"
   inkscape:version="0.48.3.1 r9886"
   sodipodi:docname="New document 52">
  <defs
     id="defs11105" />
  <sodipodi:namedview
     id="base"
     pagecolor="#ffffff"
     bordercolor="#666666"
     borderopacity="1.0"
     inkscape:pageopacity="0.0"
     inkscape:pageshadow="2"
     inkscape:zoom="0.35"
     inkscape:cx="375"
     inkscape:cy="520"
     inkscape:document-units="px"
     inkscape:current-layer="layer1"
     showgrid="false"
     inkscape:window-width="1280"
     inkscape:window-height="936"
     inkscape:window-x="0"
     inkscape:window-y="24"
     inkscape:window-maximized="1" />
  <metadata
     id="metadata11108">
    <rdf:RDF>
      <cc:Work
         rdf:about="">
        <dc:format>image/svg+xml</dc:format>
        <dc:type
           rdf:resource="http://purl.org/dc/dcmitype/StillImage" />
        <dc:title></dc:title>
      </cc:Work>
    </rdf:RDF>
  </metadata>
  <g
     inkscape:label="Layer 1"
     inkscape:groupmode="layer"
     id="layer1"
     transform="translate(0,-865.36218)">
    <g
       transform="matrix(0.07573463,0,0,0.07573463,-1020.5241,-266.93507)"
       style="visibility:visible"
       class="com.sun.star.drawing.CustomShape"
       id="g376">
      <g
         id="g378">
        <path
           d="m 15460,17419 0,0 0,-80 0,0 -18,0 -9,-9 -17,-26 0,0 -53,-9 0,0 -9,-35 -18,-27 -17,-26 -18,-9 -18,0 -17,0 -44,9 0,0 -27,114 0,0 -300,18 0,0 -185,-35 0,0 -150,-18 0,0 -124,-132 0,0 -44,-88 0,0 -17,0 0,0 -18,-62 9,-53 17,-44 27,-44 0,0 0,-115 0,0 -106,-70 0,0 0,-27 0,0 -203,-9 -168,-17 0,0 -97,-44 0,0 -44,-106 0,0 141,-9 0,0 36,-18 44,-26 79,-71 0,0 35,-70 9,-62 -9,-53 -26,-53 0,0 -124,-9 0,0 -52,-35 -62,-27 -106,-35 -106,-35 -88,-35 0,0 -62,-80 -18,-35 -8,-18 0,0 52,-79 27,-35 18,-18 35,-18 26,-8 53,-9 62,0 0,0 124,44 0,0 132,114 0,0 44,9 53,0 62,0 70,-9 0,0 71,-70 79,-79 71,-89 71,-70 0,0 8,-97 0,0 106,-9 0,0 44,62 0,0 44,17 45,27 61,35 71,26 0,0 79,0 0,0 186,-61 0,0 61,-53 53,-35 53,-36 71,-35 0,0 18,-26 35,-27 0,0 53,-71 35,-17 27,-27 79,-26 88,-9 0,0 159,-9 0,0 88,-61 80,-53 35,-18 44,-18 53,-8 62,0 0,0 97,158 0,0 79,80 0,0 -70,123 -44,62 -27,70 0,0 -9,124 0,0 18,9 35,0 97,0 0,0 44,132 0,0 36,53 0,0 194,-18 0,0 26,44 18,62 18,71 0,79 0,0 -36,44 -26,27 -36,17 0,0 -8,18 -9,9 -18,9 0,0 -26,203 0,0 -27,52 -26,62 0,0 -53,35 -27,18 0,27 0,0 -44,17 -35,27 -35,44 -36,44 -61,88 -36,35 -44,27 0,0 -9,18 -17,17 -44,27 0,0 -62,61 -62,71 0,0 -9,9 0,9 0,0 -17,0 0,0 0,26 0,0 -27,0 -18,9 -44,35 -61,71 0,0 -62,150 0,0 -71,17 -62,27 -44,26 -53,36 0,0 -70,0 0,0 0,0 z m -1985,-2461 0,0 z m 3300,2461 0,0 z"
           id="path380"
           inkscape:connector-curvature="0"
           style="fill:#fffeee;stroke:none" />
        <rect
           x="13475"
           y="14958"
           width="3301"
           height="2462"
           id="rect382"
           style="fill:none;stroke:none" />
        <rect
           x="13476"
           y="14958"
           width="3300"
           height="2461"
           id="rect384"
           style="fill:none;stroke:none" />
      </g>
    </g>
    <path
       style="fill:#b3b3b3"
       d="m 146.14286,178.04027 c -6.51941,-7.96483 -15.71429,-9.33772 -15.71429,-2.34629 0,4.10445 -2.95516,4.49143 -23.5295,3.08123 -21.863661,-1.49857 -24.098944,-2.25006 -31.57269,-10.61464 -7.029369,-7.86722 -7.815549,-10.51988 -6.237211,-21.045 1.603045,-10.68988 1.057405,-12.40784 -4.85588,-15.28883 -3.664023,-1.78514 -12.176569,-3.87158 -18.916772,-4.63652 -6.7402,-0.76495 -14.171106,-2.98111 -16.513123,-4.92482 -3.613911,-2.99928 -2.531437,-4.3071 7.154086,-8.64344 C 46.910229,108.71827 54.175729,96.65192 49.182317,91.658509 48.119431,90.595623 37.35788,85.834071 25.267757,81.07728 8.6298437,74.531189 3.078542,70.978569 2.4335511,66.464271 0.53777829,53.195729 19.326117,48.798877 33.413711,59.214286 c 13.3895,9.899285 23.56694,8.068903 35.395003,-6.365692 C 74.413923,46.00818 79,38.936751 79,37.134309 c 0,-4.94686 7.33606,-3.946163 17.788086,2.42644 5.145124,3.136982 11.731894,5.708411 14.637264,5.714285 8.1382,0.01657 22.07543,-7.471408 37.25638,-20.016211 10.2612,-8.479368 16.35095,-11.40168 23.75974,-11.40168 5.47917,0 13.38605,-2.438048 17.57084,-5.417883 12.29513,-8.75490229 18.74228,-8.43608657 26.96383,1.3333766 l 7.38266,8.7726364 -5.51772,8.370221 c -7.17681,10.887032 -7.3228,21.227363 -0.29969,21.227363 2.89062,0 6.72019,3.214286 8.51017,7.142857 2.38423,5.232806 5.47384,7.142857 11.55395,7.142857 6.19162,0 8.737,1.63268 10.02224,6.428572 2.49285,9.302014 2.34049,9.974654 -3.53425,15.602986 -2.93429,2.811214 -6.17047,9.738871 -7.19151,15.394791 -1.47122,8.14968 -8.07323,16.44964 -31.81705,40 -16.47834,16.34408 -30.60457,31.71013 -31.39163,34.14678 -1.16186,3.59697 -16.80559,11.6698 -21.61045,11.1519 -0.67414,-0.0727 -3.79715,-3.27366 -6.94,-7.11333 z"
       id="path11145"
       inkscape:connector-curvature="0"
       transform="translate(0,865.36218)" />
  </g>
</svg>
