<?xml version="1.0" encoding="UTF-8" standalone="no"?>
<!-- Created with Inkscape (http://www.inkscape.org/) -->

<svg
   xmlns:dc="http://purl.org/dc/elements/1.1/"
   xmlns:cc="http://creativecommons.org/ns#"
   xmlns:rdf="http://www.w3.org/1999/02/22-rdf-syntax-ns#"
   xmlns:svg="http://www.w3.org/2000/svg"
   xmlns="http://www.w3.org/2000/svg"
   xmlns:xlink="http://www.w3.org/1999/xlink"
   xmlns:sodipodi="http://sodipodi.sourceforge.net/DTD/sodipodi-0.dtd"
   xmlns:inkscape="http://www.inkscape.org/namespaces/inkscape"
   width="3301"
   height="2462"
   id="svg4897"
   version="1.1"
   inkscape:version="0.48.3.1 r9886"
   sodipodi:docname="guangxi.svg">
  <defs
     id="defs4899">
    <linearGradient
       inkscape:collect="always"
       id="linearGradient2987">
      <stop
         style="stop-color:#fffeee;stop-opacity:1;"
         offset="0"
         id="stop2989" />
      <stop
         style="stop-color:#ffffff;stop-opacity:1"
         offset="1"
         id="stop2991" />
    </linearGradient>
    <linearGradient
       inkscape:collect="always"
       xlink:href="#linearGradient2987"
       id="linearGradient2993"
       x1="16775"
       y1="17422.857"
       x2="16626.428"
       y2="17297.145"
       gradientUnits="userSpaceOnUse" />
  </defs>
  <sodipodi:namedview
     id="base"
     pagecolor="#ffffff"
     bordercolor="#666666"
     borderopacity="1.0"
     inkscape:pageopacity="0.0"
     inkscape:pageshadow="2"
     inkscape:zoom="0.35"
     inkscape:cx="1751.7984"
     inkscape:cy="915.45928"
     inkscape:document-units="px"
     inkscape:current-layer="layer1"
     showgrid="false"
     inkscape:window-width="1440"
     inkscape:window-height="876"
     inkscape:window-x="0"
     inkscape:window-y="24"
     inkscape:window-maximized="1" />
  <metadata
     id="metadata4902">
    <rdf:RDF>
      <cc:Work
         rdf:about="">
        <dc:format>image/svg+xml</dc:format>
        <dc:type
           rdf:resource="http://purl.org/dc/dcmitype/StillImage" />
        <dc:title />
      </cc:Work>
    </rdf:RDF>
  </metadata>
  <g
     inkscape:label="Layer 1"
     inkscape:groupmode="layer"
     id="layer1"
     transform="translate(0,1409.6378)">
    <g
       transform="translate(-13475,-16367.638)"
       class="com.sun.star.drawing.CustomShape"
       id="g376">
      <g
         id="g378">
        <path
           style="fill:url(#linearGradient2993);stroke:none;fill-opacity:1"
           inkscape:connector-curvature="0"
           d="m 15460,17419 0,0 0,-80 0,0 -18,0 -9,-9 -17,-26 0,0 -53,-9 0,0 -9,-35 -18,-27 -17,-26 -18,-9 -18,0 -17,0 -44,9 0,0 -27,114 0,0 -300,18 0,0 -185,-35 0,0 -150,-18 0,0 -124,-132 0,0 -44,-88 0,0 -17,0 0,0 -18,-62 9,-53 17,-44 27,-44 0,0 0,-115 0,0 -106,-70 0,0 0,-27 0,0 -203,-9 -168,-17 0,0 -97,-44 0,0 -44,-106 0,0 141,-9 0,0 36,-18 44,-26 79,-71 0,0 35,-70 9,-62 -9,-53 -26,-53 0,0 -124,-9 0,0 -52,-35 -62,-27 -106,-35 -106,-35 -88,-35 0,0 -62,-80 -18,-35 -8,-18 0,0 52,-79 27,-35 18,-18 35,-18 26,-8 53,-9 62,0 0,0 124,44 0,0 132,114 0,0 44,9 53,0 62,0 70,-9 0,0 71,-70 79,-79 71,-89 71,-70 0,0 8,-97 0,0 106,-9 0,0 44,62 0,0 44,17 45,27 61,35 71,26 0,0 79,0 0,0 186,-61 0,0 61,-53 53,-35 53,-36 71,-35 0,0 18,-26 35,-27 0,0 53,-71 35,-17 27,-27 79,-26 88,-9 0,0 159,-9 0,0 88,-61 80,-53 35,-18 44,-18 53,-8 62,0 0,0 97,158 0,0 79,80 0,0 -70,123 -44,62 -27,70 0,0 -9,124 0,0 18,9 35,0 97,0 0,0 44,132 0,0 36,53 0,0 194,-18 0,0 26,44 18,62 18,71 0,79 0,0 -36,44 -26,27 -36,17 0,0 -8,18 -9,9 -18,9 0,0 -26,203 0,0 -27,52 -26,62 0,0 -53,35 -27,18 0,27 0,0 -44,17 -35,27 -35,44 -36,44 -61,88 -36,35 -44,27 0,0 -9,18 -17,17 -44,27 0,0 -62,61 -62,71 0,0 -9,9 0,9 0,0 -17,0 0,0 0,26 0,0 -27,0 -18,9 -44,35 -61,71 0,0 -62,150 0,0 -71,17 -62,27 -44,26 -53,36 0,0 -70,0 0,0 0,0 z m -1985,-2461 0,0 z m 3300,2461 0,0 z"
           id="path380" />
        <rect
           style="fill:none;stroke:none"
           x="13475"
           y="14958"
           width="3301"
           height="2462"
           id="rect382" />
        <rect
           style="fill:none;stroke:none"
           x="13476"
           y="14958"
           width="3300"
           height="2461"
           id="rect384" />
      </g>
    </g>
  </g>
</svg>
