<?xml version="1.0" encoding="UTF-8" standalone="no"?>
<!-- Created with Inkscape (http://www.inkscape.org/) -->

<svg
   xmlns:dc="http://purl.org/dc/elements/1.1/"
   xmlns:cc="http://creativecommons.org/ns#"
   xmlns:rdf="http://www.w3.org/1999/02/22-rdf-syntax-ns#"
   xmlns:svg="http://www.w3.org/2000/svg"
   xmlns="http://www.w3.org/2000/svg"
   xmlns:sodipodi="http://sodipodi.sourceforge.net/DTD/sodipodi-0.dtd"
   xmlns:inkscape="http://www.inkscape.org/namespaces/inkscape"
   width="250"
   height="220"
   id="svg12023"
   version="1.1"
   inkscape:version="0.48.3.1 r9886"
   sodipodi:docname="New document 100">
  <defs
     id="defs12025" />
  <sodipodi:namedview
     id="base"
     pagecolor="#ffffff"
     bordercolor="#666666"
     borderopacity="1.0"
     inkscape:pageopacity="0.0"
     inkscape:pageshadow="2"
     inkscape:zoom="0.35"
     inkscape:cx="375"
     inkscape:cy="520"
     inkscape:document-units="px"
     inkscape:current-layer="layer1"
     showgrid="false"
     inkscape:window-width="1280"
     inkscape:window-height="936"
     inkscape:window-x="0"
     inkscape:window-y="24"
     inkscape:window-maximized="1" />
  <metadata
     id="metadata12028">
    <rdf:RDF>
      <cc:Work
         rdf:about="">
        <dc:format>image/svg+xml</dc:format>
        <dc:type
           rdf:resource="http://purl.org/dc/dcmitype/StillImage" />
        <dc:title></dc:title>
      </cc:Work>
    </rdf:RDF>
  </metadata>
  <g
     inkscape:label="Layer 1"
     inkscape:groupmode="layer"
     id="layer1"
     transform="translate(0,-832.36218)">
    <g
       transform="matrix(0.09345794,0,0,0.09345794,-1217.2897,-420.72187)"
       class="com.sun.star.drawing.CustomShape"
       id="g416">
      <g
         id="g418">
        <path
           style="fill:#fffeee;stroke:none"
           inkscape:connector-curvature="0"
           d="m 14084,15761 0,0 -80,-36 -53,-35 -35,-35 -35,-27 0,0 -98,-35 0,0 -88,0 -62,0 -53,18 -61,44 0,0 -71,97 0,0 0,-53 9,-44 26,-62 0,0 9,-185 0,0 -194,-89 0,0 9,-53 18,-44 0,0 70,-238 0,0 18,-18 0,-26 0,-44 -18,-71 0,0 -62,-70 0,0 -53,8 -53,9 -114,27 0,0 -27,0 -17,-18 -9,-9 -9,-26 0,-35 0,-18 0,0 -26,-53 0,0 8,-71 9,-53 27,-44 26,-26 35,-27 45,-17 114,-27 0,0 62,0 0,0 71,36 70,26 36,9 44,9 44,-9 44,-18 0,0 62,-70 0,0 26,-80 0,0 44,-9 0,0 18,18 35,9 88,9 203,8 0,0 27,-35 18,-26 8,-36 9,-35 0,-62 0,-61 0,0 -44,-45 -35,-26 -80,-44 -150,-53 0,0 -8,-35 -9,-27 0,-26 9,-18 17,-9 18,-9 62,-8 0,0 97,70 0,0 176,35 0,0 71,-8 70,-18 71,-35 71,-36 61,-53 53,-52 44,-53 36,-62 0,0 9,-35 8,-36 18,-26 27,-18 26,-9 35,-8 80,0 0,0 26,17 27,27 26,26 27,35 35,89 18,97 0,0 114,141 62,70 79,71 0,0 142,53 0,0 17,53 18,70 0,36 0,44 -9,35 -26,35 0,0 -53,27 -53,26 -80,27 -26,26 -18,27 0,53 0,70 0,0 53,0 62,-17 0,0 176,-9 0,0 -17,309 0,0 17,35 18,26 71,71 0,0 61,97 0,0 -70,9 -62,18 -97,61 0,0 -35,44 -36,36 -79,62 -88,61 -80,71 0,0 -70,18 -71,26 -70,9 -62,0 0,0 -124,-71 0,0 -70,-70 -18,-9 -18,-9 -44,0 -70,0 0,0 -27,9 -18,17 0,0 -8,98 0,0 -124,123 -53,62 -53,70 0,0 -53,27 -44,9 -70,9 0,0 0,0 z m -1059,-2347 0,0 z m 2674,2347 0,0 z"
           id="path420" />
        <rect
           style="fill:none;stroke:none"
           x="13025"
           y="13414"
           width="2675"
           height="2348"
           id="rect422" />
        <rect
           style="fill:none;stroke:none"
           x="13026"
           y="13414"
           width="2674"
           height="2347"
           id="rect424" />
      </g>
    </g>
    <path
       style="fill:#b3b3b3"
       d="m 84.714286,211.14286 c -11.191069,-8.25651 -26.894883,-9.42781 -36.471226,-2.72028 -6.296123,4.40998 -6.309006,4.38527 -4.519851,-8.66803 1.737917,-12.67949 1.512462,-13.19697 -7.178758,-16.47754 -10.500877,-3.96364 -10.457868,-3.67001 -4.145508,-28.30252 6.208503,-24.22724 3.471886,-28.93254 -16.045618,-27.58859 l -13.0676107,0.89981 0,-14.28571 c 0,-13.67273 0.4597874,-14.51038 10.7154487,-19.521577 10.159589,-4.964257 11.367837,-4.986717 23.291674,-0.43296 14.48764,5.53288 23.612534,3.740897 27.804946,-5.460449 2.631088,-5.774605 4.464708,-6.234194 20.302157,-5.088617 14.472874,1.046874 18.05247,0.380469 21.21924,-3.95034 9.26208,-12.666654 2.68624,-25.352251 -16.190609,-31.233626 -6.722405,-2.094468 -11.2858,-6.277274 -11.38482,-10.43532 -0.08834,-3.709454 9.366769,-5.308982 13.094532,-2.215214 6.475117,5.373872 23.717047,7.95688 34.056547,5.102006 12.92762,-3.569489 26.02788,-14.907884 32.98852,-28.551877 4.22833,-8.2882011 7.39906,-11.0691689 12.62056,-11.0691689 8.43195,0 17.42666,9.0099979 19.53913,19.5723459 2.00949,10.047428 23.32749,34.234971 32.11796,36.441237 4.92643,1.236454 7.31345,4.353189 8.60445,11.234829 2.22137,11.840891 0.59616,14.516654 -12.5694,20.694388 -7.73528,3.62966 -10.73097,6.96052 -11.38917,12.663433 -0.88997,7.71103 -0.84155,7.73222 13.72505,6.00702 l 14.61816,-1.7313 -1.93474,14.58474 c -1.74516,13.15568 -1.17655,15.4858 5.80316,23.7807 l 7.73789,9.19596 -8.09963,4.21056 c -4.4548,2.31581 -13.88534,9.33212 -20.95677,15.59181 -13.05877,11.55973 -31.95988,21.86329 -40.31558,21.97724 -2.53071,0.0345 -9.33781,-3.15153 -15.12688,-7.08011 -12.55374,-8.51919 -27.39015,-9.67683 -27.46309,-2.14285 -0.0266,2.75 -5.77724,11.10714 -12.77914,18.57143 -14.93248,15.91857 -23.748093,17.38671 -38.601024,6.42857 z"
       id="path12061"
       inkscape:connector-curvature="0"
       transform="translate(0,832.36218)" />
  </g>
</svg>
