<?xml version="1.0" encoding="UTF-8" standalone="no"?>
<!-- Created with Inkscape (http://www.inkscape.org/) -->

<svg
   xmlns:dc="http://purl.org/dc/elements/1.1/"
   xmlns:cc="http://creativecommons.org/ns#"
   xmlns:rdf="http://www.w3.org/1999/02/22-rdf-syntax-ns#"
   xmlns:svg="http://www.w3.org/2000/svg"
   xmlns="http://www.w3.org/2000/svg"
   xmlns:sodipodi="http://sodipodi.sourceforge.net/DTD/sodipodi-0.dtd"
   xmlns:inkscape="http://www.inkscape.org/namespaces/inkscape"
   width="250"
   height="208"
   id="svg10202"
   version="1.1"
   inkscape:version="0.48.3.1 r9886"
   sodipodi:docname="New document 13">
  <defs
     id="defs10204" />
  <sodipodi:namedview
     id="base"
     pagecolor="#ffffff"
     bordercolor="#666666"
     borderopacity="1.0"
     inkscape:pageopacity="0.0"
     inkscape:pageshadow="2"
     inkscape:zoom="1.979899"
     inkscape:cx="103.77882"
     inkscape:cy="97.961016"
     inkscape:document-units="px"
     inkscape:current-layer="layer1"
     showgrid="false"
     inkscape:window-width="1280"
     inkscape:window-height="936"
     inkscape:window-x="0"
     inkscape:window-y="24"
     inkscape:window-maximized="1" />
  <metadata
     id="metadata10207">
    <rdf:RDF>
      <cc:Work
         rdf:about="">
        <dc:format>image/svg+xml</dc:format>
        <dc:type
           rdf:resource="http://purl.org/dc/dcmitype/StillImage" />
        <dc:title></dc:title>
      </cc:Work>
    </rdf:RDF>
  </metadata>
  <g
     inkscape:label="Layer 1"
     inkscape:groupmode="layer"
     id="layer1"
     transform="translate(0,-844.36218)">
    <g
       transform="matrix(0.23191095,0,0,0.23191095,-3548.7014,-3355.5692)"
       style="visibility:visible"
       class="com.sun.star.drawing.CustomShape"
       id="g336">
      <g
         id="g338">
        <path
           d="m 15663,19006 0,0 -264,-89 0,0 -45,-35 -26,-35 -26,-36 0,-35 0,-80 0,-79 0,0 8,-88 9,-18 9,-18 9,-9 26,-8 71,-18 0,0 53,-44 0,0 9,-159 0,0 17,-9 0,0 71,18 44,0 44,0 0,0 221,-124 0,0 371,-26 0,0 26,17 44,35 18,18 9,27 17,26 0,35 0,0 -52,89 -36,44 -35,35 0,0 -27,71 -35,71 -35,70 -27,89 0,0 -397,247 0,0 -35,9 -36,9 0,0 0,0 z m -361,-892 0,0 z m 1077,892 0,0 z"
           id="path340"
           inkscape:connector-curvature="0"
           style="fill:#fffeee;stroke:none" />
        <rect
           x="15302"
           y="18114"
           width="1078"
           height="893"
           id="rect342"
           style="fill:none;stroke:none" />
        <rect
           x="15302"
           y="18115"
           width="1077"
           height="892"
           id="rect344"
           style="fill:none;stroke:none" />
      </g>
    </g>
    <path
       style="fill:#b3b3b3;stroke:none"
       d="m 53.034222,197.36417 -30.491033,-10.30374 -3.839779,-2.9281 c -6.259015,-4.77294 -6.943138,-5.5 -12.9844862,-13.79961 l -5.78378999,-7.94577 0.0042982,-21.90608 c 0.0035254,-17.96691 0.18605545,-23.83968 1.01506785,-32.65885 L 1.9652709,97.069272 4.1767699,92.669734 C 5.3930941,90.24999 6.8114094,87.90434 7.3285812,87.457186 8.2610682,86.650937 11.901058,85.551396 24.295896,82.331838 l 6.430552,-1.670338 6.038018,-4.984168 6.038018,-4.984173 0.287391,-3.080774 C 43.434319,63.92 44.886922,37.891874 44.886922,35.412391 c 0,-1.551512 0.236525,-1.858513 2.143413,-2.782071 l 2.143413,-1.038113 8.504842,2.201298 8.504843,2.201297 9.615314,0 9.615318,0 25.824635,-14.492326 25.82464,-14.492327 43.0201,-3.0096182 43.0201,-3.00961795 2.68793,1.71831125 c 3.53371,2.2589933 12.16602,9.0723919 15.18317,11.9839219 1.78797,1.725388 2.65563,3.102607 3.44043,5.460929 0.57721,1.734512 1.94458,4.53857 3.03861,6.231239 1.89456,2.931264 1.98913,3.270289 1.98913,7.130952 l 0,4.053372 -5.93088,10.188014 c -6.37352,10.948375 -10.07167,15.906072 -17.78697,23.845028 l -4.90848,5.050762 -2.94178,7.828683 c -1.61798,4.305775 -6.67624,15.442707 -11.24058,24.748735 -7.62505,15.54637 -8.54261,17.71967 -11.30173,26.76904 -1.65161,5.41695 -3.2781,10.10934 -3.61441,10.42755 -0.33631,0.31821 -21.06707,13.29264 -46.06834,28.83207 l -45.45687,28.25351 -8.12141,2.10385 c -4.466779,1.15712 -8.21697,2.09197 -8.333759,2.07744 -0.116789,-0.0146 -13.933312,-4.6631 -30.703379,-10.33015 z"
       id="path10225"
       inkscape:connector-curvature="0"
       transform="translate(0,844.36218)" />
  </g>
</svg>
