<?xml version="1.0" encoding="UTF-8" standalone="no"?>
<!-- Created with Inkscape (http://www.inkscape.org/) -->

<svg
   xmlns:dc="http://purl.org/dc/elements/1.1/"
   xmlns:cc="http://creativecommons.org/ns#"
   xmlns:rdf="http://www.w3.org/1999/02/22-rdf-syntax-ns#"
   xmlns:svg="http://www.w3.org/2000/svg"
   xmlns="http://www.w3.org/2000/svg"
   xmlns:sodipodi="http://sodipodi.sourceforge.net/DTD/sodipodi-0.dtd"
   xmlns:inkscape="http://www.inkscape.org/namespaces/inkscape"
   width="1078"
   height="893"
   id="svg5083"
   version="1.1"
   inkscape:version="0.48.3.1 r9886"
   sodipodi:docname="New document 24">
  <defs
     id="defs5085" />
  <sodipodi:namedview
     id="base"
     pagecolor="#ffffff"
     bordercolor="#666666"
     borderopacity="1.0"
     inkscape:pageopacity="0.0"
     inkscape:pageshadow="2"
     inkscape:zoom="0.35"
     inkscape:cx="375"
     inkscape:cy="520"
     inkscape:document-units="px"
     inkscape:current-layer="layer1"
     showgrid="false"
     inkscape:window-width="1280"
     inkscape:window-height="936"
     inkscape:window-x="0"
     inkscape:window-y="24"
     inkscape:window-maximized="1" />
  <metadata
     id="metadata5088">
    <rdf:RDF>
      <cc:Work
         rdf:about="">
        <dc:format>image/svg+xml</dc:format>
        <dc:type
           rdf:resource="http://purl.org/dc/dcmitype/StillImage" />
        <dc:title></dc:title>
      </cc:Work>
    </rdf:RDF>
  </metadata>
  <g
     inkscape:label="Layer 1"
     inkscape:groupmode="layer"
     id="layer1"
     transform="translate(0,-159.36218)">
    <g
       transform="translate(-15302,-17954.638)"
       class="com.sun.star.drawing.CustomShape"
       id="g336">
      <g
         id="g338">
        <path
           style="fill:#fffeee;stroke:none"
           inkscape:connector-curvature="0"
           d="m 15663,19006 0,0 -264,-89 0,0 -45,-35 -26,-35 -26,-36 0,-35 0,-80 0,-79 0,0 8,-88 9,-18 9,-18 9,-9 26,-8 71,-18 0,0 53,-44 0,0 9,-159 0,0 17,-9 0,0 71,18 44,0 44,0 0,0 221,-124 0,0 371,-26 0,0 26,17 44,35 18,18 9,27 17,26 0,35 0,0 -52,89 -36,44 -35,35 0,0 -27,71 -35,71 -35,70 -27,89 0,0 -397,247 0,0 -35,9 -36,9 0,0 0,0 z m -361,-892 0,0 z m 1077,892 0,0 z"
           id="path340" />
        <rect
           style="fill:none;stroke:none"
           x="15302"
           y="18114"
           width="1078"
           height="893"
           id="rect342" />
        <rect
           style="fill:none;stroke:none"
           x="15302"
           y="18115"
           width="1077"
           height="892"
           id="rect344" />
      </g>
    </g>
  </g>
</svg>
