<?xml version="1.0" encoding="UTF-8" standalone="no"?>
<!-- Created with Inkscape (http://www.inkscape.org/) -->

<svg
   xmlns:dc="http://purl.org/dc/elements/1.1/"
   xmlns:cc="http://creativecommons.org/ns#"
   xmlns:rdf="http://www.w3.org/1999/02/22-rdf-syntax-ns#"
   xmlns:svg="http://www.w3.org/2000/svg"
   xmlns="http://www.w3.org/2000/svg"
   xmlns:sodipodi="http://sodipodi.sourceforge.net/DTD/sodipodi-0.dtd"
   xmlns:inkscape="http://www.inkscape.org/namespaces/inkscape"
   width="2365"
   height="3389"
   id="svg6228"
   version="1.1"
   inkscape:version="0.48.3.1 r9886"
   sodipodi:docname="New document 49">
  <defs
     id="defs6230" />
  <sodipodi:namedview
     id="base"
     pagecolor="#ffffff"
     bordercolor="#666666"
     borderopacity="1.0"
     inkscape:pageopacity="0.0"
     inkscape:pageshadow="2"
     inkscape:zoom="0.35"
     inkscape:cx="375"
     inkscape:cy="520"
     inkscape:document-units="px"
     inkscape:current-layer="layer1"
     showgrid="false"
     inkscape:window-width="1280"
     inkscape:window-height="936"
     inkscape:window-x="0"
     inkscape:window-y="24"
     inkscape:window-maximized="1" />
  <metadata
     id="metadata6233">
    <rdf:RDF>
      <cc:Work
         rdf:about="">
        <dc:format>image/svg+xml</dc:format>
        <dc:type
           rdf:resource="http://purl.org/dc/dcmitype/StillImage" />
        <dc:title></dc:title>
      </cc:Work>
    </rdf:RDF>
  </metadata>
  <g
     inkscape:label="Layer 1"
     inkscape:groupmode="layer"
     id="layer1"
     transform="translate(0,2336.6378)">
    <g
       transform="translate(-16968,-8711.6378)"
       class="com.sun.star.drawing.CustomShape"
       id="g566">
      <g
         id="g568">
        <path
           style="fill:#e60012;stroke:none"
           inkscape:connector-curvature="0"
           d="m 17814,9762 0,0 -61,-61 0,0 -309,0 0,0 -282,-62 0,0 -53,-44 -44,-44 -27,-36 -9,-17 0,0 168,-194 0,0 44,-150 0,0 18,-97 -9,-89 -27,-70 -35,-62 -35,-62 -53,-53 -106,-105 0,0 0,-62 18,-53 26,-35 27,-45 44,-26 35,-35 97,-53 0,0 71,-115 0,0 0,-132 0,0 -62,-89 -53,-70 -53,-53 -62,-53 0,0 -35,-9 0,0 0,-17 0,0 88,-71 0,0 27,-53 8,-26 9,-27 0,0 -106,-88 0,0 0,-88 0,0 -61,-71 -44,-53 0,0 0,-194 0,0 70,-79 0,0 27,-9 26,-9 26,-9 0,0 0,-203 0,0 45,-44 26,-18 35,-8 0,0 27,17 26,27 27,44 9,26 8,36 0,0 -35,26 -18,27 0,26 9,26 27,27 26,35 71,62 0,0 44,0 0,0 70,-44 0,0 0,-27 18,-26 18,-18 17,-17 53,-36 62,-26 0,0 35,-44 44,-18 44,-9 53,-9 115,-8 53,-9 53,-27 0,0 -9,-229 0,0 35,-44 36,-35 97,-62 0,0 35,-27 35,-8 27,0 17,17 18,27 18,35 44,97 0,0 167,265 0,0 9,53 9,44 18,26 17,18 27,17 44,18 0,0 115,-9 79,0 70,9 0,0 -35,27 -26,26 -36,27 -26,35 0,0 0,53 0,44 9,17 17,27 18,26 35,27 0,0 44,9 36,17 70,44 80,53 88,53 0,0 71,62 0,0 -212,291 0,0 -9,27 -18,35 -26,35 -35,27 -80,53 -62,26 0,0 -88,18 -79,17 0,0 -71,-52 -53,-53 -44,-53 -44,-36 0,0 -17,-35 0,-35 0,-71 -9,-62 0,-26 -9,-18 0,0 -141,-53 0,0 0,-88 9,-88 8,-79 0,-53 0,0 -88,-9 -70,-9 -36,-9 -26,-18 -18,-17 -9,-18 0,0 -88,0 -26,0 -18,9 -9,18 -9,26 -17,80 0,0 -62,26 -53,35 -97,71 0,0 0,26 9,36 18,35 26,53 0,0 -9,35 -26,27 -18,26 -35,9 -53,26 -27,18 -17,18 0,0 0,53 -9,53 -9,53 9,26 9,18 0,0 282,0 0,0 35,-36 36,-26 26,-18 27,0 35,-9 44,9 0,0 18,27 17,9 27,26 35,18 0,0 35,79 0,0 36,194 0,0 44,62 61,53 71,53 44,17 53,18 0,0 88,150 0,0 -17,0 -27,9 -35,35 -35,35 -27,27 0,0 -18,35 -35,27 -70,61 -71,45 -71,26 0,0 -61,53 -53,44 -44,62 -44,62 0,0 -142,132 -53,53 -35,62 -26,61 0,80 17,97 44,115 0,0 9,52 0,0 0,0 z m -846,-3387 0,0 z m 2364,3388 0,0 z"
           id="path570" />
        <rect
           style="fill:none;stroke:none"
           x="16968"
           y="6375"
           width="2365"
           height="3389"
           id="rect572" />
        <rect
           style="fill:none;stroke:none"
           x="16969"
           y="6376"
           width="2364"
           height="3388"
           id="rect574" />
      </g>
    </g>
  </g>
</svg>
