<?xml version="1.0" encoding="UTF-8" standalone="no"?>
<!-- Created with Inkscape (http://www.inkscape.org/) -->

<svg
   xmlns:dc="http://purl.org/dc/elements/1.1/"
   xmlns:cc="http://creativecommons.org/ns#"
   xmlns:rdf="http://www.w3.org/1999/02/22-rdf-syntax-ns#"
   xmlns:svg="http://www.w3.org/2000/svg"
   xmlns="http://www.w3.org/2000/svg"
   xmlns:xlink="http://www.w3.org/1999/xlink"
   xmlns:sodipodi="http://sodipodi.sourceforge.net/DTD/sodipodi-0.dtd"
   xmlns:inkscape="http://www.inkscape.org/namespaces/inkscape"
   width="4915"
   height="4394"
   id="svg3491"
   version="1.1"
   inkscape:version="0.48.3.1 r9886"
   sodipodi:docname="heilongjiang.svg">
  <defs
     id="defs3493">
    <linearGradient
       inkscape:collect="always"
       id="linearGradient2986">
      <stop
         style="stop-color:#fffeee;stop-opacity:1;"
         offset="0"
         id="stop2988" />
      <stop
         style="stop-color:#ffffff;stop-opacity:1"
         offset="1"
         id="stop2990" />
    </linearGradient>
    <linearGradient
       inkscape:collect="always"
       xlink:href="#linearGradient2986"
       id="linearGradient2992"
       x1="18711.244"
       y1="5172.4297"
       x2="19067.436"
       y2="4881.5054"
       gradientUnits="userSpaceOnUse" />
  </defs>
  <sodipodi:namedview
     id="base"
     pagecolor="#ffffff"
     bordercolor="#666666"
     borderopacity="1.0"
     inkscape:pageopacity="0.0"
     inkscape:pageshadow="2"
     inkscape:zoom="0.12374369"
     inkscape:cx="3063.7664"
     inkscape:cy="2032.3835"
     inkscape:document-units="px"
     inkscape:current-layer="layer1"
     showgrid="false"
     inkscape:window-width="1440"
     inkscape:window-height="876"
     inkscape:window-x="0"
     inkscape:window-y="24"
     inkscape:window-maximized="1" />
  <metadata
     id="metadata3496">
    <rdf:RDF>
      <cc:Work
         rdf:about="">
        <dc:format>image/svg+xml</dc:format>
        <dc:type
           rdf:resource="http://purl.org/dc/dcmitype/StillImage" />
        <dc:title />
      </cc:Work>
    </rdf:RDF>
  </metadata>
  <g
     inkscape:label="Layer 1"
     inkscape:groupmode="layer"
     id="layer1"
     transform="translate(0,3341.6378)">
    <g
       transform="translate(-18687,-4135.6378)"
       id="g628">
      <path
         style="fill:url(#linearGradient2992);stroke:none"
         inkscape:connector-curvature="0"
         d="m 22268,5187 0,0 -176,-168 0,0 -53,-97 -27,-44 -17,-27 -35,-17 -27,-18 -44,-9 -44,9 0,0 -80,176 0,0 -26,-8 -35,-18 -53,-62 -36,-62 -17,-35 0,0 -18,-9 -9,-17 -17,-36 0,0 -97,-17 0,0 -36,-53 -26,-35 -27,-18 -26,-18 -62,-9 -70,-8 0,0 -18,26 0,0 -62,18 -44,0 -26,-18 -9,-26 -9,-36 0,-44 0,-79 0,0 -35,-35 -27,-9 -26,-9 -35,0 0,0 -80,97 0,0 -62,35 0,0 -26,27 -35,17 -36,27 -44,9 -88,26 -79,9 0,0 -106,-44 -36,-27 -35,-26 -17,-27 -27,-35 -26,-79 0,0 -53,-80 -18,-17 -9,-9 -44,0 -71,-9 0,0 -8,9 0,0 -36,-18 -17,-17 -9,-27 -9,-26 0,0 35,-9 44,-9 45,-18 44,-26 0,0 -9,-88 -18,-62 0,0 -35,-62 0,0 -62,0 -35,18 -18,35 -26,53 0,0 -35,0 -27,-9 -53,-26 -35,-35 -44,-18 0,0 -9,-44 -18,-27 -35,-44 0,0 0,-106 0,0 53,-53 53,-44 70,-106 0,0 18,-61 18,-44 26,-45 27,-44 53,-70 26,-44 18,-44 0,0 8,-89 0,0 18,9 18,9 17,35 0,0 0,44 -8,53 8,27 9,26 18,27 35,17 0,0 80,0 44,-17 35,-27 0,0 9,-167 0,-71 -9,-62 0,0 -35,-44 -27,-44 -17,-35 0,-35 8,-27 9,-35 36,-71 0,0 -9,-79 -27,-80 -26,-52 -27,-36 0,0 -9,-106 0,0 53,-123 0,0 9,-62 9,-53 44,-114 0,0 -9,-71 -8,-71 -18,-79 -27,-71 -35,-61 -35,-62 -44,-44 -44,-27 0,0 -80,0 -53,9 -53,18 -44,35 0,0 -44,71 -35,44 -44,26 -80,18 0,0 -79,9 -71,17 -70,18 -62,18 0,0 -35,-18 -27,-26 -17,-18 -9,-27 -9,-44 -9,-35 0,0 -18,-88 -26,-71 -35,-53 -36,-44 0,0 -70,-26 -62,-18 -44,-9 -35,9 -27,27 -9,35 -8,44 0,71 0,0 -194,-142 0,0 0,-26 0,0 88,-97 0,0 17,-168 0,0 -61,-53 0,0 273,-158 0,0 71,-27 70,-17 80,0 88,8 0,0 62,36 53,26 70,9 88,9 0,0 89,-18 70,-9 80,18 105,35 0,0 186,230 106,123 114,132 0,0 80,212 0,0 194,168 0,0 44,61 26,45 18,52 9,89 0,0 26,26 27,27 97,70 0,0 17,35 0,0 9,71 27,106 0,0 44,18 79,0 88,-9 80,-9 0,0 44,0 35,0 53,18 62,35 0,0 106,0 0,0 17,-18 18,-9 71,-8 0,0 185,167 0,0 53,0 53,0 53,18 35,17 26,27 0,0 71,167 0,0 9,45 26,53 27,61 35,53 44,44 27,18 26,9 35,9 36,-9 35,-9 35,-18 0,0 141,-35 150,-53 0,0 71,-44 0,0 62,-97 62,-79 70,-71 80,-71 0,0 114,-123 0,0 212,-177 0,0 62,9 26,9 9,9 9,18 -9,17 -9,88 0,0 0,186 0,0 71,70 35,62 18,26 8,36 0,0 -8,185 0,0 -44,115 0,0 -18,26 -18,27 -9,61 9,71 9,79 0,0 0,291 0,0 -44,177 0,0 9,185 0,0 -35,44 -27,18 -26,17 0,0 -97,9 0,0 -80,-17 -62,-9 -105,-9 0,0 -18,35 -18,27 -17,26 -18,36 0,0 -44,8 -35,18 -27,18 -18,26 -8,27 -9,26 9,88 0,0 70,115 0,0 18,88 35,97 53,97 53,115 0,0 44,176 0,0 -62,0 -44,-17 -44,-18 -44,-26 -62,-53 -53,-36 0,0 -9,-35 -8,-26 -18,-18 -18,-18 -26,0 -18,-9 -17,9 -18,9 0,0 -9,35 0,0 -70,18 -62,27 -115,61 0,0 0,80 0,0 18,17 0,0 -53,27 -35,44 0,0 -89,18 0,0 0,0 z m -3581,-4393 0,0 z m 4914,4393 0,0 z"
         id="path630" />
      <rect
         style="fill:none;stroke:none"
         x="18687"
         y="794"
         width="4915"
         height="4394"
         id="rect632" />
      <rect
         style="fill:none;stroke:none"
         x="18688"
         y="794"
         width="4914"
         height="4393"
         id="rect634" />
    </g>
  </g>
</svg>
