<?xml version="1.0" encoding="UTF-8" standalone="no"?>
<!-- Created with Inkscape (http://www.inkscape.org/) -->

<svg
   xmlns:dc="http://purl.org/dc/elements/1.1/"
   xmlns:cc="http://creativecommons.org/ns#"
   xmlns:rdf="http://www.w3.org/1999/02/22-rdf-syntax-ns#"
   xmlns:svg="http://www.w3.org/2000/svg"
   xmlns="http://www.w3.org/2000/svg"
   xmlns:sodipodi="http://sodipodi.sourceforge.net/DTD/sodipodi-0.dtd"
   xmlns:inkscape="http://www.inkscape.org/namespaces/inkscape"
   width="250"
   height="224"
   id="svg10342"
   version="1.1"
   inkscape:version="0.48.3.1 r9886"
   sodipodi:docname="heilongjiang.svg">
  <defs
     id="defs10344" />
  <sodipodi:namedview
     id="base"
     pagecolor="#ffffff"
     bordercolor="#666666"
     borderopacity="1.0"
     inkscape:pageopacity="0.0"
     inkscape:pageshadow="2"
     inkscape:zoom="0.98994949"
     inkscape:cx="-40.41697"
     inkscape:cy="193.7044"
     inkscape:document-units="px"
     inkscape:current-layer="layer1"
     showgrid="false"
     inkscape:window-width="1280"
     inkscape:window-height="936"
     inkscape:window-x="0"
     inkscape:window-y="24"
     inkscape:window-maximized="1" />
  <metadata
     id="metadata10347">
    <rdf:RDF>
      <cc:Work
         rdf:about="">
        <dc:format>image/svg+xml</dc:format>
        <dc:type
           rdf:resource="http://purl.org/dc/dcmitype/StillImage" />
        <dc:title />
      </cc:Work>
    </rdf:RDF>
  </metadata>
  <g
     inkscape:label="Layer 1"
     inkscape:groupmode="layer"
     id="layer1"
     transform="translate(0,-828.36218)">
    <g
       transform="matrix(0.0508647,0,0,0.0508647,-950.50865,788.47612)"
       style="visibility:visible"
       class="com.sun.star.drawing.CustomShape"
       id="g626">
      <g
         id="g628">
        <path
           d="m 22268,5187 0,0 -176,-168 0,0 -53,-97 -27,-44 -17,-27 -35,-17 -27,-18 -44,-9 -44,9 0,0 -80,176 0,0 -26,-8 -35,-18 -53,-62 -36,-62 -17,-35 0,0 -18,-9 -9,-17 -17,-36 0,0 -97,-17 0,0 -36,-53 -26,-35 -27,-18 -26,-18 -62,-9 -70,-8 0,0 -18,26 0,0 -62,18 -44,0 -26,-18 -9,-26 -9,-36 0,-44 0,-79 0,0 -35,-35 -27,-9 -26,-9 -35,0 0,0 -80,97 0,0 -62,35 0,0 -26,27 -35,17 -36,27 -44,9 -88,26 -79,9 0,0 -106,-44 -36,-27 -35,-26 -17,-27 -27,-35 -26,-79 0,0 -53,-80 -18,-17 -9,-9 -44,0 -71,-9 0,0 -8,9 0,0 -36,-18 -17,-17 -9,-27 -9,-26 0,0 35,-9 44,-9 45,-18 44,-26 0,0 -9,-88 -18,-62 0,0 -35,-62 0,0 -62,0 -35,18 -18,35 -26,53 0,0 -35,0 -27,-9 -53,-26 -35,-35 -44,-18 0,0 -9,-44 -18,-27 -35,-44 0,0 0,-106 0,0 53,-53 53,-44 70,-106 0,0 18,-61 18,-44 26,-45 27,-44 53,-70 26,-44 18,-44 0,0 8,-89 0,0 18,9 18,9 17,35 0,0 0,44 -8,53 8,27 9,26 18,27 35,17 0,0 80,0 44,-17 35,-27 0,0 9,-167 0,-71 -9,-62 0,0 -35,-44 -27,-44 -17,-35 0,-35 8,-27 9,-35 36,-71 0,0 -9,-79 -27,-80 -26,-52 -27,-36 0,0 -9,-106 0,0 53,-123 0,0 9,-62 9,-53 44,-114 0,0 -9,-71 -8,-71 -18,-79 -27,-71 -35,-61 -35,-62 -44,-44 -44,-27 0,0 -80,0 -53,9 -53,18 -44,35 0,0 -44,71 -35,44 -44,26 -80,18 0,0 -79,9 -71,17 -70,18 -62,18 0,0 -35,-18 -27,-26 -17,-18 -9,-27 -9,-44 -9,-35 0,0 -18,-88 -26,-71 -35,-53 -36,-44 0,0 -70,-26 -62,-18 -44,-9 -35,9 -27,27 -9,35 -8,44 0,71 0,0 -194,-142 0,0 0,-26 0,0 88,-97 0,0 17,-168 0,0 -61,-53 0,0 273,-158 0,0 71,-27 70,-17 80,0 88,8 0,0 62,36 53,26 70,9 88,9 0,0 89,-18 70,-9 80,18 105,35 0,0 186,230 106,123 114,132 0,0 80,212 0,0 194,168 0,0 44,61 26,45 18,52 9,89 0,0 26,26 27,27 97,70 0,0 17,35 0,0 9,71 27,106 0,0 44,18 79,0 88,-9 80,-9 0,0 44,0 35,0 53,18 62,35 0,0 106,0 0,0 17,-18 18,-9 71,-8 0,0 185,167 0,0 53,0 53,0 53,18 35,17 26,27 0,0 71,167 0,0 9,45 26,53 27,61 35,53 44,44 27,18 26,9 35,9 36,-9 35,-9 35,-18 0,0 141,-35 150,-53 0,0 71,-44 0,0 62,-97 62,-79 70,-71 80,-71 0,0 114,-123 0,0 212,-177 0,0 62,9 26,9 9,9 9,18 -9,17 -9,88 0,0 0,186 0,0 71,70 35,62 18,26 8,36 0,0 -8,185 0,0 -44,115 0,0 -18,26 -18,27 -9,61 9,71 9,79 0,0 0,291 0,0 -44,177 0,0 9,185 0,0 -35,44 -27,18 -26,17 0,0 -97,9 0,0 -80,-17 -62,-9 -105,-9 0,0 -18,35 -18,27 -17,26 -18,36 0,0 -44,8 -35,18 -27,18 -18,26 -8,27 -9,26 9,88 0,0 70,115 0,0 18,88 35,97 53,97 53,115 0,0 44,176 0,0 -62,0 -44,-17 -44,-18 -44,-26 -62,-53 -53,-36 0,0 -9,-35 -8,-26 -18,-18 -18,-18 -26,0 -18,-9 -17,9 -18,9 0,0 -9,35 0,0 -70,18 -62,27 -115,61 0,0 0,80 0,0 18,17 0,0 -53,27 -35,44 0,0 -89,18 0,0 0,0 z m -3581,-4393 0,0 z m 4914,4393 0,0 z"
           id="path630"
           inkscape:connector-curvature="0"
           style="fill:#fffeee;stroke:none" />
        <rect
           x="18687"
           y="794"
           width="4915"
           height="4394"
           id="rect632"
           style="fill:none;stroke:none" />
        <rect
           x="18688"
           y="794"
           width="4914"
           height="4393"
           id="rect634"
           style="fill:none;stroke:none" />
      </g>
    </g>
    <path
       style="fill:#a0a0a0;stroke:none"
       d="m 176.98801,218.84058 c -2.55839,-2.63903 -5.37976,-6.24798 -6.26971,-8.01991 -1.82558,-3.63477 -5.23336,-6.37477 -7.92844,-6.37477 -1.14489,0 -2.62494,1.68013 -4.03282,4.57797 -1.35166,2.78213 -2.80589,4.46594 -3.70713,4.29237 -0.81565,-0.15707 -3.21111,-2.78537 -5.32327,-5.84066 -2.11216,-3.05528 -4.94717,-6.01745 -6.30002,-6.58257 -1.35286,-0.56514 -3.58333,-2.23992 -4.95663,-3.72172 -2.80132,-3.02268 -9.27853,-4.75002 -11.07507,-2.95348 -0.62519,0.62519 -2.3565,1.13672 -3.84733,1.13672 -2.95966,0 -3.91782,-1.90864 -3.94261,-7.85368 -0.011,-2.64832 -0.55121,-3.51233 -2.70871,-4.33261 -2.36991,-0.90103 -3.13132,-0.61256 -6.31346,2.39193 -5.61482,5.30139 -9.24893,7.42904 -14.730202,8.62401 -4.505974,0.98235 -5.522437,0.8597 -9.423684,-1.13711 -2.405106,-1.23102 -5.115377,-3.60193 -6.022824,-5.26868 -5.349916,-9.82644 -6.105795,-10.60661 -10.276519,-10.60661 -2.725253,0 -4.285023,-0.55203 -4.958125,-1.7548 -0.823958,-1.47234 -0.303565,-2.00926 3.232801,-3.3355 3.76702,-1.41273 4.18449,-1.89708 3.929161,-4.55864 -0.857569,-8.93938 -5.662371,-11.45583 -9.165795,-4.80046 -1.027606,1.95212 -1.531623,2.09123 -4.202936,1.16001 -7.658128,-2.66964 -11.854069,-13.63313 -6.773933,-17.69948 2.987443,-2.39127 6.791286,-7.81082 6.791286,-9.67593 0,-0.80413 2.045559,-4.57647 4.545687,-8.38299 2.500127,-3.80651 4.545686,-8.02069 4.545686,-9.36483 0,-2.10246 0.220767,-2.26068 1.580168,-1.13248 0.981873,0.81488 1.363719,2.17381 1.008502,3.58912 -0.314416,1.25273 -0.127606,3.44566 0.415135,4.87318 0.822297,2.1628 1.630876,2.59548 4.850383,2.59548 5.493175,0 6.291317,-1.28037 6.265486,-10.05102 -0.0177,-6.01115 -0.440892,-8.16158 -1.997843,-10.15203 -2.402856,-3.07187 -2.50784,-5.21846 -0.449858,-9.198153 1.421478,-2.748834 1.420218,-3.553688 -0.01327,-8.48472 -0.871046,-2.996293 -2.032317,-5.725055 -2.580601,-6.063913 -1.460212,-0.902461 -1.227099,-5.352496 0.581651,-11.103475 3.885593,-12.354366 4.02352,-13.153465 3.225593,-18.687822 -0.955038,-6.624072 -5.358319,-15.817111 -8.590447,-17.934884 -1.580514,-1.035591 -3.675374,-1.338301 -6.58906,-0.952128 -3.453848,0.457767 -5.045535,1.442697 -8.31244,5.143707 -3.674957,4.163285 -4.72621,4.721371 -11.616754,6.167059 -4.166879,0.874242 -8.723012,1.836302 -10.124738,2.137912 -3.437001,0.739538 -5.467785,-1.770226 -7.04271,-8.703802 C 26.74422,32.26747 24.376359,29.090722 18.498826,27.138519 12.562828,25.166898 10.905802,25.965927 9.9087407,31.280721 L 9.269301,34.689227 4.8312467,31.635765 C -0.08586331,28.252705 -0.55775061,26.822617 2.3690483,24.1739 3.4557688,23.190432 4.647289,20.369328 5.0168709,17.904779 5.5631876,14.261678 5.3513788,13.177026 3.8841341,12.10415 2.2636076,10.919193 2.9645594,10.302035 10.752576,6.056784 21.092922,0.4202568 27.652146,-0.81021517 32.862529,1.9090861 c 4.694249,2.4499301 11.714005,3.4983714 16.978057,2.5357714 7.239063,-1.3237562 12.882344,1.0041218 17.727751,7.3127755 2.222336,2.89345 6.799194,8.452734 10.170798,12.353964 3.483813,4.031068 6.935595,9.273536 7.995874,12.143908 1.342682,3.63489 3.783474,6.891396 8.706903,11.616754 5.527199,5.304835 6.970428,7.342088 7.513918,10.606602 0.49236,2.957428 1.82237,5.124702 4.96136,8.084617 3.45319,3.256191 4.42874,4.978093 5.00769,8.838835 0.39547,2.637155 1.25939,4.876951 1.91983,4.977325 0.66044,0.100378 5.5192,0.216962 10.79725,0.259086 6.12099,0.04885 10.79319,0.614655 12.90093,1.562304 2.65764,1.194896 3.69304,1.243047 5.28959,0.24599 3.32631,-2.077316 5.904,-1.416967 10.36885,2.656283 3.17446,2.896023 5.43467,4.046426 8.80595,4.482051 5.51326,0.712406 7.0123,2.391806 10.66325,11.946238 3.24685,8.49691 7.67235,14.02089 11.23272,14.02089 2.75066,0 10.13533,-2.12958 18.31257,-5.28096 3.99429,-1.53932 6.09194,-3.14233 8.28712,-6.33292 2.81391,-4.089877 18.13891,-19.565125 24.98317,-25.228103 1.94776,-1.611592 4.18709,-2.568581 5.55583,-2.374318 2.19486,0.311508 2.27768,0.660312 1.93615,8.154557 -0.34344,7.536253 -0.24007,7.962066 2.76333,11.382743 1.71605,1.954486 3.41133,4.713931 3.76727,6.132101 0.88183,3.5135 -0.20588,10.68342 -2.3202,15.29412 -1.3624,2.97101 -1.76646,6.80773 -1.83725,17.44568 -0.082,12.32035 -0.89788,24.15752 -2.06253,29.92416 -0.73177,3.62326 -5.28708,4.76789 -13.7495,3.4549 -4.84171,-0.75122 -7.50237,-0.79969 -7.72203,-0.14069 -0.69858,2.09571 -4.4409,6.15758 -5.67317,6.15758 -4.04789,0 -6.12414,8.54383 -3.06092,12.59569 0.82708,1.09401 1.98112,3.82142 2.56455,6.06092 0.58343,2.2395 2.34193,6.57195 3.90777,9.62766 2.97437,5.80441 6.42386,16.17711 5.64033,16.96062 -1.79308,1.79308 -13.32092,-5.20198 -15.7827,-9.57691 -1.86083,-3.30694 -4.8853,-4.25172 -6.18368,-1.93166 -0.49833,0.89046 -1.3674,1.61902 -1.93128,1.61902 -0.56388,0 -3.2687,0.96511 -6.01072,2.14469 -4.27881,1.8407 -4.98549,2.54624 -4.98549,4.97745 0,3.03477 -3.96976,7.01999 -6.99273,7.01999 -0.91823,0 -3.76274,-2.1592 -6.32113,-4.79822 l 0,0 z"
       id="path3002"
       inkscape:connector-curvature="0"
       transform="translate(0,828.36218)" />
  </g>
</svg>
