<?xml version="1.0" encoding="UTF-8" standalone="no"?>
<!-- Created with Inkscape (http://www.inkscape.org/) -->

<svg
   xmlns:dc="http://purl.org/dc/elements/1.1/"
   xmlns:cc="http://creativecommons.org/ns#"
   xmlns:rdf="http://www.w3.org/1999/02/22-rdf-syntax-ns#"
   xmlns:svg="http://www.w3.org/2000/svg"
   xmlns="http://www.w3.org/2000/svg"
   xmlns:xlink="http://www.w3.org/1999/xlink"
   xmlns:sodipodi="http://sodipodi.sourceforge.net/DTD/sodipodi-0.dtd"
   xmlns:inkscape="http://www.inkscape.org/namespaces/inkscape"
   width="3327"
   height="2056"
   id="svg9674"
   version="1.1"
   inkscape:version="0.48.3.1 r9886"
   sodipodi:docname="hubei.svg">
  <defs
     id="defs9676">
    <linearGradient
       inkscape:collect="always"
       id="linearGradient2987">
      <stop
         style="stop-color:#75a672;stop-opacity:1;"
         offset="0"
         id="stop2989" />
      <stop
         style="stop-color:#ffffff;stop-opacity:1"
         offset="1"
         id="stop2991" />
    </linearGradient>
    <linearGradient
       inkscape:collect="always"
       xlink:href="#linearGradient2987"
       id="linearGradient2993"
       x1="18441.285"
       y1="11391.429"
       x2="18272.715"
       y2="11525.715"
       gradientUnits="userSpaceOnUse" />
  </defs>
  <sodipodi:namedview
     id="base"
     pagecolor="#ffffff"
     bordercolor="#666666"
     borderopacity="1.0"
     inkscape:pageopacity="0.0"
     inkscape:pageshadow="2"
     inkscape:zoom="0.35"
     inkscape:cx="2445.9255"
     inkscape:cy="1609.3804"
     inkscape:document-units="px"
     inkscape:current-layer="layer1"
     showgrid="false"
     inkscape:window-width="1440"
     inkscape:window-height="876"
     inkscape:window-x="0"
     inkscape:window-y="24"
     inkscape:window-maximized="1" />
  <metadata
     id="metadata9679">
    <rdf:RDF>
      <cc:Work
         rdf:about="">
        <dc:format>image/svg+xml</dc:format>
        <dc:type
           rdf:resource="http://purl.org/dc/dcmitype/StillImage" />
        <dc:title />
      </cc:Work>
    </rdf:RDF>
  </metadata>
  <g
     inkscape:label="Layer 1"
     inkscape:groupmode="layer"
     id="layer1"
     transform="translate(0,1003.6378)">
    <g
       transform="translate(-15107,-12407.638)"
       class="com.sun.star.drawing.CustomShape"
       id="g476">
      <g
         id="g478">
        <path
           style="fill:url(#linearGradient2993);stroke:none;fill-opacity:1"
           inkscape:connector-curvature="0"
           d="m 15459,13458 0,0 -35,-61 -35,-53 -88,-97 -177,-168 0,0 -9,-53 0,-26 9,-27 9,-35 0,0 9,-88 0,0 -35,-79 0,0 26,-18 53,-9 115,-9 229,9 0,0 71,-26 61,-44 53,-53 62,-53 0,0 115,-88 0,0 9,-80 0,0 -80,-115 -79,-79 -80,-70 -88,-45 0,0 -26,-52 0,0 -9,-212 0,0 70,-71 44,-35 53,-26 0,0 27,-27 18,-26 0,-27 0,-26 -27,-53 -26,-35 0,0 -71,-53 -26,-18 -18,-26 0,0 388,0 0,0 168,26 0,0 17,35 36,36 35,35 44,35 53,35 53,27 53,26 62,18 0,0 105,44 0,0 521,9 0,0 168,114 0,0 17,36 27,35 35,44 53,44 0,0 238,18 0,0 177,79 0,0 17,9 18,0 53,0 62,9 35,9 35,26 0,0 9,18 9,26 17,27 36,26 0,0 26,9 53,9 35,9 18,17 18,27 9,26 0,0 -53,62 -9,35 -18,62 0,0 27,26 35,36 35,44 35,70 0,0 0,36 9,53 9,26 18,18 26,26 36,18 0,0 0,17 0,0 -89,18 -70,18 -62,26 -53,27 -97,79 -132,88 0,0 -27,18 -35,17 -44,62 0,0 -80,27 -70,17 -27,9 -26,18 -35,17 -27,36 0,0 -53,26 0,0 -141,-115 0,0 -53,-17 -44,-18 -35,-26 -36,-27 -53,-53 -52,-44 0,0 -71,9 -35,9 -27,35 -44,53 0,0 -79,-9 -80,-17 -70,-27 -71,-35 -132,-79 -115,-62 0,0 -79,-18 -71,-9 -106,-35 0,0 -123,0 -36,18 -26,8 -9,27 9,35 26,44 45,53 0,0 -27,53 0,0 -62,-9 0,0 -79,0 -62,18 -53,18 -44,35 -44,35 -26,53 -71,124 0,0 -35,26 -36,26 0,0 0,0 z m -352,-2054 0,0 z m 3326,2055 0,0 z"
           id="path480" />
        <rect
           style="fill:none;stroke:none"
           x="15107"
           y="11404"
           width="3327"
           height="2056"
           id="rect482" />
        <rect
           style="fill:none;stroke:none"
           x="15108"
           y="11404"
           width="3326"
           height="2055"
           id="rect484" />
      </g>
    </g>
  </g>
</svg>
