<?xml version="1.0" encoding="UTF-8" standalone="no"?>
<!-- Created with Inkscape (http://www.inkscape.org/) -->

<svg
   xmlns:dc="http://purl.org/dc/elements/1.1/"
   xmlns:cc="http://creativecommons.org/ns#"
   xmlns:rdf="http://www.w3.org/1999/02/22-rdf-syntax-ns#"
   xmlns:svg="http://www.w3.org/2000/svg"
   xmlns="http://www.w3.org/2000/svg"
   xmlns:xlink="http://www.w3.org/1999/xlink"
   xmlns:sodipodi="http://sodipodi.sourceforge.net/DTD/sodipodi-0.dtd"
   xmlns:inkscape="http://www.inkscape.org/namespaces/inkscape"
   width="2374"
   height="2816"
   id="svg9761"
   version="1.1"
   inkscape:version="0.48.3.1 r9886"
   sodipodi:docname="hunan.svg">
  <defs
     id="defs9763">
    <linearGradient
       inkscape:collect="always"
       id="linearGradient2987">
      <stop
         style="stop-color:#fffeee;stop-opacity:1;"
         offset="0"
         id="stop2989" />
      <stop
         style="stop-color:#ffffff;stop-opacity:1"
         offset="1"
         id="stop2991" />
    </linearGradient>
    <linearGradient
       inkscape:collect="always"
       xlink:href="#linearGradient2987"
       id="linearGradient2993"
       x1="15273.429"
       y1="15773.571"
       x2="15487.715"
       y2="15593.571"
       gradientUnits="userSpaceOnUse" />
  </defs>
  <sodipodi:namedview
     id="base"
     pagecolor="#ffffff"
     bordercolor="#666666"
     borderopacity="1.0"
     inkscape:pageopacity="0.0"
     inkscape:pageshadow="2"
     inkscape:zoom="0.35"
     inkscape:cx="374.2585"
     inkscape:cy="748.3694"
     inkscape:document-units="px"
     inkscape:current-layer="layer1"
     showgrid="false"
     inkscape:window-width="1440"
     inkscape:window-height="876"
     inkscape:window-x="0"
     inkscape:window-y="24"
     inkscape:window-maximized="1" />
  <metadata
     id="metadata9766">
    <rdf:RDF>
      <cc:Work
         rdf:about="">
        <dc:format>image/svg+xml</dc:format>
        <dc:type
           rdf:resource="http://purl.org/dc/dcmitype/StillImage" />
        <dc:title />
      </cc:Work>
    </rdf:RDF>
  </metadata>
  <g
     inkscape:label="Layer 1"
     inkscape:groupmode="layer"
     id="layer1"
     transform="translate(0,1763.6378)">
    <g
       transform="translate(-15302,-14692.638)"
       class="com.sun.star.drawing.CustomShape"
       id="g426">
      <g
         id="g428">
        <path
           style="fill:url(#linearGradient2993);stroke:none;fill-opacity:1"
           inkscape:connector-curvature="0"
           d="m 16766,15743 0,0 -35,-26 -27,-9 -26,-9 -27,0 -53,18 -53,18 0,0 -35,-71 0,0 -9,-53 -9,-35 -26,-18 -27,-9 -26,-8 -26,0 -53,8 0,0 0,-61 0,0 88,-168 44,-79 18,-71 0,0 -97,-106 -27,-53 -18,-44 0,0 -44,-44 -35,-18 -26,0 -36,0 0,0 -141,35 0,0 -44,45 -44,26 -88,62 0,0 -150,9 0,0 -9,-44 -9,-36 -35,-53 -44,-44 -36,-26 0,0 -17,-44 0,0 0,-345 0,0 -159,9 -62,9 -61,18 0,0 0,-44 8,-27 9,-9 18,-17 44,-9 62,-18 0,0 26,-17 27,-18 44,-62 26,-62 9,-61 0,0 -62,-265 0,0 -9,-309 0,0 -26,-106 0,0 26,-18 36,-26 44,-53 35,-62 35,-70 0,0 62,-44 62,-36 26,-17 36,0 44,0 44,8 0,0 35,0 35,-17 27,-18 18,-35 0,0 -9,-53 -9,-44 -27,-27 -26,-17 0,0 18,-27 17,-9 27,-8 35,8 79,18 80,26 0,0 123,18 0,0 159,80 79,44 89,53 0,0 132,53 0,0 132,0 0,0 89,-106 0,0 35,8 44,27 44,35 44,53 0,0 88,44 0,0 71,36 70,44 80,70 62,80 0,0 26,79 9,80 0,44 0,44 -9,53 -18,53 0,0 -97,106 -35,44 -18,53 -8,53 0,61 26,71 35,79 0,0 27,89 0,0 9,17 17,36 27,88 44,185 0,0 35,62 9,53 0,62 -18,79 0,0 0,124 18,79 26,79 0,0 -494,18 0,0 -8,18 0,17 17,45 44,52 36,45 0,0 -18,79 0,0 -26,0 -36,-18 -53,-44 -61,-70 0,0 -150,-9 0,0 -80,123 0,0 -9,44 -8,53 -27,53 -17,27 -18,17 0,0 0,0 z m -1464,-2814 0,0 z m 2373,2815 0,0 z"
           id="path430" />
        <rect
           style="fill:none;stroke:none"
           x="15302"
           y="12929"
           width="2374"
           height="2816"
           id="rect432" />
        <rect
           style="fill:none;stroke:none"
           x="15302"
           y="12929"
           width="2373"
           height="2815"
           id="rect434" />
      </g>
    </g>
  </g>
</svg>
