<?xml version="1.0" encoding="UTF-8" standalone="no"?>
<!-- Created with Inkscape (http://www.inkscape.org/) -->

<svg
   xmlns:dc="http://purl.org/dc/elements/1.1/"
   xmlns:cc="http://creativecommons.org/ns#"
   xmlns:rdf="http://www.w3.org/1999/02/22-rdf-syntax-ns#"
   xmlns:svg="http://www.w3.org/2000/svg"
   xmlns="http://www.w3.org/2000/svg"
   xmlns:sodipodi="http://sodipodi.sourceforge.net/DTD/sodipodi-0.dtd"
   xmlns:inkscape="http://www.inkscape.org/namespaces/inkscape"
   width="250"
   height="297"
   id="svg12097"
   version="1.1"
   inkscape:version="0.48.3.1 r9886"
   sodipodi:docname="New document 103">
  <defs
     id="defs12099" />
  <sodipodi:namedview
     id="base"
     pagecolor="#ffffff"
     bordercolor="#666666"
     borderopacity="1.0"
     inkscape:pageopacity="0.0"
     inkscape:pageshadow="2"
     inkscape:zoom="0.35"
     inkscape:cx="375"
     inkscape:cy="520"
     inkscape:document-units="px"
     inkscape:current-layer="layer1"
     showgrid="false"
     inkscape:window-width="1280"
     inkscape:window-height="936"
     inkscape:window-x="0"
     inkscape:window-y="24"
     inkscape:window-maximized="1" />
  <metadata
     id="metadata12102">
    <rdf:RDF>
      <cc:Work
         rdf:about="">
        <dc:format>image/svg+xml</dc:format>
        <dc:type
           rdf:resource="http://purl.org/dc/dcmitype/StillImage" />
        <dc:title></dc:title>
      </cc:Work>
    </rdf:RDF>
  </metadata>
  <g
     inkscape:label="Layer 1"
     inkscape:groupmode="layer"
     id="layer1"
     transform="translate(0,-755.36218)">
    <g
       transform="matrix(0.1053075,0,0,0.1053075,-1611.4154,-605.7044)"
       class="com.sun.star.drawing.CustomShape"
       id="g426">
      <g
         id="g428">
        <path
           style="fill:#fffeee;stroke:none"
           inkscape:connector-curvature="0"
           d="m 16766,15743 0,0 -35,-26 -27,-9 -26,-9 -27,0 -53,18 -53,18 0,0 -35,-71 0,0 -9,-53 -9,-35 -26,-18 -27,-9 -26,-8 -26,0 -53,8 0,0 0,-61 0,0 88,-168 44,-79 18,-71 0,0 -97,-106 -27,-53 -18,-44 0,0 -44,-44 -35,-18 -26,0 -36,0 0,0 -141,35 0,0 -44,45 -44,26 -88,62 0,0 -150,9 0,0 -9,-44 -9,-36 -35,-53 -44,-44 -36,-26 0,0 -17,-44 0,0 0,-345 0,0 -159,9 -62,9 -61,18 0,0 0,-44 8,-27 9,-9 18,-17 44,-9 62,-18 0,0 26,-17 27,-18 44,-62 26,-62 9,-61 0,0 -62,-265 0,0 -9,-309 0,0 -26,-106 0,0 26,-18 36,-26 44,-53 35,-62 35,-70 0,0 62,-44 62,-36 26,-17 36,0 44,0 44,8 0,0 35,0 35,-17 27,-18 18,-35 0,0 -9,-53 -9,-44 -27,-27 -26,-17 0,0 18,-27 17,-9 27,-8 35,8 79,18 80,26 0,0 123,18 0,0 159,80 79,44 89,53 0,0 132,53 0,0 132,0 0,0 89,-106 0,0 35,8 44,27 44,35 44,53 0,0 88,44 0,0 71,36 70,44 80,70 62,80 0,0 26,79 9,80 0,44 0,44 -9,53 -18,53 0,0 -97,106 -35,44 -18,53 -8,53 0,61 26,71 35,79 0,0 27,89 0,0 9,17 17,36 27,88 44,185 0,0 35,62 9,53 0,62 -18,79 0,0 0,124 18,79 26,79 0,0 -494,18 0,0 -8,18 0,17 17,45 44,52 36,45 0,0 -18,79 0,0 -26,0 -36,-18 -53,-44 -61,-70 0,0 -150,-9 0,0 -80,123 0,0 -9,44 -8,53 -27,53 -17,27 -18,17 0,0 0,0 z m -1464,-2814 0,0 z m 2373,2815 0,0 z"
           id="path430" />
        <rect
           style="fill:none;stroke:none"
           x="15302"
           y="12929"
           width="2374"
           height="2816"
           id="rect432" />
        <rect
           style="fill:none;stroke:none"
           x="15302"
           y="12929"
           width="2373"
           height="2815"
           id="rect434" />
      </g>
    </g>
    <path
       style="fill:#b3b3b3"
       d="m 128.46133,289.65286 c -2.74671,-9.21157 -5.97512,-12.9707 -11.89598,-13.85158 -8.09355,-1.20412 -7.74096,-6.81964 1.45544,-23.17963 l 7.59223,-13.50622 -11.91049,-16.12264 c -11.11786,-15.04969 -12.51524,-16.00168 -20.997859,-14.30515 -4.998054,0.99961 -14.491297,5.46454 -21.096091,9.92206 -12.918803,8.71879 -26.894294,10.81717 -26.894294,4.03809 0,-2.23658 -3.214286,-7.88646 -7.142857,-12.55531 -6.05844,-7.20004 -7.142858,-11.38532 -7.142858,-27.56766 l 0,-19.07886 -15.75279,1.96819 c -13.80102414,1.72432 -15.53314614,1.39579 -13.98003214,-2.65156 0.97501714,-2.54085 4.26507174,-4.61973 7.31123204,-4.61973 3.0461601,0 8.8629021,-3.32443 12.9260911,-7.38762 6.922688,-6.92269 7.255674,-8.49603 5.291068,-25 -6.322512,-53.113217 -6.351825,-62.919757 -0.213691,-71.489934 14.993194,-20.933783 23.450248,-27.55102 35.211137,-27.55102 6.250445,0 12.75378,-1.674047 14.451854,-3.720103 3.618557,-4.360094 1.20794,-16.2798973 -3.292386,-16.2798973 -2.169383,0 -2.142894,-0.9524451 0.08855,-3.1838871 5.00446,-5.0044618 30.022657,1.8748063 59.387537,16.3298284 28.63849,14.097447 36.74102,15.284004 45.86119,6.716047 l 6.22949,-5.852297 8.24038,6.89042 c 4.5322,3.789732 13.38323,9.519803 19.66894,12.733489 19.27471,9.854554 27.90997,21.17564 29.32504,38.446037 1.10701,13.510657 0.31529,16.216406 -7.68139,26.251617 -12.76202,16.01531 -13.46621,22.10609 -5.0908,44.03179 12.82709,33.57957 17.20276,52.78569 17.52505,76.92267 l 0.31475,23.57143 -23.45628,0 c -12.90095,0 -24.25631,1.29449 -25.23413,2.87664 -0.97783,1.58215 0.78409,6.47458 3.91537,10.87206 3.77843,5.30631 4.84562,9.36688 3.17304,12.07317 -2.0538,3.32312 -4.02821,2.63299 -10.6689,-3.7292 -8.70652,-8.34137 -20.82893,-10.24297 -25.9513,-4.07088 -1.70536,2.05484 -4.75565,8.72952 -6.77841,14.83263 -3.58242,10.80892 -4.03815,11.10301 -17.5817,11.34535 -10.15481,0.18171 -14.25508,-0.92877 -15.20615,-4.11834 l 0,0 z"
       id="path12120"
       inkscape:connector-curvature="0"
       transform="translate(0,755.36218)" />
  </g>
</svg>
