<?xml version="1.0" encoding="UTF-8" standalone="no"?>
<!-- Created with Inkscape (http://www.inkscape.org/) -->

<svg
   xmlns:dc="http://purl.org/dc/elements/1.1/"
   xmlns:cc="http://creativecommons.org/ns#"
   xmlns:rdf="http://www.w3.org/1999/02/22-rdf-syntax-ns#"
   xmlns:svg="http://www.w3.org/2000/svg"
   xmlns="http://www.w3.org/2000/svg"
   xmlns:sodipodi="http://sodipodi.sourceforge.net/DTD/sodipodi-0.dtd"
   xmlns:inkscape="http://www.inkscape.org/namespaces/inkscape"
   width="250"
   height="248"
   id="svg11354"
   version="1.1"
   inkscape:version="0.48.3.1 r9886"
   sodipodi:docname="New document 65">
  <defs
     id="defs11356" />
  <sodipodi:namedview
     id="base"
     pagecolor="#ffffff"
     bordercolor="#666666"
     borderopacity="1.0"
     inkscape:pageopacity="0.0"
     inkscape:pageshadow="2"
     inkscape:zoom="0.35"
     inkscape:cx="375"
     inkscape:cy="520"
     inkscape:document-units="px"
     inkscape:current-layer="layer1"
     showgrid="false"
     inkscape:window-width="1280"
     inkscape:window-height="936"
     inkscape:window-x="0"
     inkscape:window-y="24"
     inkscape:window-maximized="1" />
  <metadata
     id="metadata11359">
    <rdf:RDF>
      <cc:Work
         rdf:about="">
        <dc:format>image/svg+xml</dc:format>
        <dc:type
           rdf:resource="http://purl.org/dc/dcmitype/StillImage" />
        <dc:title></dc:title>
      </cc:Work>
    </rdf:RDF>
  </metadata>
  <g
     inkscape:label="Layer 1"
     inkscape:groupmode="layer"
     id="layer1"
     transform="translate(0,-804.36218)">
    <g
       transform="matrix(0.10416667,0,0,0.10416667,-1915.5209,-246.80453)"
       style="visibility:visible"
       class="com.sun.star.drawing.CustomShape"
       id="g496">
      <g
         id="g498">
        <path
           d="m 19897,12470 0,0 -53,-17 -36,-9 -61,0 0,0 0,-62 0,0 -18,-9 0,-8 0,-9 18,-18 35,-9 124,-44 0,0 44,-53 0,0 -9,-70 -18,-45 -26,-35 -27,-17 -44,-9 -35,0 -88,0 0,0 -53,-27 -27,-26 -35,-53 0,0 -62,-27 -44,-26 -35,-35 -27,-27 0,0 -52,-35 -27,-27 -9,-26 -17,-27 0,0 26,-17 18,-18 9,-44 8,-71 0,0 27,-88 0,0 53,0 53,0 53,-9 35,-17 26,-18 0,0 -9,-79 -8,-80 -36,-53 -17,-26 -18,-18 0,0 -88,9 -53,17 0,0 -18,71 0,0 -97,18 0,0 -17,-36 -18,-17 -35,-18 0,0 -62,-115 -44,-105 -44,-89 -53,-79 0,0 -53,-27 -53,-17 -88,0 0,0 -168,-53 0,0 -35,-44 0,0 -44,-89 -62,-79 -62,-79 -52,-45 0,0 0,-61 0,-62 0,-18 17,-9 27,0 35,18 0,0 18,35 35,18 0,0 0,18 0,0 26,17 36,36 26,35 44,62 0,0 35,8 53,18 141,9 0,0 27,-18 26,-26 44,-62 27,-26 26,-9 18,0 18,9 26,35 0,0 79,9 0,0 97,-124 0,0 9,-79 27,-71 17,-26 27,-27 35,-9 44,-8 0,0 0,114 0,0 141,115 0,0 71,26 70,45 80,44 88,44 0,0 150,273 79,150 97,150 0,0 9,53 18,62 26,62 36,71 0,0 202,105 97,62 115,80 0,0 0,26 0,0 -18,18 -35,0 -79,9 -115,-9 0,0 0,97 0,0 150,53 0,0 -18,26 -8,27 0,26 8,36 0,0 177,88 0,0 18,26 0,0 -9,36 -9,26 -18,27 -26,17 -62,44 -62,36 0,0 0,17 0,0 -17,9 -27,18 -62,53 -114,106 0,0 -150,53 0,0 -9,17 0,0 -220,-9 0,0 -53,18 -53,26 0,0 0,0 z m -1508,-2373 0,0 z m 2399,2374 0,0 z"
           id="path500"
           inkscape:connector-curvature="0"
           style="fill:#00a0e9;stroke:none" />
        <rect
           x="18389"
           y="10097"
           width="2400"
           height="2375"
           id="rect502"
           style="fill:none;stroke:none" />
        <rect
           x="18389"
           y="10098"
           width="2399"
           height="2374"
           id="rect504"
           style="fill:none;stroke:none" />
      </g>
    </g>
  </g>
</svg>
