<?xml version="1.0" encoding="UTF-8" standalone="no"?>
<!-- Created with Inkscape (http://www.inkscape.org/) -->

<svg
   xmlns:dc="http://purl.org/dc/elements/1.1/"
   xmlns:cc="http://creativecommons.org/ns#"
   xmlns:rdf="http://www.w3.org/1999/02/22-rdf-syntax-ns#"
   xmlns:svg="http://www.w3.org/2000/svg"
   xmlns="http://www.w3.org/2000/svg"
   xmlns:xlink="http://www.w3.org/1999/xlink"
   xmlns:sodipodi="http://sodipodi.sourceforge.net/DTD/sodipodi-0.dtd"
   xmlns:inkscape="http://www.inkscape.org/namespaces/inkscape"
   width="2314.6299"
   height="2365.03"
   id="svg3784"
   version="1.1"
   inkscape:version="0.48.3.1 r9886"
   sodipodi:docname="jiangsu.svg">
  <defs
     id="defs3786">
    <linearGradient
       inkscape:collect="always"
       id="linearGradient2984">
      <stop
         style="stop-color:#00a0e9;stop-opacity:1;"
         offset="0"
         id="stop2986" />
      <stop
         style="stop-color:#ffffff;stop-opacity:1"
         offset="1"
         id="stop2988" />
    </linearGradient>
    <linearGradient
       inkscape:collect="always"
       xlink:href="#linearGradient2984"
       id="linearGradient2990"
       x1="-68.571465"
       y1="1103.7908"
       x2="274.28577"
       y2="800.93365"
       gradientUnits="userSpaceOnUse" />
  </defs>
  <sodipodi:namedview
     id="base"
     pagecolor="#ffffff"
     bordercolor="#666666"
     borderopacity="1.0"
     inkscape:pageopacity="0.0"
     inkscape:pageshadow="2"
     inkscape:zoom="0.175"
     inkscape:cx="527.54461"
     inkscape:cy="1087.1766"
     inkscape:document-units="px"
     inkscape:current-layer="layer1"
     showgrid="false"
     inkscape:window-width="1440"
     inkscape:window-height="876"
     inkscape:window-x="0"
     inkscape:window-y="24"
     inkscape:window-maximized="1" />
  <metadata
     id="metadata3789">
    <rdf:RDF>
      <cc:Work
         rdf:about="">
        <dc:format>image/svg+xml</dc:format>
        <dc:type
           rdf:resource="http://purl.org/dc/dcmitype/StillImage" />
        <dc:title />
      </cc:Work>
    </rdf:RDF>
  </metadata>
  <g
     inkscape:label="Layer 1"
     inkscape:groupmode="layer"
     id="layer1"
     transform="translate(0,1312.6678)">
    <g
       transform="translate(-18389,-11419.638)"
       class="com.sun.star.drawing.CustomShape"
       id="g496" />
    <path
       style="fill:url(#linearGradient2990);fill-opacity:1"
       d="m 1457.143,1038.4055 c -23.5714,-7.2789 -56.3572,-13.3917 -72.8572,-13.5839 l -30,-0.3494 0,-29.37008 c 0,-21.3264 -2.7387,-31.4085 -10,-36.8133 -9.4534,-7.0365 -9.3753,-8.0594 1.4286,-18.7176 6.2857,-6.2009 41,-21.5058 77.1429,-34.0108 94.7732,-32.7906 92.8141,-31.7714 116.4056,-60.56168 l 21.5991,-26.3589 -6.1112,-39.3879 c -11.2779,-72.6879 -41.5728,-119.6299 -84.9868,-131.6873 -11.6559,-3.2372 -51.4922,-5.9002 -88.5252,-5.9177 -59.882,-0.029 -70.3556,-1.5636 -94.6484,-13.8737 -28.1562,-14.2678 -59.7262,-45.081 -78.1592,-76.2855 -7.6923,-13.0222 -22.151,-22.8807 -53.7623,-36.6576 -31.3008,-13.6415 -54.2849,-29.2352 -83.2402,-56.47481 -22,-20.6964 -51.5715,-45.5137 -65.7144,-55.1494 -32.99976,-22.4834 -50.85486,-41.8676 -65.67096,-71.2952 l -11.88,-23.5959 21.4901,-20.4928 c 20.1918,-19.2547 21.8934,-23.5996 28.1673,-71.9213 3.6725,-28.2857 12.7906,-72.3092 20.2623,-97.83 l 13.58486,-46.40149 75.7897,-2.5704 c 69.9654,-2.3729 78.0874,-3.8212 105.6931,-18.8461 16.447,-8.9515 32.0511,-19.0571 34.6759,-22.4566 2.6247,-3.3996 0.6518,-42.1811 -4.3843,-86.1811 l -9.1565,-80.00001 -31.6661,-45.7143 -31.6663,-45.7143 -49.47,1.4211 c -30.0224,0.8623 -60.2241,5.4139 -76.8255,11.5778 -26.86206,9.9737 -27.50056,10.7856 -35.41216,45.0315 l -8.0569,34.8748 -46.3087,8.1716 -46.3087,8.1715 -7.8377,-14.6241 c -11.6787,-21.7911 -28.54214,-38.6359 -45.85964,-45.809 -16.8933,-6.9974 -60.2669,-82.6217 -98.4611,-171.6723 C 673.0102,-500.4957 628.0044,-573.66473 588.691,-592.8321 546.3948,-613.45382 513.9108,-621.1157 468.5714,-621.1645 433.7404,-621.2019 409.6622,-626.19073 340,-647.80342 241.8206,-678.26359 242.6177,-677.64073 202.1322,-755.52782 173.3493,-810.90128 65.6653,-952.51328 24.6948,-988.87058 L 0,-1010.7848 l 0,-70.8341 0,-70.8341 14.6396,-3.6743 c 21.6158,-5.4252 57.3078,12.5873 65.8616,33.238 4.003,9.6641 15.2653,20.9114 26.1247,26.0898 10.4986,5.0065 19.0897,13.1264 19.0912,18.0443 0,4.9179 13.2353,20.3373 29.4084,34.2653 16.1731,13.9281 45.7711,47.70512 65.7735,75.06022 l 36.3679,49.7364 47.0808,14.5439 c 34.0785,10.5272 66.9751,15.643 119.1168,18.524 l 72.0359,3.9803 24.2012,-21.8643 c 13.3106,-12.0254 35.3717,-37.5184 49.0245,-56.6512 32.8898,-46.09092 43.2967,-54.76802 69.9779,-58.34672 20.4563,-2.7438 24.5121,-0.9262 45.7097,20.48432 18.3073,18.4912 27.4644,23.4952 42.9953,23.4952 10.8536,0 27.2098,1.4951 36.347,3.3226 15.5685,3.1137 19.723,-0.6219 66.0787,-59.41612 47.55374,-60.3136 49.61114,-64.1416 53.22974,-99.0369 5.325,-51.3526 29.9649,-115.9025 55.2534,-144.7497 17.7364,-20.2322 26.4747,-25.219 53.8102,-30.7087 17.94936,-3.6048 34.77776,-6.5541 37.39646,-6.5541 2.6187,0 4.7612,25.3803 4.7612,56.4006 l 0,56.4006 70.0001,56.9697 c 48.9433,39.8327 80.1564,60.7608 103.7633,69.5725 18.5698,6.9316 60.9984,28.9729 94.2857,48.9808 33.2874,20.0078 87.5225,49.74732 120.5225,66.08762 l 60,29.7097 74.1169,135.0821 c 40.7643,74.29521 92.391,169.79641 114.726,212.22498 22.335,42.42857 62.5617,111.08594 89.3928,152.57188 33.8719,52.37235 49.9543,82.93972 52.6131,100 6.989,44.84485 31.4494,115.31135 59.045,170.09925 l 27.249,54.0996 107.8129,55.99781 c 92.2634,47.92139994 177.4026,100.2414 281.9703,173.27749 45.6585,31.8907 29.088,49.4249 -55.4975,58.7248 -33,3.6283 -69,5.4281 -80,3.9995 -11,-1.4286 -36.0714,-3.9468 -55.7142,-5.5962 l -35.7143,-2.9989 0,50.4255 0,50.4254 -52.9922,38.1906 -52.9922,38.1906 -43.8808,132.72491 -43.8807,132.7249 -3.8669,80.204 c -3.7202,77.1604 -3.1582,83.3083 14.8095,162.01048 l 18.6764,81.8066 -36.5643,36.5643 -36.5643,36.56428 -108.3658,-4.9698 c -116.7985,-5.3565 -130.2502,-3.4382 -190.1403,27.1154 -13.0807,6.6733 -24.5284,11.8175 -25.4393,11.4315 -0.911,-0.3857 -20.942,-6.6573 -44.5134,-13.9363 l 0,0 z"
       id="path3809"
       inkscape:connector-curvature="0" />
  </g>
</svg>
