<?xml version="1.0" encoding="UTF-8" standalone="no"?>
<!-- Created with Inkscape (http://www.inkscape.org/) -->

<svg
   xmlns:dc="http://purl.org/dc/elements/1.1/"
   xmlns:cc="http://creativecommons.org/ns#"
   xmlns:rdf="http://www.w3.org/1999/02/22-rdf-syntax-ns#"
   xmlns:svg="http://www.w3.org/2000/svg"
   xmlns="http://www.w3.org/2000/svg"
   xmlns:xlink="http://www.w3.org/1999/xlink"
   xmlns:sodipodi="http://sodipodi.sourceforge.net/DTD/sodipodi-0.dtd"
   xmlns:inkscape="http://www.inkscape.org/namespaces/inkscape"
   width="2069"
   height="2920"
   id="svg3555"
   version="1.1"
   inkscape:version="0.48.3.1 r9886"
   sodipodi:docname="jiangxi.svg">
  <defs
     id="defs3557">
    <linearGradient
       inkscape:collect="always"
       id="linearGradient3104">
      <stop
         style="stop-color:#ffffff;stop-opacity:1"
         offset="0"
         id="stop3106" />
      <stop
         style="stop-color:#800000;stop-opacity:1"
         offset="1"
         id="stop3108" />
    </linearGradient>
    <linearGradient
       inkscape:collect="always"
       id="linearGradient2984">
      <stop
         style="stop-color:#75a672;stop-opacity:1;"
         offset="0"
         id="stop2986" />
      <stop
         style="stop-color:#75a672;stop-opacity:0;"
         offset="1"
         id="stop2988" />
    </linearGradient>
    <linearGradient
       inkscape:collect="always"
       xlink:href="#linearGradient2984"
       id="linearGradient2990"
       x1="2074.2856"
       y1="2931.4285"
       x2="1931.4286"
       y2="2834.2856"
       gradientUnits="userSpaceOnUse" />
    <linearGradient
       inkscape:collect="always"
       xlink:href="#linearGradient3104"
       id="linearGradient3110"
       x1="1868.75"
       y1="2832.5"
       x2="2175"
       y2="3120"
       gradientUnits="userSpaceOnUse" />
  </defs>
  <sodipodi:namedview
     id="base"
     pagecolor="#ffffff"
     bordercolor="#666666"
     borderopacity="1.0"
     inkscape:pageopacity="0.0"
     inkscape:pageshadow="2"
     inkscape:zoom="0.16"
     inkscape:cx="-1673.5622"
     inkscape:cy="1388.974"
     inkscape:document-units="px"
     inkscape:current-layer="layer1"
     showgrid="false"
     inkscape:window-width="1440"
     inkscape:window-height="876"
     inkscape:window-x="0"
     inkscape:window-y="24"
     inkscape:window-maximized="1" />
  <metadata
     id="metadata3560">
    <rdf:RDF>
      <cc:Work
         rdf:about="">
        <dc:format>image/svg+xml</dc:format>
        <dc:type
           rdf:resource="http://purl.org/dc/dcmitype/StillImage" />
        <dc:title />
      </cc:Work>
    </rdf:RDF>
  </metadata>
  <g
     inkscape:label="Layer 1"
     inkscape:groupmode="layer"
     id="layer1"
     transform="translate(0,1867.6378)">
    <path
       style="fill:#1a1a1a;fill-opacity:0;stroke:#000000;stroke-width:1px;stroke-linecap:butt;stroke-linejoin:miter;stroke-opacity:1;opacity:0"
       d="m 98.37,-1221.3758 51.159,-33.365 42.261,-37.813 182.393,-55.608 75.627,-77.85 246.897,-171.272 120.113,-68.953 160.15,-42.262 82.299,-28.916 68.953,-84.523 13.346,-26.692 53.383,-17.794 62.281,4.448 15.57,17.795 0,160.15 4.449,33.364 35.589,31.14 66.729,8.898 24.467,0 35.589,-126.786 13.346,-51.159 22.243,-4.448 33.364,64.504 35.589,44.487 44.486,37.813 62.281,22.243 64.505,0 84.523,-22.243 53.383,-28.916 66.729,-13.346 24.468,0 0,35.589 -77.851,97.869 -24.467,44.486 -2.224,64.505 46.71,62.281 71.178,73.402 48.934,55.607 42.262,100.094 8.897,53.383 -4.448,62.281 -46.711,102.31802 -60.056,88.972 -117.888,57.832 -142.355,17.794 -88.973,71.178 -48.934,51.159 -11.122,46.71 20.019,82.299 28.916,57.832 -2.224,57.832 -28.916,60.056 -64.505,71.178 -120.113,73.402 -33.364,26.692 -17.795,64.505 4.449,97.869003 4.449,93.421 -15.57,106.765997 -68.954,73.402 -64.505,64.505 -17.794,22.243 17.794,80.075 0,102.31796 -20.018,97.87 -24.468,82.299 6.673,88.972 11.122,97.869 -82.3,62.281 -93.42,37.813 -57.832,-57.832 -102.318,0 -77.851,40.038 -160.15,71.17702 -102.318,0 -53.383,-20.018 -8.897,-46.71102 104.542,-122.337 68.953,-80.074 2.225,-146.805 -102.318,-11.121 -71.178,33.364 -93.421,8.898 -66.729,0 -35.589,-146.804 -4.448,-122.33696 17.794,-146.804 -13.346,-88.972 -42.261,-75.626997 -51.159,-209.084003 -57.832,-164.599 -60.057,-144.579 -8.897,-44.486 13.346,-86.748 106.767,-131.234 51.159,-64.505 17.794,-126.785 -8.897,-108.991 -22.243,-108.99102 -40.038,-75.626 z"
       id="path3540"
       inkscape:connector-curvature="0" />
    <path
       style="fill:url(#linearGradient3110);fill-opacity:1"
       d="m 448.22922,2905.5333 c -20.15878,-8.3607 -23.29568,-13.0764 -28.36109,-42.6353 -0.89355,-5.2142 36.56343,-53.6747 85.55343,-110.6861 l 87.14286,-101.4111 0,-75.9235 0,-75.9235 -55.18921,-4.1377 c -52.7004,-3.9511 -56.61969,-3.4361 -86.91027,11.4198 -33.18272,16.2743 -115.86245,28.5856 -166.99056,24.8655 l -24.54043,-1.7856 -18.7475,-74.2857 c -21.92279,-86.8675 -24.83028,-161.4777 -10.58661,-271.6659 11.06064,-85.5645 3.49161,-139.3842 -27.36153,-194.5548 -15.69001,-28.0563 -27.30434,-63.5883 -46.64802,-142.7113 C 127.82836,1732.5413 91.028596,1621.6767 43.654317,1508.8749 4.636817,1415.9712 1.9006633,1402.8512 10.467783,1349.744 l 6.982356,-43.2834 78.50472,-97.1438 78.504721,-97.1438 9.42548,-64.5109 c 10.6351,-72.78977 8.58539,-123.32234 -8.85657,-218.34628 -8.86284,-48.28475 -16.87301,-71.49423 -41.02436,-118.86806 l -30.01114,-58.86806 12.32904,-9.70337 c 6.78097,-5.33686 27.93907,-22.11943 47.018,-37.29463 30.7239,-24.43748 44.84358,-30.67411 123.52828,-54.56196 l 88.83933,-26.97072 44.14267,-43.43892 c 47.71478,-46.95408 232.78257,-178.51921 335.89582,-238.78911 53.16292,-31.07386 71.93189,-38.43862 153.29389,-60.15106 135.05848,-36.042 150.25698,-43.37698 189.29218,-91.354113 17.8996,-22 35.9678,-46.613191 40.1515,-54.695982 4.7931,-9.260165 15.9185,-17.186262 30.0781,-21.428571 29.139,-8.7302529 82.6493,-8.6573581 91.4312,0.124553 4.599,4.599033 6.8735,30.473205 6.9068,78.571429 0.074,106.206764 3.5844,125.641694 26.1623,144.824574 16.2659,13.82009 25.22,16.42097 66.5817,19.33991 l 47.7885,3.37248 24.7369,-89.33991 c 28.9825,-104.673192 34.429,-109.51534 60.7731,-54.02996 23.1972,48.85736 76.4729,101.47585 119.3602,117.88791 57.8273,22.12925 156.1647,11.1429 217.4048,-24.28868 22.8035,-13.19341 70.8896,-26.05204 97.4241,-26.05204 25.3266,0 17.6444,24.24204 -24.9506,78.7351 -58.6656,75.05246 -63.9021,85.45047 -63.9021,126.88808 0,32.22022 2.0882,38.56443 21.4075,65.03981 11.7742,16.13535 48.7976,58.40089 82.2743,93.9234 56.624,60.08435 62.5709,68.64818 85.316,122.85715 22.4836,53.58572 24.4239,62.17595 24.133,106.84218 -0.2914,44.69617 -2.2229,52.66605 -24.2122,99.8924 -13.1428,28.22657 -37.2403,71.02914 -53.5501,95.1168 -29.1111,42.99365 -30.7531,44.33035 -89.6542,72.99075 -54.8538,26.6909 -66.0566,29.951 -130.6146,38.0092 l -70.6145,8.8142 -44.2509,35.7275 c -61.7659,49.8689 -95.334,89.0159 -99.997,116.6161 -4.712,27.8901 8.79,88.5502 28.2637,126.9798 29.2874,57.7959 13.5935,118.5647 -47.4817,183.8542 -19.1455,20.4665 -50.9928,47.0418 -70.7718,59.0561 -105.4598,64.0591 -111.6628,69.3754 -122.0232,104.5813 -8.1495,27.6932 -9.0183,47.7534 -5.7253,132.1955 2.7188,69.7143 1.6826,115.0892 -3.4573,151.405 l -7.3396,51.8569 -75.8511,78.106 c -41.718,42.9582 -75.8108,80.2545 -75.7617,82.8806 0.051,2.6262 3.8146,20.2034 8.3678,39.0605 17.2722,71.5323 7.5772,184.2635 -24.7137,287.3659 -11.6657,37.2479 -11.4981,50.6227 2.3101,184.3696 l 3.8663,37.4498 -42.1028,31.6808 c -23.1565,17.4245 -61.7655,39.5016 -85.7979,49.0604 l -43.6951,17.3796 -27.51862,-27.9388 -27.51863,-27.9387 -56.34012,0 c -49.43263,0 -59.26725,1.7124 -80.2148,13.9674 -13.13108,7.6821 -64.67394,32.1107 -114.53977,54.2857 l -90.66508,40.3183 -55.0492,-0.2943 c -36.25702,-0.1937 -62.38118,-3.3353 -76.52726,-9.2023 l 0,-2e-4 z"
       id="path3581"
       inkscape:connector-curvature="0"
       transform="translate(0,-1867.6378)" />
  </g>
</svg>
