<?xml version="1.0" encoding="UTF-8" standalone="no"?>
<!-- Created with Inkscape (http://www.inkscape.org/) -->

<svg
   xmlns:dc="http://purl.org/dc/elements/1.1/"
   xmlns:cc="http://creativecommons.org/ns#"
   xmlns:rdf="http://www.w3.org/1999/02/22-rdf-syntax-ns#"
   xmlns:svg="http://www.w3.org/2000/svg"
   xmlns="http://www.w3.org/2000/svg"
   xmlns:sodipodi="http://sodipodi.sourceforge.net/DTD/sodipodi-0.dtd"
   xmlns:inkscape="http://www.inkscape.org/namespaces/inkscape"
   width="3697"
   height="2349"
   id="svg5567"
   version="1.1"
   inkscape:version="0.48.3.1 r9886"
   sodipodi:docname="New document 43">
  <defs
     id="defs5569" />
  <sodipodi:namedview
     id="base"
     pagecolor="#ffffff"
     bordercolor="#666666"
     borderopacity="1.0"
     inkscape:pageopacity="0.0"
     inkscape:pageshadow="2"
     inkscape:zoom="0.35"
     inkscape:cx="375"
     inkscape:cy="520"
     inkscape:document-units="px"
     inkscape:current-layer="layer1"
     showgrid="false"
     inkscape:window-width="1280"
     inkscape:window-height="936"
     inkscape:window-x="0"
     inkscape:window-y="24"
     inkscape:window-maximized="1" />
  <metadata
     id="metadata5572">
    <rdf:RDF>
      <cc:Work
         rdf:about="">
        <dc:format>image/svg+xml</dc:format>
        <dc:type
           rdf:resource="http://purl.org/dc/dcmitype/StillImage" />
        <dc:title></dc:title>
      </cc:Work>
    </rdf:RDF>
  </metadata>
  <g
     inkscape:label="Layer 1"
     inkscape:groupmode="layer"
     id="layer1"
     transform="translate(0,1296.6378)">
    <g
       transform="translate(-19455,-5608.6378)"
       id="g618">
      <path
         style="fill:#ffffff;stroke:none"
         inkscape:connector-curvature="0"
         d="m 21501,6660 0,0 -53,-53 -71,-53 -114,-71 0,0 -35,-44 0,0 8,-141 -8,-53 -18,-53 0,0 -44,-44 -27,-27 -26,-53 0,0 -124,-132 0,0 -8,-9 0,0 -9,-176 0,0 -36,-36 -26,-17 -26,0 -27,0 0,0 -26,35 -18,27 -35,79 0,0 -18,0 0,0 -115,-115 -53,-53 -53,-35 0,0 -79,-18 -53,-17 -44,-18 -26,-35 -27,-27 -9,-44 -26,-106 0,0 -27,-70 -44,-62 -61,-88 0,0 -18,-71 0,0 -35,-9 0,0 -142,124 0,0 -61,115 0,0 -36,-27 -17,-26 -27,-62 -17,-62 -9,-18 -9,-17 0,0 -53,-115 0,0 0,-159 0,0 -53,-70 -53,-53 -106,-89 0,0 -26,-8 -18,-9 -8,-27 0,-26 17,-62 18,-26 0,0 26,-9 0,0 62,44 62,44 70,27 44,17 45,0 0,0 44,-35 44,-44 44,-44 44,-36 0,0 44,-70 27,-18 17,-17 27,0 35,17 26,27 36,53 0,0 8,44 18,44 35,44 36,35 44,35 53,27 61,18 62,17 0,0 247,-70 0,0 203,-177 0,0 44,18 0,0 -9,70 0,36 0,44 18,35 26,35 36,18 61,9 0,0 36,-18 44,-17 0,0 26,-18 27,-9 26,9 27,9 53,53 53,61 0,0 105,36 0,0 36,53 44,61 53,71 79,62 0,0 35,0 0,0 45,-44 26,-53 18,-44 17,-53 0,0 80,26 0,0 17,53 36,62 53,62 61,53 0,0 0,17 0,0 115,97 0,0 141,-9 0,0 27,-35 35,-26 0,0 9,-9 17,-9 27,-26 0,0 0,-36 0,0 -27,-17 0,0 0,-18 18,-18 53,-26 106,-35 0,0 26,-18 18,-9 0,0 35,-35 0,0 9,9 9,8 17,36 27,44 26,18 36,17 0,0 158,115 0,0 142,26 0,0 0,44 0,71 0,35 -9,36 -9,26 -27,18 0,0 -44,114 0,0 -26,150 0,0 -44,9 0,0 -9,-26 -18,-9 -17,-9 -18,0 -44,9 -18,9 0,0 -17,-9 0,0 0,-185 0,0 -36,-44 -26,-18 -27,-9 -26,0 -27,9 -26,26 -44,62 0,0 -27,80 -35,88 -44,79 -35,88 0,0 -18,27 -26,35 0,0 -62,36 -62,17 -88,9 -35,18 -9,8 -9,18 -9,53 0,88 0,0 115,97 0,0 -9,27 -18,26 -44,44 0,0 -35,9 -44,0 -97,0 -80,-17 -61,-18 0,0 -36,-27 -35,-17 -35,-9 -27,9 -26,9 -27,26 -52,44 0,0 -97,283 0,0 -18,44 0,0 -53,9 0,0 0,0 z m -2046,-2347 0,0 z m 3696,2347 0,0 z"
         id="path620" />
      <rect
         style="fill:none;stroke:none"
         x="19455"
         y="4312"
         width="3697"
         height="2349"
         id="rect622" />
      <rect
         style="fill:none;stroke:none"
         x="19456"
         y="4313"
         width="3696"
         height="2347"
         id="rect624" />
    </g>
  </g>
</svg>
