<?xml version="1.0" encoding="UTF-8" standalone="no"?>
<!-- Created with Inkscape (http://www.inkscape.org/) -->

<svg
   xmlns:dc="http://purl.org/dc/elements/1.1/"
   xmlns:cc="http://creativecommons.org/ns#"
   xmlns:rdf="http://www.w3.org/1999/02/22-rdf-syntax-ns#"
   xmlns:svg="http://www.w3.org/2000/svg"
   xmlns="http://www.w3.org/2000/svg"
   xmlns:sodipodi="http://sodipodi.sourceforge.net/DTD/sodipodi-0.dtd"
   xmlns:inkscape="http://www.inkscape.org/namespaces/inkscape"
   width="250"
   height="236"
   id="svg10607"
   version="1.1"
   inkscape:version="0.48.3.1 r9886"
   sodipodi:docname="New document 31">
  <defs
     id="defs10609" />
  <sodipodi:namedview
     id="base"
     pagecolor="#ffffff"
     bordercolor="#666666"
     borderopacity="1.0"
     inkscape:pageopacity="0.0"
     inkscape:pageshadow="2"
     inkscape:zoom="0.35"
     inkscape:cx="375"
     inkscape:cy="520"
     inkscape:document-units="px"
     inkscape:current-layer="layer1"
     showgrid="false"
     inkscape:window-width="1280"
     inkscape:window-height="936"
     inkscape:window-x="0"
     inkscape:window-y="24"
     inkscape:window-maximized="1" />
  <metadata
     id="metadata10612">
    <rdf:RDF>
      <cc:Work
         rdf:about="">
        <dc:format>image/svg+xml</dc:format>
        <dc:type
           rdf:resource="http://purl.org/dc/dcmitype/StillImage" />
        <dc:title></dc:title>
      </cc:Work>
    </rdf:RDF>
  </metadata>
  <g
     inkscape:label="Layer 1"
     inkscape:groupmode="layer"
     id="layer1"
     transform="translate(0,-816.36218)">
    <g
       transform="matrix(0.096302,0,0,0.096302,-1820.7819,270.87145)"
       style="visibility:visible"
       class="com.sun.star.drawing.CustomShape"
       id="g606">
      <g
         id="g608">
        <path
           d="m 19949,8113 0,0 -9,-17 0,0 26,-62 36,-26 26,-27 44,-35 0,0 44,-88 0,0 0,-71 0,0 -97,-53 0,0 -9,-53 0,-44 9,-35 18,-36 44,-61 62,-53 0,0 17,-36 18,-35 9,-79 0,-62 0,-62 0,0 -168,-185 0,0 -79,-9 0,0 -150,27 0,0 -62,53 -53,61 -115,133 0,0 -79,132 -44,62 -44,53 0,0 -177,-115 -79,-62 -71,-53 0,0 -61,-9 -45,-17 -26,-27 -26,-17 0,0 0,-62 8,-35 9,-9 9,-9 53,-9 0,0 44,-62 53,-61 0,0 -9,-230 0,0 -18,-9 0,0 -26,-44 0,0 -35,-97 0,0 0,-88 9,-35 17,-27 0,0 35,18 27,18 18,44 17,53 0,0 44,35 44,35 27,18 26,9 36,0 53,-9 0,0 79,-80 0,0 106,-79 115,-88 106,-88 105,-80 0,0 45,-53 26,-53 53,-97 0,0 79,-26 71,-18 26,0 36,9 44,18 44,26 0,0 88,0 0,0 71,-79 0,0 0,-221 0,0 26,-70 0,0 35,8 53,27 45,44 52,62 0,0 53,44 45,17 61,9 0,0 18,-17 9,-36 9,-35 0,0 44,-53 0,0 35,35 0,0 9,168 0,0 53,62 53,70 61,80 80,79 0,0 0,221 0,0 62,79 0,0 150,106 0,0 105,71 0,0 -8,26 -27,35 -97,71 -106,71 -61,44 0,0 -80,79 0,0 -70,79 -62,80 0,0 -9,35 -9,44 -9,44 -17,45 0,0 -62,26 -71,35 0,0 -88,18 -79,26 -71,36 -71,35 -61,44 -53,53 -62,62 -53,70 0,0 -26,80 0,0 -36,106 -26,106 0,0 -132,35 -106,17 0,0 0,0 z m -1041,-2443 0,0 z m 2594,2444 0,0 z"
           id="path610"
           inkscape:connector-curvature="0"
           style="fill:#fffeee;stroke:none" />
        <rect
           x="18907"
           y="5670"
           width="2596"
           height="2445"
           id="rect612"
           style="fill:none;stroke:none" />
        <rect
           x="18909"
           y="5671"
           width="2594"
           height="2444"
           id="rect614"
           style="fill:none;stroke:none" />
      </g>
    </g>
    <path
       style="fill:#b3b3b3"
       d="m 101.85714,232.5553 c 0,-0.95172 3.21429,-5.55037 7.14286,-10.21921 8.05409,-9.57174 9.23698,-18.06399 2.85714,-20.51216 -6.63131,-2.54468 -5.10383,-16.3716 2.70952,-24.52699 3.89678,-4.06736 7.75861,-12.3626 8.71867,-18.72777 1.55026,-10.27821 0.69864,-12.52454 -8.47568,-22.35622 -9.02434,-9.67097 -11.26269,-10.70649 -19.43295,-8.99025 -11.411391,2.39707 -25.307946,15.17089 -38.145109,35.0633 l -9.772322,15.14315 -16.372492,-11.2935 C 22.081907,159.92423 11.821429,153.98746 8.2857143,152.94283 -0.35886343,150.38878 -0.00367943,140.85755 9,133.77526 c 5.87153,-4.61855 7.142857,-8.09431 7.142857,-19.5283 0,-7.65035 -1.132197,-14.609457 -2.515994,-15.464689 C 10.37502,96.77252 7.7255886,82.922766 9.6390711,77.936309 10.650816,75.299743 14.481584,77.725117 21.76305,85.612366 c 5.85469,6.341768 11.972541,11.530491 13.595227,11.530491 5.6712,0 60.58014,-45.602711 64.849283,-53.858317 5.22575,-10.105494 15.87039,-13.282471 28.81738,-8.60078 13.00027,4.70096 18.53176,0.01514 18.59024,-15.747888 0.0716,-19.31087597 3.2516,-21.1063625 16.378,-9.247444 13.16047,11.889695 19.14199,12.886511 23.90647,3.984 3.22305,-6.0223174 3.5591,-5.7427146 6.96603,5.795837 1.96879,6.667875 8.20442,17.767378 13.85697,24.665564 C 216.36147,53.456011 219,59.358737 219,67.125614 c 0,7.341352 1.9122,12.04638 6.42857,15.817697 3.53572,2.952438 10.28572,8.684675 15,12.738306 L 249,103.05185 l -8.47436,6.33122 c -18.57174,13.87499 -38.89314,34.82328 -40.55605,41.80716 -2.68808,11.28934 -6.15773,14.21147 -22.52339,18.9691 -27.23387,7.9171 -47.47986,27.25411 -51.65171,49.33271 -1.22855,6.50181 -3.98998,10.32711 -8.76574,12.14286 -7.96434,3.02804 -15.17161,3.46527 -15.17161,0.9204 z"
       id="path10630"
       inkscape:connector-curvature="0"
       transform="translate(0,816.36218)" />
  </g>
</svg>
