<?xml version="1.0" encoding="UTF-8" standalone="no"?>
<!-- Created with Inkscape (http://www.inkscape.org/) -->

<svg
   xmlns:dc="http://purl.org/dc/elements/1.1/"
   xmlns:cc="http://creativecommons.org/ns#"
   xmlns:rdf="http://www.w3.org/1999/02/22-rdf-syntax-ns#"
   xmlns:svg="http://www.w3.org/2000/svg"
   xmlns="http://www.w3.org/2000/svg"
   xmlns:xlink="http://www.w3.org/1999/xlink"
   xmlns:sodipodi="http://sodipodi.sourceforge.net/DTD/sodipodi-0.dtd"
   xmlns:inkscape="http://www.inkscape.org/namespaces/inkscape"
   width="9624"
   height="8240"
   id="svg3576"
   version="1.1"
   inkscape:version="0.48.3.1 r9886"
   sodipodi:docname="neimenggu.svg">
  <defs
     id="defs3578">
    <linearGradient
       inkscape:collect="always"
       id="linearGradient2987">
      <stop
         style="stop-color:#fffeee;stop-opacity:1;"
         offset="0"
         id="stop2989" />
      <stop
         style="stop-color:#ffffff;stop-opacity:1"
         offset="1"
         id="stop2991" />
    </linearGradient>
    <linearGradient
       inkscape:collect="always"
       xlink:href="#linearGradient2987"
       id="linearGradient2993"
       x1="10603.144"
       y1="650.71411"
       x2="11083.143"
       y2="1416.4288"
       gradientUnits="userSpaceOnUse" />
  </defs>
  <sodipodi:namedview
     id="base"
     pagecolor="#ffffff"
     bordercolor="#666666"
     borderopacity="1.0"
     inkscape:pageopacity="0.0"
     inkscape:pageshadow="2"
     inkscape:zoom="0.0875"
     inkscape:cx="2787.4347"
     inkscape:cy="3711.4832"
     inkscape:document-units="px"
     inkscape:current-layer="layer1"
     showgrid="false"
     inkscape:window-width="1440"
     inkscape:window-height="876"
     inkscape:window-x="0"
     inkscape:window-y="24"
     inkscape:window-maximized="1" />
  <metadata
     id="metadata3581">
    <rdf:RDF>
      <cc:Work
         rdf:about="">
        <dc:format>image/svg+xml</dc:format>
        <dc:type
           rdf:resource="http://purl.org/dc/dcmitype/StillImage" />
        <dc:title />
      </cc:Work>
    </rdf:RDF>
  </metadata>
  <g
     inkscape:label="Layer 1"
     inkscape:groupmode="layer"
     id="layer1"
     transform="translate(0,7187.6378)">
    <g
       transform="translate(-10786,-8192.6378)"
       class="com.sun.star.drawing.CustomShape"
       id="g586">
      <g
         id="g588">
        <path
           style="fill:url(#linearGradient2993);stroke:none;fill-opacity:1"
           inkscape:connector-curvature="0"
           d="m 13238,9243 0,0 -168,-158 0,0 -88,-177 0,0 9,-123 8,-44 18,-44 27,-36 26,-35 44,-35 44,-27 0,0 80,-70 0,0 70,-106 0,0 -9,-71 0,0 -35,-53 -26,-35 -36,-18 -26,-8 -35,-9 -36,9 -88,26 0,0 -106,88 0,0 -150,71 0,0 -26,-27 -27,-17 -44,-27 0,0 -185,0 -62,9 -35,18 -26,35 -18,44 -9,80 -9,97 0,0 -26,17 -27,0 -26,0 -27,-9 -44,-26 -35,-9 0,0 -88,-115 -71,-70 0,0 -35,-88 -44,-71 -18,-26 -26,-27 -36,-9 -35,-17 0,0 -159,-168 0,0 -97,-26 0,0 9,-36 9,-35 27,-26 26,-27 62,-44 35,-26 26,-27 0,0 62,-132 0,0 0,-53 -9,-44 -17,-27 -18,-17 0,0 -150,0 -141,17 -132,27 -124,44 0,0 -35,26 -35,9 -27,0 -26,0 0,0 9,-185 0,0 -71,-97 0,0 -159,-132 0,0 0,-53 18,-45 35,-79 0,0 -9,-132 0,-53 -17,-53 0,0 -88,-115 0,0 0,-150 0,0 441,106 0,0 767,9 0,0 141,35 88,27 80,26 0,0 247,203 0,0 61,27 0,0 230,35 0,0 105,70 0,0 292,97 0,0 26,18 26,27 71,61 44,27 44,9 44,-9 62,-27 0,0 18,-26 26,-27 53,-35 71,-26 61,-27 0,0 71,-53 53,-35 70,-27 97,-17 0,0 0,-18 18,-9 35,-17 45,-18 44,-18 0,0 26,0 35,-17 62,-36 62,-44 35,-8 35,-9 0,0 53,-27 62,-17 62,0 79,0 0,0 106,26 150,18 79,0 71,0 62,-18 26,-9 18,-17 0,0 79,-9 71,-35 70,-36 62,-53 53,-53 62,-61 97,-124 0,0 150,-132 0,0 61,-53 71,-53 0,0 71,-35 35,-18 35,-35 0,0 -9,-115 0,0 -150,-141 0,0 -26,-97 0,0 9,-115 9,-53 8,-44 18,-35 26,-35 36,-36 53,-17 0,0 8,-18 9,-9 18,9 26,18 150,106 0,0 115,35 0,0 123,0 0,0 53,-18 44,-35 53,-44 45,-53 97,-106 79,-106 0,0 26,-17 27,-18 26,0 36,-9 61,9 71,9 0,0 44,-36 35,-17 88,-35 0,0 115,-106 0,0 18,-9 9,-18 26,-44 18,-79 0,0 26,-71 27,-44 35,-26 35,-18 80,-27 61,-8 71,-27 0,0 44,-53 53,-44 62,-35 61,-35 0,0 44,-27 45,-9 70,-9 71,0 150,9 132,18 0,0 71,-35 0,0 26,-36 18,-44 8,-44 0,-35 -8,-44 -18,-36 -35,-61 0,0 -115,-106 0,0 -203,-124 0,0 -9,-26 -17,-35 -44,-44 -62,-62 0,0 -141,0 0,0 -71,79 0,0 -132,0 0,0 -27,159 0,0 -35,9 -44,0 -35,-9 -36,-9 -70,-35 -44,-18 0,0 -124,0 0,0 -53,18 -44,26 -79,62 0,0 -44,0 -44,-18 -27,-17 -17,-27 -18,-26 -9,-27 0,-53 0,0 132,-123 0,0 -8,-141 8,-53 0,-53 0,0 45,-88 35,-80 0,0 0,-97 9,-70 17,-71 36,-62 0,0 88,0 0,0 106,18 123,9 62,-9 62,-9 61,-17 53,-36 0,0 62,-53 71,-61 61,-62 53,-62 0,0 0,-132 9,-159 9,-79 18,-71 26,-53 18,-17 26,-18 0,0 27,-44 26,-53 18,-97 26,-97 27,-44 26,-36 0,0 0,-185 0,0 -18,-35 0,0 -97,-115 0,0 -88,-44 0,0 0,-44 9,-35 18,-36 17,-26 27,-27 35,-26 71,-35 0,0 35,0 26,-18 62,-26 62,-27 26,-9 44,-8 0,0 0,26 9,9 35,35 0,0 -17,115 0,0 -35,44 -27,26 -18,36 -8,53 0,0 105,79 0,0 27,35 26,27 44,17 71,9 0,0 27,-159 0,0 35,0 44,0 53,18 62,35 0,0 35,53 0,0 17,80 18,79 27,88 26,35 26,45 0,0 53,26 0,0 133,-9 0,0 44,-17 44,-18 97,-9 53,-18 44,-8 44,-27 44,-35 0,0 35,-62 36,-44 35,-26 35,-18 44,9 45,17 44,36 53,61 0,0 88,239 0,0 -18,88 -26,115 -36,123 -44,97 0,0 0,106 0,0 106,203 0,0 -9,35 -9,44 -35,97 -9,53 9,44 27,53 17,18 36,26 0,0 8,53 0,62 -8,150 0,0 -97,18 0,0 -18,-27 -18,-26 -9,-44 9,-71 0,0 -17,-44 -27,-35 0,0 -62,8 -35,9 -9,18 -9,17 9,62 -9,36 -17,35 0,0 -62,62 -44,61 -35,71 -18,88 0,0 -35,53 -44,44 -53,53 -44,35 0,0 -9,159 0,0 35,53 53,88 0,0 150,88 0,0 106,-8 0,0 70,-106 0,0 27,53 18,44 8,53 0,0 -88,26 -79,35 0,0 0,36 9,35 0,27 17,17 18,27 26,8 0,0 -88,124 -53,53 -53,44 0,0 -61,-18 0,0 -177,-114 0,0 -79,0 0,0 -36,44 -8,26 -9,27 0,0 9,114 0,0 17,27 27,17 61,45 80,61 35,36 35,44 0,0 0,167 0,0 36,53 35,80 62,167 0,0 35,44 0,0 71,0 0,0 61,-123 0,0 115,-80 0,0 62,97 44,62 35,80 0,0 9,70 26,71 18,35 26,27 36,35 44,26 0,0 17,36 0,0 -8,52 0,62 0,141 0,0 -53,53 0,0 -53,-9 -27,-17 -53,-27 0,0 -132,9 -53,9 -35,18 -35,26 -27,27 -53,97 0,0 -17,17 -18,18 0,0 -9,26 -26,27 -80,62 -150,97 0,0 -26,44 -62,44 -114,79 0,0 -45,53 0,0 -79,18 0,0 -79,-80 0,0 -36,-79 -17,-26 -27,-18 -17,-18 -27,0 -62,-9 0,0 -17,36 -9,44 -9,44 -9,53 9,44 9,53 26,44 36,44 0,0 17,185 0,0 -114,9 -97,9 -53,-9 -44,-9 -36,-8 -35,-18 0,0 -18,-97 -26,-62 -35,-44 -44,-53 0,0 -115,-256 0,0 -53,-53 -35,-17 -27,0 -44,0 0,0 -53,44 -62,44 -52,35 -53,44 0,0 -18,53 -9,62 0,79 18,80 0,0 -282,26 0,0 -247,150 0,0 -36,71 -26,26 -9,9 -18,0 0,0 -53,-35 -26,-27 -9,-35 -9,-26 0,0 53,-36 0,0 -9,-53 -8,-44 -18,-35 -26,-27 -27,-26 -35,-18 -35,-8 -36,0 0,0 -44,17 -26,27 -27,26 -17,35 0,36 0,44 17,106 0,0 -88,17 0,0 -18,27 -8,35 0,0 -45,18 0,0 0,247 0,0 89,106 0,0 0,79 0,0 -44,79 0,0 -97,62 -106,27 -89,17 -97,0 0,0 -70,9 -44,18 -35,26 -45,35 0,0 -61,53 0,0 -53,88 -71,89 -159,176 0,0 -105,-70 0,0 -124,8 0,0 -18,62 -17,27 -18,17 0,0 -17,-26 -27,-18 -44,-18 -35,0 -36,0 0,0 -17,45 -27,35 -26,44 -44,35 0,0 -44,27 -44,44 -36,44 -35,53 -71,97 -44,44 -44,35 0,0 -17,53 -9,53 0,132 0,0 0,36 0,62 -27,105 0,0 -26,18 0,0 -132,-9 -115,-17 -221,-36 0,0 -141,-70 0,0 -79,-89 0,0 -159,-35 0,0 0,-132 0,0 53,-80 53,-79 35,-88 9,-44 0,-44 0,0 -18,-44 -17,-27 -27,-18 -26,-17 -62,0 -53,0 0,0 -35,17 -27,18 0,0 -79,9 -26,9 -9,17 0,44 -9,98 0,0 -35,35 -18,53 0,0 -88,159 0,0 9,176 0,0 -53,62 0,0 -71,17 -44,9 -35,27 -44,35 0,0 -115,26 -123,27 0,0 -45,35 -35,27 -26,35 -44,17 0,0 0,0 z m -2452,-8238 0,0 z m 9623,8239 0,0 z"
           id="path590" />
        <rect
           style="fill:none;stroke:none"
           x="10786"
           y="1005"
           width="9624"
           height="8240"
           id="rect592" />
        <rect
           style="fill:none;stroke:none"
           x="10786"
           y="1005"
           width="9623"
           height="8239"
           id="rect594" />
      </g>
    </g>
  </g>
</svg>
