<?xml version="1.0" encoding="UTF-8" standalone="no"?>
<!-- Created with Inkscape (http://www.inkscape.org/) -->

<svg
   xmlns:dc="http://purl.org/dc/elements/1.1/"
   xmlns:cc="http://creativecommons.org/ns#"
   xmlns:rdf="http://www.w3.org/1999/02/22-rdf-syntax-ns#"
   xmlns:svg="http://www.w3.org/2000/svg"
   xmlns="http://www.w3.org/2000/svg"
   xmlns:xlink="http://www.w3.org/1999/xlink"
   xmlns:sodipodi="http://sodipodi.sourceforge.net/DTD/sodipodi-0.dtd"
   xmlns:inkscape="http://www.inkscape.org/namespaces/inkscape"
   width="5452"
   height="3971"
   id="svg8332"
   version="1.1"
   inkscape:version="0.48.3.1 r9886"
   sodipodi:docname="qinghai.svg">
  <defs
     id="defs8334">
    <linearGradient
       inkscape:collect="always"
       id="linearGradient2987">
      <stop
         style="stop-color:#e60012;stop-opacity:1;"
         offset="0"
         id="stop2989" />
      <stop
         style="stop-color:#ffffff;stop-opacity:1"
         offset="1"
         id="stop2991" />
    </linearGradient>
    <linearGradient
       inkscape:collect="always"
       xlink:href="#linearGradient2987"
       id="linearGradient2993"
       x1="7245"
       y1="12085.571"
       x2="7399.2856"
       y2="11945.571"
       gradientUnits="userSpaceOnUse" />
  </defs>
  <sodipodi:namedview
     id="base"
     pagecolor="#ffffff"
     bordercolor="#666666"
     borderopacity="1.0"
     inkscape:pageopacity="0.0"
     inkscape:pageshadow="2"
     inkscape:zoom="0.35"
     inkscape:cx="375"
     inkscape:cy="862.85714"
     inkscape:document-units="px"
     inkscape:current-layer="layer1"
     showgrid="false"
     inkscape:window-width="1440"
     inkscape:window-height="876"
     inkscape:window-x="0"
     inkscape:window-y="24"
     inkscape:window-maximized="1" />
  <metadata
     id="metadata8337">
    <rdf:RDF>
      <cc:Work
         rdf:about="">
        <dc:format>image/svg+xml</dc:format>
        <dc:type
           rdf:resource="http://purl.org/dc/dcmitype/StillImage" />
        <dc:title />
      </cc:Work>
    </rdf:RDF>
  </metadata>
  <g
     inkscape:label="Layer 1"
     inkscape:groupmode="layer"
     id="layer1"
     transform="translate(0,2918.6378)">
    <g
       transform="translate(-7285,-11004.638)"
       class="com.sun.star.drawing.CustomShape"
       id="g526">
      <g
         id="g528">
        <path
           style="fill:url(#linearGradient2993);stroke:none;fill-opacity:1"
           inkscape:connector-curvature="0"
           d="m 9719,12056 0,0 -132,-115 0,0 -53,-177 -71,-158 0,0 -35,-36 -35,-35 -80,-44 -70,-27 -62,-17 0,0 -476,9 0,0 -53,-9 -53,-18 -88,-44 -71,-53 -62,-53 0,0 -123,-17 -97,-36 -97,-35 -80,-53 0,0 -9,-26 -8,-27 -27,-44 0,0 -44,-35 0,0 -88,-18 -79,-18 -71,-26 -62,-35 0,0 -35,-9 -35,-18 -53,-44 -44,-62 -36,-61 -26,-71 -27,-62 -26,-106 0,0 -26,-573 0,0 61,-106 18,-53 18,-44 0,0 -9,-62 -18,-53 -18,-35 -8,-18 0,0 53,-8 0,0 17,8 27,9 44,0 0,0 35,-44 9,-26 0,0 35,-9 27,0 26,17 26,18 53,44 36,27 44,26 0,0 88,0 53,-9 44,-17 0,0 35,-44 0,0 0,-115 0,0 -44,-62 -44,-53 -9,-17 0,-27 0,-26 18,-27 0,0 123,-70 0,0 53,-53 0,0 18,-53 18,-53 -9,-36 -9,-35 -26,-26 -27,-18 -53,-44 0,0 -35,-62 -44,-53 -44,-44 -27,-9 -17,0 0,0 -9,-26 -18,-27 -9,-17 0,-27 0,0 18,-26 0,-27 0,-26 -9,-27 -26,-44 -27,-17 0,0 0,-36 0,0 71,-8 79,-18 168,-9 167,-18 88,-17 80,-18 0,0 123,-62 133,-53 61,-26 71,-9 79,-17 89,0 0,0 97,44 0,0 132,-9 141,9 71,0 70,8 71,18 70,27 0,0 344,220 0,0 36,53 0,0 114,88 71,44 97,36 0,0 132,0 0,0 62,-53 0,0 9,-71 -9,-62 -9,-53 -9,-44 0,0 18,-8 17,-9 53,-9 115,0 0,0 132,88 0,0 133,35 158,18 0,0 177,88 0,0 141,106 0,0 0,18 0,0 44,35 0,0 53,9 53,-9 123,-18 0,0 177,212 0,0 247,177 0,0 123,61 0,0 221,0 0,0 35,53 35,97 27,97 26,97 0,0 97,230 0,0 18,194 0,0 35,44 27,62 8,35 0,35 -17,27 -27,35 0,0 -114,71 -36,26 -35,35 -53,80 -70,123 0,0 -159,115 0,0 0,71 0,0 150,132 0,0 -9,26 -18,18 -17,9 -27,9 -44,0 -35,0 0,0 -150,-97 0,0 -150,-9 -62,9 -35,8 0,0 0,106 0,44 9,45 17,44 27,44 44,44 53,53 0,0 0,159 0,0 71,220 0,0 -9,35 -9,18 -9,18 -26,9 -45,8 -52,0 0,0 -53,18 -27,18 -62,44 0,0 -44,0 0,0 -35,-53 0,0 -123,-9 0,0 0,-26 -18,-18 -35,-27 0,0 -89,-8 0,0 -8,26 -36,18 -26,17 -27,0 0,0 -26,-61 0,0 -132,-27 0,0 -186,-212 0,0 -26,-44 0,0 0,-53 -9,-53 -18,-35 -17,-35 -53,-53 -53,-53 0,0 -79,-18 -89,-8 -150,8 0,0 -79,9 -18,18 -8,9 -9,53 0,88 0,0 106,141 0,0 0,88 0,0 -44,53 -53,62 -18,26 -9,36 0,44 18,35 0,0 0,27 -18,35 -44,70 -88,124 0,0 -27,35 -26,35 -35,18 -44,18 0,0 -45,53 0,0 -26,-9 -26,0 -18,-27 -18,-26 0,-18 0,0 -26,-9 -18,-8 -53,0 -62,17 0,0 -35,53 -17,18 -18,18 0,0 0,0 z m -2434,-3970 0,0 z m 5451,3970 0,0 z"
           id="path530" />
        <rect
           style="fill:none;stroke:none"
           x="7285"
           y="8086"
           width="5452"
           height="3971"
           id="rect532" />
        <rect
           style="fill:none;stroke:none"
           x="7285"
           y="8087"
           width="5451"
           height="3970"
           id="rect534" />
      </g>
    </g>
  </g>
</svg>
