<?xml version="1.0" encoding="UTF-8" standalone="no"?>
<!-- Created with Inkscape (http://www.inkscape.org/) -->

<svg
   xmlns:dc="http://purl.org/dc/elements/1.1/"
   xmlns:cc="http://creativecommons.org/ns#"
   xmlns:rdf="http://www.w3.org/1999/02/22-rdf-syntax-ns#"
   xmlns:svg="http://www.w3.org/2000/svg"
   xmlns="http://www.w3.org/2000/svg"
   xmlns:sodipodi="http://sodipodi.sourceforge.net/DTD/sodipodi-0.dtd"
   xmlns:inkscape="http://www.inkscape.org/namespaces/inkscape"
   width="2824"
   height="1889"
   id="svg5480"
   version="1.1"
   inkscape:version="0.48.3.1 r9886"
   sodipodi:docname="New document 40">
  <defs
     id="defs5482" />
  <sodipodi:namedview
     id="base"
     pagecolor="#ffffff"
     bordercolor="#666666"
     borderopacity="1.0"
     inkscape:pageopacity="0.0"
     inkscape:pageshadow="2"
     inkscape:zoom="0.35"
     inkscape:cx="375"
     inkscape:cy="520"
     inkscape:document-units="px"
     inkscape:current-layer="layer1"
     showgrid="false"
     inkscape:window-width="1280"
     inkscape:window-height="936"
     inkscape:window-x="0"
     inkscape:window-y="24"
     inkscape:window-maximized="1" />
  <metadata
     id="metadata5485">
    <rdf:RDF>
      <cc:Work
         rdf:about="">
        <dc:format>image/svg+xml</dc:format>
        <dc:type
           rdf:resource="http://purl.org/dc/dcmitype/StillImage" />
        <dc:title></dc:title>
      </cc:Work>
    </rdf:RDF>
  </metadata>
  <g
     inkscape:label="Layer 1"
     inkscape:groupmode="layer"
     id="layer1"
     transform="translate(0,836.63782)">
    <g
       transform="translate(-17736,-9452.6378)"
       class="com.sun.star.drawing.CustomShape"
       id="g546">
      <g
         id="g548">
        <path
           style="fill:#e60012;stroke:none"
           inkscape:connector-curvature="0"
           d="m 18044,10503 0,0 -123,-79 0,0 -185,-168 0,0 44,-88 0,0 70,-62 27,-35 26,-35 0,0 0,-150 0,0 -53,-194 -35,-106 -27,-53 0,0 0,-97 9,-26 27,-27 0,0 44,-79 53,-53 114,-115 0,0 36,-53 35,-44 35,-35 53,-36 97,-61 106,-62 0,0 230,-229 0,0 35,167 0,0 114,0 0,0 53,-97 0,0 89,0 61,0 53,-18 0,0 0,18 18,27 44,61 0,0 0,194 0,0 62,45 79,44 88,35 53,9 53,0 0,0 177,-274 0,0 35,-44 35,-35 0,0 53,-27 44,-26 62,-9 71,0 0,0 194,79 0,0 423,-8 0,0 36,17 0,0 -18,18 0,26 0,0 -18,133 0,0 -150,17 0,0 -123,71 -133,79 -61,44 -53,53 -36,53 -26,53 0,0 -97,44 0,0 -27,36 -35,17 -79,27 0,0 -27,26 0,0 -9,150 0,0 -35,53 -53,53 -44,53 -35,53 0,0 0,97 -18,62 -26,53 0,0 -36,0 -35,9 -35,8 -27,18 -44,44 -35,44 0,0 -18,62 -17,62 -36,62 -17,26 -35,18 0,0 0,-18 0,0 -45,-35 0,0 -79,-9 0,0 -53,62 -53,70 0,0 -53,9 -62,0 -61,-9 -36,-17 0,0 -26,-53 0,0 -176,-177 0,0 -115,-9 0,0 -9,36 -9,44 -9,106 0,0 -44,8 -35,18 -26,18 -18,17 0,0 -53,9 -44,9 -71,26 0,0 0,0 z m -308,-1887 0,0 z m 2823,1888 0,0 z"
           id="path550" />
        <rect
           style="fill:none;stroke:none"
           x="17736"
           y="8616"
           width="2824"
           height="1889"
           id="rect552" />
        <rect
           style="fill:none;stroke:none"
           x="17736"
           y="8617"
           width="2823"
           height="1888"
           id="rect554" />
      </g>
    </g>
  </g>
</svg>
