<?xml version="1.0" encoding="UTF-8" standalone="no"?>
<!-- Created with Inkscape (http://www.inkscape.org/) -->

<svg
   xmlns:dc="http://purl.org/dc/elements/1.1/"
   xmlns:cc="http://creativecommons.org/ns#"
   xmlns:rdf="http://www.w3.org/1999/02/22-rdf-syntax-ns#"
   xmlns:svg="http://www.w3.org/2000/svg"
   xmlns="http://www.w3.org/2000/svg"
   xmlns:xlink="http://www.w3.org/1999/xlink"
   xmlns:sodipodi="http://sodipodi.sourceforge.net/DTD/sodipodi-0.dtd"
   xmlns:inkscape="http://www.inkscape.org/namespaces/inkscape"
   width="1501"
   height="3019"
   id="svg6883"
   version="1.1"
   inkscape:version="0.48.3.1 r9886"
   sodipodi:docname="shanxi.svg">
  <defs
     id="defs6885">
    <linearGradient
       inkscape:collect="always"
       id="linearGradient2987">
      <stop
         style="stop-color:#e60012;stop-opacity:1;"
         offset="0"
         id="stop2989" />
      <stop
         style="stop-color:#ffffff;stop-opacity:1"
         offset="1"
         id="stop2991" />
    </linearGradient>
    <linearGradient
       inkscape:collect="always"
       xlink:href="#linearGradient2987"
       id="linearGradient2993"
       x1="17305.143"
       y1="10604.143"
       x2="17148"
       y2="10461.286"
       gradientUnits="userSpaceOnUse" />
  </defs>
  <sodipodi:namedview
     id="base"
     pagecolor="#ffffff"
     bordercolor="#666666"
     borderopacity="1.0"
     inkscape:pageopacity="0.0"
     inkscape:pageshadow="2"
     inkscape:zoom="0.35"
     inkscape:cx="375"
     inkscape:cy="520"
     inkscape:document-units="px"
     inkscape:current-layer="layer1"
     showgrid="false"
     inkscape:window-width="1440"
     inkscape:window-height="876"
     inkscape:window-x="0"
     inkscape:window-y="24"
     inkscape:window-maximized="1" />
  <metadata
     id="metadata6888">
    <rdf:RDF>
      <cc:Work
         rdf:about="">
        <dc:format>image/svg+xml</dc:format>
        <dc:type
           rdf:resource="http://purl.org/dc/dcmitype/StillImage" />
        <dc:title />
      </cc:Work>
    </rdf:RDF>
  </metadata>
  <g
     inkscape:label="Layer 1"
     inkscape:groupmode="layer"
     id="layer1"
     transform="translate(0,1966.6378)">
    <g
       transform="translate(-15768,-9514.6378)"
       class="com.sun.star.drawing.CustomShape"
       id="g536">
      <g
         id="g538">
        <path
           style="fill:url(#linearGradient2993);stroke:none;fill-opacity:1"
           inkscape:connector-curvature="0"
           d="m 15909,10566 0,0 -36,-36 -35,-35 -18,-27 -8,-35 0,-70 0,-62 0,0 44,-133 0,0 -9,-150 0,0 -79,-203 0,0 0,-326 0,0 35,-62 35,-62 62,-114 0,0 0,-124 0,0 -27,-141 -8,-71 -9,-61 9,-62 8,-53 36,-53 53,-44 0,0 17,-71 9,-62 9,-114 0,0 53,-97 0,0 9,-53 17,-36 18,-35 26,-35 62,-53 71,-53 0,0 79,-124 53,-61 27,-27 26,-18 0,0 80,-79 0,0 150,9 44,0 44,-9 35,-9 27,-26 0,0 52,-9 45,-18 44,-26 53,-44 0,0 35,-44 0,0 79,52 0,0 -8,27 -18,26 -53,45 -27,26 -17,26 -18,36 9,35 0,0 35,9 44,18 27,26 35,35 62,80 71,106 0,0 0,79 0,0 -53,71 -45,44 -123,79 0,0 -44,71 -35,70 -18,45 0,44 0,44 26,35 0,0 115,97 0,0 35,53 36,53 17,44 18,35 9,53 9,53 0,0 -27,89 -26,88 0,0 -36,62 -44,61 -53,62 -44,44 0,0 -9,53 0,0 106,115 0,0 18,62 0,79 -9,80 -18,88 0,0 -61,70 -62,62 -141,124 0,0 -318,79 0,0 -79,53 -80,35 -70,18 -89,18 0,0 -114,70 0,0 -44,36 -36,26 -70,27 0,0 0,0 z m -141,-3018 0,0 z m 1500,3018 0,0 z"
           id="path540" />
        <rect
           style="fill:none;stroke:none"
           x="15768"
           y="7548"
           width="1501"
           height="3019"
           id="rect542" />
        <rect
           style="fill:none;stroke:none"
           x="15769"
           y="7549"
           width="1500"
           height="3018"
           id="rect544" />
      </g>
    </g>
  </g>
</svg>
