<?xml version="1.0" encoding="UTF-8" standalone="no"?>
<!-- Created with Inkscape (http://www.inkscape.org/) -->

<svg
   xmlns:dc="http://purl.org/dc/elements/1.1/"
   xmlns:cc="http://creativecommons.org/ns#"
   xmlns:rdf="http://www.w3.org/1999/02/22-rdf-syntax-ns#"
   xmlns:svg="http://www.w3.org/2000/svg"
   xmlns="http://www.w3.org/2000/svg"
   xmlns:sodipodi="http://sodipodi.sourceforge.net/DTD/sodipodi-0.dtd"
   xmlns:inkscape="http://www.inkscape.org/namespaces/inkscape"
   width="463"
   height="635"
   id="svg4389"
   version="1.1"
   inkscape:version="0.48.3.1 r9886"
   sodipodi:docname="New document 16">
  <defs
     id="defs4391" />
  <sodipodi:namedview
     id="base"
     pagecolor="#ffffff"
     bordercolor="#666666"
     borderopacity="1.0"
     inkscape:pageopacity="0.0"
     inkscape:pageshadow="2"
     inkscape:zoom="0.175"
     inkscape:cx="290.76601"
     inkscape:cy="1224.3912"
     inkscape:document-units="px"
     inkscape:current-layer="layer1"
     showgrid="false"
     inkscape:window-width="1280"
     inkscape:window-height="936"
     inkscape:window-x="0"
     inkscape:window-y="24"
     inkscape:window-maximized="1" />
  <metadata
     id="metadata4394">
    <rdf:RDF>
      <cc:Work
         rdf:about="">
        <dc:format>image/svg+xml</dc:format>
        <dc:type
           rdf:resource="http://purl.org/dc/dcmitype/StillImage" />
        <dc:title></dc:title>
      </cc:Work>
    </rdf:RDF>
  </metadata>
  <g
     inkscape:label="Layer 1"
     inkscape:groupmode="layer"
     id="layer1"
     transform="translate(0,-417.3622)">
    <path
       style="fill:#00a0e9;fill-opacity:1"
       d="m 51.9162,1047.6815 c -16.5844,-5.3667 -17.7359,-8.0793 -34.5363,-81.35676 L 0,890.51964 l 6.9143,-89.208 c 6.0051,-77.4769 10.5123,-101.6426 34.2745,-183.7663 l 27.3602,-94.5583 57.4047,-50.3009 c 31.5725,-27.6655 60.5513,-52.2075 64.3971,-54.5379 3.8459,-2.3303 27.6584,1.4266 52.9167,8.3488 43.8643,12.0211 45.4997,13.0548 36.46,23.0435 -10.682,11.8035 -16.7034,57.4849 -11.3434,86.0563 3.3652,17.9376 8.4206,21.4056 91.9061,63.0455 103.9159,51.83 109.7828,57.8363 97.3589,99.6723 -12.2793,41.3487 -23.497,52.8532 -103.0568,105.6916 -39.1787,26.0199 -71.234,50.3647 -71.234,54.0996 0,3.7348 -9.6428,12.6303 -21.4285,19.7677 -38.4217,23.2682 -112.145,92.0514 -144.2788,134.61086 -32.2063,42.6555 -36.1541,44.7692 -65.7348,35.1971 l 0,0 z"
       id="path4412"
       inkscape:connector-curvature="0" />
  </g>
</svg>
