<?xml version="1.0" encoding="UTF-8" standalone="no"?>
<!-- Created with Inkscape (http://www.inkscape.org/) -->

<svg
   xmlns:dc="http://purl.org/dc/elements/1.1/"
   xmlns:cc="http://creativecommons.org/ns#"
   xmlns:rdf="http://www.w3.org/1999/02/22-rdf-syntax-ns#"
   xmlns:svg="http://www.w3.org/2000/svg"
   xmlns="http://www.w3.org/2000/svg"
   xmlns:sodipodi="http://sodipodi.sourceforge.net/DTD/sodipodi-0.dtd"
   xmlns:inkscape="http://www.inkscape.org/namespaces/inkscape"
   width="250"
   height="453"
   id="svg11793"
   version="1.1"
   inkscape:version="0.48.3.1 r9886"
   sodipodi:docname="New document 88">
  <defs
     id="defs11795" />
  <sodipodi:namedview
     id="base"
     pagecolor="#ffffff"
     bordercolor="#666666"
     borderopacity="1.0"
     inkscape:pageopacity="0.0"
     inkscape:pageshadow="2"
     inkscape:zoom="0.35"
     inkscape:cx="375"
     inkscape:cy="520"
     inkscape:document-units="px"
     inkscape:current-layer="layer1"
     showgrid="false"
     inkscape:window-width="1280"
     inkscape:window-height="936"
     inkscape:window-x="0"
     inkscape:window-y="24"
     inkscape:window-maximized="1" />
  <metadata
     id="metadata11798">
    <rdf:RDF>
      <cc:Work
         rdf:about="">
        <dc:format>image/svg+xml</dc:format>
        <dc:type
           rdf:resource="http://purl.org/dc/dcmitype/StillImage" />
        <dc:title></dc:title>
      </cc:Work>
    </rdf:RDF>
  </metadata>
  <g
     inkscape:label="Layer 1"
     inkscape:groupmode="layer"
     id="layer1"
     transform="translate(0,-599.36218)">
    <g
       transform="matrix(0.1155268,0,0,0.1155268,-1612.7541,-341.69971)"
       class="com.sun.star.drawing.CustomShape"
       id="g516">
      <g
         id="g518">
        <path
           style="fill:#e60012;stroke:none"
           inkscape:connector-curvature="0"
           d="m 15477,12065 0,0 -61,-17 -45,-27 -70,-53 -115,-105 0,0 -115,-36 0,0 -88,0 -79,0 -80,18 -35,9 -35,17 0,0 -44,-8 -45,-27 -61,-44 0,0 -44,-9 -36,-9 -35,-17 -27,-18 -35,-44 -17,-9 -18,-9 0,0 -185,0 0,0 -195,-70 0,0 0,-36 9,-26 27,-53 0,0 0,-62 -9,-44 -18,-26 -26,-9 0,0 -27,-35 -8,-18 0,-26 0,-9 0,0 255,-9 0,0 18,-35 18,-45 0,-44 9,-44 -9,-79 -9,-71 0,0 -53,-132 0,0 -27,-168 0,-61 18,-36 27,-26 53,-18 70,-9 88,0 0,0 203,97 0,0 53,-8 27,-9 17,-9 0,0 0,-185 0,0 9,-18 18,-18 18,-8 35,0 62,0 26,8 18,18 0,0 123,0 0,0 18,-44 9,-53 9,-106 0,-97 -9,-35 -9,-36 0,0 9,-52 9,-36 26,-53 0,0 0,-88 0,0 -71,-9 0,0 -70,-44 -62,-44 -62,-35 -35,-27 0,0 -79,-17 -80,-27 -70,-26 -45,-27 0,0 0,-44 9,-26 36,-44 0,0 -27,-159 0,0 18,-9 26,-26 36,-62 0,0 61,0 44,0 53,17 0,0 353,18 0,0 27,-44 26,-44 9,-53 9,-53 -9,-106 0,-79 0,0 0,-36 9,-26 9,-27 17,-17 36,-27 44,-44 0,0 132,-194 0,0 133,-97 0,0 79,-115 0,0 97,71 0,0 27,0 0,0 26,-26 26,-27 36,-70 0,0 44,8 44,9 26,18 18,17 9,36 9,35 0,0 -53,106 0,0 -9,88 -18,79 -8,45 -27,35 -26,44 -36,35 0,0 -9,53 -8,53 8,106 36,238 0,0 0,44 -9,36 -35,88 -53,79 -44,71 0,0 0,370 0,0 61,141 18,80 9,88 0,0 -18,80 -17,88 0,97 8,53 9,53 0,0 35,44 27,35 26,53 0,0 -8,141 0,0 105,265 0,0 45,62 44,70 35,88 27,97 0,0 -124,-26 0,0 -256,0 -141,9 -44,0 -27,17 0,0 -9,53 0,0 177,141 0,0 18,71 0,0 -71,27 -53,35 -44,44 -44,53 0,0 0,264 0,0 -27,0 0,0 0,0 z m -1517,-3916 0,0 z m 2162,3917 0,0 z"
           id="path520" />
        <rect
           style="fill:none;stroke:none"
           x="13960"
           y="8149"
           width="2164"
           height="3918"
           id="rect522" />
        <rect
           style="fill:none;stroke:none"
           x="13961"
           y="8149"
           width="2162"
           height="3917"
           id="rect524" />
      </g>
    </g>
  </g>
</svg>
