<?xml version="1.0" encoding="UTF-8" standalone="no"?>
<!-- Created with Inkscape (http://www.inkscape.org/) -->

<svg
   xmlns:dc="http://purl.org/dc/elements/1.1/"
   xmlns:cc="http://creativecommons.org/ns#"
   xmlns:rdf="http://www.w3.org/1999/02/22-rdf-syntax-ns#"
   xmlns:svg="http://www.w3.org/2000/svg"
   xmlns="http://www.w3.org/2000/svg"
   xmlns:sodipodi="http://sodipodi.sourceforge.net/DTD/sodipodi-0.dtd"
   xmlns:inkscape="http://www.inkscape.org/namespaces/inkscape"
   width="250"
   height="246"
   id="svg10983"
   version="1.1"
   inkscape:version="0.48.3.1 r9886"
   sodipodi:docname="New document 46">
  <defs
     id="defs10985" />
  <sodipodi:namedview
     id="base"
     pagecolor="#ffffff"
     bordercolor="#666666"
     borderopacity="1.0"
     inkscape:pageopacity="0.0"
     inkscape:pageshadow="2"
     inkscape:zoom="16"
     inkscape:cx="119.17188"
     inkscape:cy="233.80765"
     inkscape:document-units="px"
     inkscape:current-layer="layer1"
     showgrid="false"
     inkscape:window-width="1280"
     inkscape:window-height="936"
     inkscape:window-x="0"
     inkscape:window-y="24"
     inkscape:window-maximized="1" />
  <metadata
     id="metadata10988">
    <rdf:RDF>
      <cc:Work
         rdf:about="">
        <dc:format>image/svg+xml</dc:format>
        <dc:type
           rdf:resource="http://purl.org/dc/dcmitype/StillImage" />
        <dc:title></dc:title>
      </cc:Work>
    </rdf:RDF>
  </metadata>
  <g
     inkscape:label="Layer 1"
     inkscape:groupmode="layer"
     id="layer1"
     transform="translate(0,-806.36218)">
    <g
       transform="matrix(0.05830224,0,0,0.05830235,-606.75141,170.48084)"
       style="visibility:visible"
       class="com.sun.star.drawing.CustomShape"
       id="g436">
      <g
         id="g438">
        <path
           d="m 12312,15125 0,0 -44,-18 0,0 -71,-44 -62,-36 -53,-26 -52,-35 0,0 -62,-71 0,0 0,-70 0,0 35,-44 27,-53 8,-36 -8,-44 -9,-35 -18,-35 -53,-71 0,0 -35,-35 -27,-44 -53,-80 -35,-70 -44,-62 0,0 -35,-88 -18,-18 -17,-17 -18,-9 -18,0 -70,0 0,0 -80,-36 0,0 -106,-149 0,0 -79,-230 0,0 -62,-79 0,0 -61,0 -36,26 -26,27 -9,44 0,97 -9,44 -17,53 0,0 -36,-18 0,0 -9,-79 -26,-80 -26,-61 -18,-62 0,0 18,-18 8,-17 9,-36 0,-61 0,0 18,-168 0,0 -35,-88 -18,-79 -9,-80 9,-70 0,0 44,-53 44,-53 0,0 -18,-203 0,0 -97,-141 0,0 -44,-168 -17,-62 -27,-52 0,0 -88,-106 -71,-97 -61,-97 -18,-44 -9,-45 0,0 -159,-105 0,0 -26,-45 0,0 -26,0 0,0 0,-105 0,-53 8,-36 0,0 36,-17 26,-27 18,-26 9,-35 8,-62 9,-71 0,0 -114,-132 0,0 0,-97 0,0 326,-18 0,0 35,18 44,44 44,53 44,62 0,0 0,53 18,53 27,44 26,53 79,97 89,88 0,0 35,0 35,9 18,8 17,9 45,62 0,0 35,-9 35,0 35,-17 53,-36 0,0 27,0 0,0 26,18 0,0 0,18 9,17 18,9 17,9 53,9 53,8 0,0 36,45 0,0 88,0 0,0 79,-62 0,0 203,-35 0,0 18,-27 17,-26 0,0 0,-53 -17,-62 -27,-106 -17,-53 -9,-53 9,-35 8,-26 0,0 27,17 35,35 35,27 62,35 0,0 27,36 0,0 53,17 61,0 62,0 71,-17 0,0 70,-71 0,0 -9,-88 -17,-62 -18,-44 -9,-44 0,0 44,-53 53,-44 36,-27 26,-8 35,0 44,17 0,0 18,53 27,44 44,44 70,62 0,0 115,44 0,0 44,53 62,53 70,62 36,35 26,53 0,0 35,88 0,0 27,53 44,62 53,53 35,26 35,9 0,0 309,0 0,0 44,-27 53,-26 53,-18 62,0 0,0 203,71 0,0 185,0 0,0 88,79 53,27 88,9 0,0 88,79 0,0 0,220 0,0 -61,80 -53,88 -35,88 -36,97 0,0 -97,133 -123,132 0,0 -62,18 -44,0 -44,-9 -27,-9 -53,-53 -70,-53 0,0 -27,-26 -26,-27 -53,-26 -44,-9 -44,0 0,0 -18,35 0,0 0,177 0,0 18,52 17,53 0,62 0,80 0,0 -8,61 -18,80 0,79 9,88 0,0 70,71 0,0 27,17 26,27 27,35 26,44 9,44 0,44 -9,45 -35,44 0,0 -62,35 -26,26 -9,18 -9,26 0,80 0,0 27,26 26,27 79,35 97,35 53,36 44,35 0,0 -8,97 -9,53 -18,17 -9,27 0,0 -97,-9 -97,-9 -79,-17 -62,-27 0,0 -9,-62 -9,-52 -17,-45 -18,-44 0,0 -35,9 -35,0 -44,27 -45,35 -44,26 0,0 -114,0 0,0 -44,-35 -36,-44 -26,-35 -18,-44 -26,-89 -18,-70 0,0 -53,-71 0,0 -115,0 -44,0 -26,9 -27,18 -17,26 -18,44 -9,53 0,0 -35,27 -35,17 -27,9 -35,18 0,0 0,79 0,0 35,35 36,62 17,27 9,35 0,35 -9,44 0,0 -17,36 -27,26 -70,44 -124,80 0,0 -35,44 0,0 0,176 0,0 17,26 18,18 44,27 18,17 17,36 9,44 9,61 0,0 -35,71 0,0 -53,26 -53,27 0,0 -291,115 0,0 0,0 z m -1905,-4216 0,0 z m 4287,4216 0,0 z"
           id="path440"
           inkscape:connector-curvature="0"
           style="fill:#fffeee;stroke:none" />
        <rect
           x="10407"
           y="10909"
           width="4288"
           height="4217"
           id="rect442"
           style="fill:none;stroke:none" />
        <rect
           x="10407"
           y="10910"
           width="4287"
           height="4216"
           id="rect444"
           style="fill:none;stroke:none" />
      </g>
    </g>
    <path
       style="fill:#b3b3b3"
       d="m 107.43998,243.95858 c -1.76177,-0.97692 -5.06562,-2.79712 -7.34189,-4.04489 -5.692827,-3.12063 -9.075627,-6.71813 -9.075627,-9.65164 0,-1.26505 0.35785,-2.52127 0.795229,-2.79157 0.437371,-0.27032 1.41505,-1.8927 2.172614,-3.60531 1.737171,-3.92717 0.971457,-7.39254 -2.618472,-11.85035 -4.586285,-5.69504 -10.396664,-15.02728 -13.558342,-21.77652 -1.937265,-4.13547 -3.393265,-5.2178 -7.019208,-5.2178 -1.355722,0 -3.469428,-0.42235 -4.697125,-0.93856 -3.467838,-1.45812 -8.062975,-8.41224 -10.642245,-16.1056 -3.647767,-10.88044 -7.076455,-13.79081 -11.836123,-10.04686 -1.637224,1.28785 -1.88256,2.00794 -1.886026,5.53572 -0.0022,2.23041 -0.338728,5.26065 -0.74786,6.73387 -0.734043,2.64316 -1.916526,3.52416 -2.396801,1.78571 -0.135667,-0.49107 -1.305084,-4.18714 -2.598705,-8.21349 -1.886275,-5.87097 -2.199545,-7.63906 -1.581972,-8.92857 0.423536,-0.88437 1.100462,-4.94253 1.50428,-9.01814 0.672693,-6.78928 0.612404,-7.71698 -0.719507,-11.07143 -0.799548,-2.01367 -1.609814,-6.07194 -1.800593,-9.01837 l -0.34687,-5.35714 2.869349,-3.41244 c 2.325244,-2.76535 2.816221,-3.84893 2.589176,-5.71429 -0.154094,-1.26601 -0.456155,-3.89006 -0.671247,-5.83122 -0.269826,-2.43513 -1.257802,-4.87116 -3.186601,-7.857142 C 32.859457,94.797705 31.212043,90.883069 30.083677,86.722826 27.995572,79.024055 27.458537,77.923705 23.500721,73.234783 19.026662,67.934255 13.948927,60.060473 13.032802,57.002718 12.415978,54.943943 11.370889,53.765343 8.5886801,51.990856 6.5879751,50.714811 3.9063915,48.635176 2.6296058,47.369445 0.42855819,45.187455 0.30817719,44.795025 0.30817719,39.801818 c 0,-4.952823 0.108504,-5.315737 1.82282931,-6.096835 C 4.2787829,32.72639 5.6547544,29.684918 6.3160786,24.454221 6.7870822,20.728855 6.7467143,20.619535 3.551119,16.96649 0.7892124,13.809215 0.30817719,12.807204 0.30817719,10.211338 l 0,-3.0479833 3.10455381,0 c 1.7075045,0 5.9857241,-0.2045115 9.507154,-0.4544693 l 6.4026,-0.4544696 2.677619,2.3509803 c 3.631893,3.1888439 6.879502,8.0578569 6.879502,10.3141669 0,3.123005 3.893128,9.788713 8.833957,15.125266 3.894102,4.20599 5.184583,5.150296 7.556735,5.529618 2.038946,0.326041 3.315888,1.073148 4.445401,2.600896 1.403723,1.898638 1.874788,2.090616 4.124316,1.680827 1.396775,-0.254446 3.735584,-1.141207 5.197352,-1.970579 l 2.657762,-1.507951 2.070693,2.26372 c 1.51001,1.650771 2.954515,2.396258 5.334787,2.753201 1.795247,0.269214 3.815475,1.098755 4.48939,1.843423 1.764378,1.94961 5.584378,1.746624 8.463978,-0.449754 1.624686,-1.239207 4.207622,-2.127702 8.253172,-2.83898 8.645307,-1.519995 9.1982,-2.842052 6.070657,-14.516012 -2.726193,-10.175863 -2.162914,-14.097562 1.451243,-10.103965 0.722543,0.798399 2.459861,2.155658 3.860711,3.016134 1.40084,0.860475 3.03525,2.15956 3.63202,2.886856 1.37259,1.672827 8.44215,2.41117 12.52042,1.307627 1.59013,-0.430277 3.81548,-1.747102 4.9452,-2.926278 l 2.05404,-2.143955 -1.23098,-5.188865 c -2.2282,-9.3923788 -2.27495,-8.658583 0.73832,-11.5896717 5.93828,-5.776336 9.22213,-5.927594 11.94702,-0.5502934 2.00481,3.9562928 7.50097,8.8474831 11.37427,10.1222711 1.49546,0.492193 3.90618,2.069522 5.35714,3.505177 1.45096,1.435654 4.2985,4.081234 6.32787,5.879067 2.83679,2.513124 4.43672,4.824769 6.92085,9.999543 6.06845,12.64133 8.38798,14.230755 20.76771,14.230755 7.80857,0 8.55915,-0.128157 12.55025,-2.142857 5.36328,-2.707375 8.06195,-2.707375 16.07143,0 4.63366,1.566275 7.67347,2.142857 11.29742,2.142857 4.64472,0 5.12954,0.15497 7.67259,2.452467 2.48336,2.243566 6.4996,3.962132 9.28273,3.972121 0.61043,0.0022 2.13722,1.063929 3.39285,2.359417 2.21291,2.283137 2.28298,2.546475 2.28298,8.579508 0,6.104109 -0.0559,6.306052 -2.90333,10.477459 -1.59684,2.339357 -4.03963,7.076793 -5.42843,10.527636 -2.68245,6.665235 -7.3154,13.502342 -12.7218,18.774252 -3.15583,3.07732 -3.47434,3.21327 -7.47479,3.19052 -4.12035,-0.0234 -4.25161,-0.0887 -9.43222,-4.68754 -7.18906,-6.38179 -8.34022,-7.074411 -11.75791,-7.074411 -2.47832,0 -3.0436,0.266986 -3.40274,1.607143 -0.80726,3.012248 -0.45278,9.559398 0.70088,12.945188 0.92818,2.72409 1.05151,4.85799 0.63683,11.0201 -0.28283,4.20302 -0.55659,10.17664 -0.60835,13.27471 l -0.0941,5.63286 3.65763,3.29571 c 5.30209,4.77745 7.39976,8.19004 7.39976,12.03825 0,3.29535 -0.29554,3.69682 -6.96429,9.4603 -1.2309,1.06381 -1.60714,2.15545 -1.60714,4.66305 0,4.07427 1.87185,5.93705 8.58112,8.53953 2.5589,0.99259 5.85355,2.62079 7.32143,3.61825 2.42739,1.64946 2.66888,2.10844 2.66888,5.07271 0,4.65768 -1.79331,8.12391 -4.18853,8.09586 -3.68522,-0.0431 -12.63143,-1.41146 -14.74004,-2.25445 -2.52067,-1.00772 -3.18849,-1.81899 -3.20335,-3.89148 -0.006,-0.83881 -0.54191,-3.16917 -1.19087,-5.17857 -1.06097,-3.28508 -1.389,-3.65345 -3.25348,-3.65345 -1.24172,0 -3.76135,1.14617 -6.28087,2.85715 -3.35433,2.27787 -4.85353,2.85714 -7.39462,2.85714 -2.91456,0 -3.4583,-0.30144 -6.3547,-3.52294 -2.55249,-2.83898 -3.49271,-4.6764 -4.84292,-9.46428 -0.92152,-3.26775 -2.31856,-6.82528 -3.10453,-7.90564 -1.32963,-1.82766 -1.78561,-1.96428 -6.55552,-1.96428 -6.32327,0 -8.32511,1.285 -9.54422,6.12652 -0.76245,3.02798 -1.13092,3.4325 -4.37517,4.80315 -3.45541,1.45987 -3.54261,1.5713 -3.54261,4.52708 0,1.6667 0.33445,3.23707 0.74323,3.4897 1.83489,1.13403 4.25677,6.17655 4.25677,8.86289 0,4.5648 -1.21158,6.15316 -7.95398,10.42743 -3.47705,2.20424 -6.80626,4.69922 -7.39825,5.5444 -0.70528,1.00693 -1.07634,3.22786 -1.07634,6.44234 l 0,4.90564 3.4834,3.35743 c 6.0239,5.80606 5.78214,12.19461 -0.58356,15.42035 -3.2978,1.67112 -19.2578,8.23592 -20.02274,8.23592 -0.21956,0 -1.84065,-0.79929 -3.60244,-1.7762 z"
       id="path11008"
       inkscape:connector-curvature="0"
       transform="translate(0,806.36218)" />
  </g>
</svg>
