<?xml version="1.0" encoding="UTF-8" standalone="no"?>
<!-- Created with Inkscape (http://www.inkscape.org/) -->

<svg
   xmlns:dc="http://purl.org/dc/elements/1.1/"
   xmlns:cc="http://creativecommons.org/ns#"
   xmlns:rdf="http://www.w3.org/1999/02/22-rdf-syntax-ns#"
   xmlns:svg="http://www.w3.org/2000/svg"
   xmlns="http://www.w3.org/2000/svg"
   xmlns:sodipodi="http://sodipodi.sourceforge.net/DTD/sodipodi-0.dtd"
   xmlns:inkscape="http://www.inkscape.org/namespaces/inkscape"
   width="690"
   height="1721"
   id="svg5239"
   version="1.1"
   inkscape:version="0.48.3.1 r9886"
   sodipodi:docname="New document 30">
  <defs
     id="defs5241" />
  <sodipodi:namedview
     id="base"
     pagecolor="#ffffff"
     bordercolor="#666666"
     borderopacity="1.0"
     inkscape:pageopacity="0.0"
     inkscape:pageshadow="2"
     inkscape:zoom="0.7"
     inkscape:cx="247.85683"
     inkscape:cy="881.40146"
     inkscape:document-units="px"
     inkscape:current-layer="layer1"
     showgrid="false"
     inkscape:window-width="1280"
     inkscape:window-height="936"
     inkscape:window-x="0"
     inkscape:window-y="24"
     inkscape:window-maximized="1" />
  <metadata
     id="metadata5244">
    <rdf:RDF>
      <cc:Work
         rdf:about="">
        <dc:format>image/svg+xml</dc:format>
        <dc:type
           rdf:resource="http://purl.org/dc/dcmitype/StillImage" />
        <dc:title></dc:title>
      </cc:Work>
    </rdf:RDF>
  </metadata>
  <g
     inkscape:label="Layer 1"
     inkscape:groupmode="layer"
     id="layer1"
     transform="translate(0,668.63782)">
    <g
       transform="translate(-20558,-15678.638)"
       class="com.sun.star.drawing.CustomShape"
       id="g396">
      <g
         id="g398">
        <path
           style="fill:#fffeee;stroke:none"
           inkscape:connector-curvature="0"
           d="m 20893,16730 0,0 -132,-203 0,0 -89,-27 0,0 -17,-62 -36,-61 -35,-44 -26,-27 0,0 0,-97 0,0 17,-132 9,-53 9,-62 0,0 -18,-62 0,-44 0,-44 18,-35 44,-71 53,-70 0,0 35,-150 0,0 45,-106 35,-88 53,-80 71,-79 0,0 141,-115 0,0 150,-8 0,0 18,79 9,62 0,53 0,0 -27,52 -18,62 -8,71 -9,70 9,159 8,159 0,0 -35,97 -53,115 -106,211 0,0 -26,88 0,0 -53,406 0,0 -18,18 -18,18 0,0 0,0 z m -335,-1720 0,0 z m 689,1720 0,0 z"
           id="path400" />
        <rect
           style="fill:none;stroke:none"
           x="20558"
           y="15010"
           width="690"
           height="1721"
           id="rect402" />
        <rect
           style="fill:none;stroke:none"
           x="20558"
           y="15011"
           width="689"
           height="1720"
           id="rect404" />
      </g>
    </g>
  </g>
</svg>
