<?xml version="1.0" encoding="UTF-8" standalone="no"?>
<!-- Created with Inkscape (http://www.inkscape.org/) -->

<svg
   xmlns:dc="http://purl.org/dc/elements/1.1/"
   xmlns:cc="http://creativecommons.org/ns#"
   xmlns:rdf="http://www.w3.org/1999/02/22-rdf-syntax-ns#"
   xmlns:svg="http://www.w3.org/2000/svg"
   xmlns="http://www.w3.org/2000/svg"
   xmlns:sodipodi="http://sodipodi.sourceforge.net/DTD/sodipodi-0.dtd"
   xmlns:inkscape="http://www.inkscape.org/namespaces/inkscape"
   width="465"
   height="746"
   id="svg3620"
   version="1.1"
   inkscape:version="0.48.3.1 r9886"
   sodipodi:docname="New document 7">
  <defs
     id="defs3622" />
  <sodipodi:namedview
     id="base"
     pagecolor="#ffffff"
     bordercolor="#666666"
     borderopacity="1.0"
     inkscape:pageopacity="0.0"
     inkscape:pageshadow="2"
     inkscape:zoom="0.24748737"
     inkscape:cx="1842.6256"
     inkscape:cy="826.38576"
     inkscape:document-units="px"
     inkscape:current-layer="g598"
     showgrid="false"
     inkscape:window-width="1280"
     inkscape:window-height="936"
     inkscape:window-x="0"
     inkscape:window-y="24"
     inkscape:window-maximized="1" />
  <metadata
     id="metadata3625">
    <rdf:RDF>
      <cc:Work
         rdf:about="">
        <dc:format>image/svg+xml</dc:format>
        <dc:type
           rdf:resource="http://purl.org/dc/dcmitype/StillImage" />
        <dc:title></dc:title>
      </cc:Work>
    </rdf:RDF>
  </metadata>
  <g
     inkscape:label="Layer 1"
     inkscape:groupmode="layer"
     id="layer1"
     transform="translate(0,-306.36218)">
    <g
       transform="translate(-17629,-7336.6378)"
       id="g598">
      <rect
         style="fill:none;stroke:none"
         x="17629"
         y="7222"
         width="1025"
         height="1167"
         id="rect602" />
      <rect
         style="fill:none;stroke:none"
         x="17630"
         y="7223"
         width="1024"
         height="1165"
         id="rect604" />
      <path
         style="fill:#ebf5ec;fill-opacity:1"
         d="m 17899.45,8369.2193 c -46.77,-27.6559 -73.638,-46.0698 -104.279,-71.467 -24.862,-20.6081 -27.319,-23.3073 -39.817,-43.7582 -7.326,-11.9875 -17.046,-31.2746 -21.599,-42.8603 -7.959,-20.2536 -8.633,-23.8275 -17.499,-92.7859 l -9.222,-71.7208 -9.946,-19.1929 c -5.47,-10.5561 -23.502,-39.1673 -40.072,-63.5805 -25.763,-37.9596 -29.741,-44.8351 -27.467,-47.4772 1.463,-1.6992 22.186,-26.742 46.052,-55.6507 l 43.394,-52.5611 31.855,-81.7891 c 17.521,-44.9841 32.182,-82.334 32.581,-83 0.398,-0.6659 15.723,1.3115 34.054,4.3943 l 33.331,5.605 20.092,15.6539 c 18.724,14.5868 20.036,16.0777 19.258,21.8697 -2.97,22.1114 -6.878,77.0789 -6.878,96.7489 0,24.7118 2.588,39.7865 11.49,66.9326 4.604,14.0376 8.66,20.5206 32.43,51.8341 l 27.168,35.7898 25.57,17.0343 25.57,17.0344 43.88,56.8576 43.88,56.8577 -53.981,27.3473 c -69.303,35.1092 -80.754,43.6558 -98.827,73.7627 -12.246,20.3999 -12.723,21.7027 -12.728,34.7598 0,13.7913 4.96,116.1555 7.108,146.5436 0.648,9.1671 0.449,16.6365 -0.442,16.5985 -0.892,-0.038 -16.622,-8.9391 -34.956,-19.7805 z"
         id="path3707"
         inkscape:connector-curvature="0" />
    </g>
  </g>
</svg>
