<?xml version="1.0" encoding="UTF-8" standalone="no"?>
<!-- Created with Inkscape (http://www.inkscape.org/) -->

<svg
   xmlns:dc="http://purl.org/dc/elements/1.1/"
   xmlns:cc="http://creativecommons.org/ns#"
   xmlns:rdf="http://www.w3.org/1999/02/22-rdf-syntax-ns#"
   xmlns:svg="http://www.w3.org/2000/svg"
   xmlns="http://www.w3.org/2000/svg"
   xmlns:sodipodi="http://sodipodi.sourceforge.net/DTD/sodipodi-0.dtd"
   xmlns:inkscape="http://www.inkscape.org/namespaces/inkscape"
   width="463.89001"
   height="745.75"
   id="svg3620"
   version="1.1"
   inkscape:version="0.48.3.1 r9886"
   sodipodi:docname="tianjing.svg">
  <defs
     id="defs3622" />
  <sodipodi:namedview
     id="base"
     pagecolor="#ffffff"
     bordercolor="#666666"
     borderopacity="1.0"
     inkscape:pageopacity="0.0"
     inkscape:pageshadow="2"
     inkscape:zoom="2.8"
     inkscape:cx="296.77367"
     inkscape:cy="351.70589"
     inkscape:document-units="px"
     inkscape:current-layer="g598"
     showgrid="false"
     inkscape:window-width="1440"
     inkscape:window-height="876"
     inkscape:window-x="0"
     inkscape:window-y="24"
     inkscape:window-maximized="1" />
  <metadata
     id="metadata3625">
    <rdf:RDF>
      <cc:Work
         rdf:about="">
        <dc:format>image/svg+xml</dc:format>
        <dc:type
           rdf:resource="http://purl.org/dc/dcmitype/StillImage" />
        <dc:title />
      </cc:Work>
    </rdf:RDF>
  </metadata>
  <g
     inkscape:label="Layer 1"
     inkscape:groupmode="layer"
     id="layer1"
     transform="translate(0,-306.61218)">
    <g
       transform="translate(-17629,-7336.6378)"
       id="g598">
      <rect
         style="fill:none;stroke:none"
         x="17629"
         y="7222"
         width="1025"
         height="1167"
         id="rect602" />
      <rect
         style="fill:none;stroke:none"
         x="17630"
         y="7223"
         width="1024"
         height="1165"
         id="rect604" />
      <path
         style="fill:#ffffff;fill-opacity:1"
         d="m 17904.589,8367.0098 c -46.77,-27.6559 -68.113,-49.3844 -98.754,-74.7816 -24.862,-20.6081 -29.529,-23.3073 -42.027,-43.7582 -7.326,-11.9875 -25.885,-25.7503 -30.438,-37.336 -7.959,-20.2536 -8.633,-23.8276 -17.499,-92.7859 l -9.222,-71.7208 -9.946,-19.1929 c -5.47,-10.5562 -5.824,-36.9577 -22.394,-61.3709 -25.763,-37.9595 -47.419,-47.0447 -45.145,-49.6868 1.463,-1.6992 22.186,-26.7421 46.052,-55.6508 l 43.394,-52.561 31.855,-81.7891 c 17.521,-44.9841 32.182,-82.334 32.581,-83 0.398,-0.6659 15.723,1.3115 34.054,4.3943 l 33.331,5.605 20.092,15.6539 c 18.724,14.5868 10.661,11.3902 9.883,17.1822 -2.97,22.1114 2.497,81.7664 2.497,101.4364 0,24.7118 1.025,58.5364 9.927,85.6825 4.604,14.0377 1.858,8.0639 29.305,36.2091 l 31.856,32.6649 24.007,27.9718 25.57,27.9719 42.318,42.7951 47.005,49.0451 -53.981,27.3474 c -69.303,35.1092 -80.754,43.6557 -98.827,73.7627 -12.246,20.3999 -4.91,6.0777 -15.853,33.1973 6.25,60.6663 -9.737,-58.072 10.233,123.7993 1.003,9.1351 9.288,21.0559 8.397,40.9053 -9.731,-8.8768 -19.937,-11.1488 -38.271,-21.9902 z"
         id="path3707-2"
         inkscape:connector-curvature="0"
         sodipodi:nodetypes="scscccccccccccccsscscccccsscscs" />
    </g>
  </g>
</svg>
