<?xml version="1.0" encoding="UTF-8" standalone="no"?>
<!-- Created with Inkscape (http://www.inkscape.org/) -->

<svg
   xmlns:dc="http://purl.org/dc/elements/1.1/"
   xmlns:cc="http://creativecommons.org/ns#"
   xmlns:rdf="http://www.w3.org/1999/02/22-rdf-syntax-ns#"
   xmlns:svg="http://www.w3.org/2000/svg"
   xmlns="http://www.w3.org/2000/svg"
   xmlns:sodipodi="http://sodipodi.sourceforge.net/DTD/sodipodi-0.dtd"
   xmlns:inkscape="http://www.inkscape.org/namespaces/inkscape"
   width="8734"
   height="6687"
   id="svg4164"
   version="1.1"
   inkscape:version="0.48.3.1 r9886"
   sodipodi:docname="New document 9">
  <defs
     id="defs4166" />
  <sodipodi:namedview
     id="base"
     pagecolor="#ffffff"
     bordercolor="#666666"
     borderopacity="1.0"
     inkscape:pageopacity="0.0"
     inkscape:pageshadow="2"
     inkscape:zoom="0.0875"
     inkscape:cx="1366.106"
     inkscape:cy="-1270.6984"
     inkscape:document-units="px"
     inkscape:current-layer="layer1"
     showgrid="false"
     inkscape:window-width="1280"
     inkscape:window-height="936"
     inkscape:window-x="0"
     inkscape:window-y="24"
     inkscape:window-maximized="1" />
  <metadata
     id="metadata4169">
    <rdf:RDF>
      <cc:Work
         rdf:about="">
        <dc:format>image/svg+xml</dc:format>
        <dc:type
           rdf:resource="http://purl.org/dc/dcmitype/StillImage" />
        <dc:title></dc:title>
      </cc:Work>
    </rdf:RDF>
  </metadata>
  <g
     inkscape:label="Layer 1"
     inkscape:groupmode="layer"
     id="layer1"
     transform="translate(0,5634.6378)">
    <g
       transform="translate(-1543,-8508.6378)"
       class="com.sun.star.drawing.CustomShape"
       id="g576">
      <g
         id="g578">
        <path
           style="fill:#800000;stroke:none"
           inkscape:connector-curvature="0"
           d="m 7788,9559 0,0 -62,-35 0,0 -106,-106 0,0 -70,0 -44,0 -18,9 -9,9 -26,62 0,0 -44,-18 0,0 -115,9 0,0 -27,-44 -8,-44 -9,-62 0,0 -80,-35 0,0 -105,-89 -45,-35 -52,-26 -53,-18 -53,-9 -53,0 -62,18 0,0 -168,26 -88,0 -79,0 0,0 -159,-53 0,0 -132,0 0,0 -89,45 -79,44 -70,61 -27,36 -26,35 0,0 -150,-9 0,0 -141,-62 0,0 -98,0 -35,9 -26,27 0,0 -124,26 0,0 -70,9 -53,18 -53,26 -62,18 0,0 -53,0 -53,-18 -106,-35 -88,-44 -53,-44 0,0 -9,-89 -8,-17 -9,-18 -36,-26 -44,-36 0,0 -88,9 -26,0 -18,9 -35,35 -53,71 0,0 -71,17 -70,9 -71,9 -26,18 -36,9 0,0 -26,0 0,0 -18,-45 0,0 -53,-44 -44,-35 -53,-35 -53,-27 -53,-26 -52,-9 -45,-9 -53,9 0,0 -97,71 -70,61 -53,80 -53,97 0,0 -44,53 -44,35 -53,26 -62,18 0,0 -132,-35 0,0 -44,-27 -18,-8 -26,0 0,0 -18,-45 -18,-35 -26,-35 -27,-18 -61,-35 -62,-27 0,0 -53,-79 0,0 0,-185 0,0 18,-27 0,-35 0,-62 0,0 -27,-44 -26,-35 -44,-26 -36,-9 -88,-9 -35,-9 -35,-9 0,0 -71,-70 0,0 -106,-194 0,0 -159,-36 0,0 -9,-35 0,-44 0,-35 9,-36 27,-70 26,-62 0,0 -9,-53 -8,-53 -18,-44 -27,-35 -61,-71 -62,-61 0,0 -203,-97 0,0 -26,-36 0,0 0,-97 0,-26 17,-9 18,-18 26,-9 89,-44 0,0 53,-44 17,-17 18,-27 0,0 0,-432 0,0 -18,-71 -26,-44 -36,-26 -35,-9 -44,-9 -44,0 -88,0 0,0 -27,18 -17,26 0,0 -9,0 0,18 0,0 -27,-71 -8,-44 0,-35 8,-35 0,0 106,-53 0,0 0,-106 0,0 -35,-53 -27,-26 -17,-18 0,-9 35,-18 44,-26 62,-35 0,0 106,-159 0,0 185,-71 0,0 132,-8 106,-9 115,-27 123,-53 0,0 80,0 0,0 0,53 17,71 18,26 27,36 35,26 35,18 0,0 53,0 44,-9 53,-9 53,-26 0,0 132,-177 0,0 106,9 53,0 62,-9 0,0 62,-53 70,-44 0,0 80,-9 0,0 97,36 61,17 71,9 0,0 44,-18 53,-17 115,-9 114,-18 62,-17 53,-18 0,0 176,-106 0,0 44,-132 0,0 45,-18 35,-35 26,-35 27,-44 35,-97 27,-80 0,0 79,-35 35,-27 35,-35 0,0 62,-141 0,0 9,-256 0,0 -26,-106 0,0 8,-97 18,-97 0,-53 0,-35 -9,-35 -17,-35 0,0 -18,-45 0,0 220,9 115,9 115,18 0,0 44,9 35,17 80,9 97,18 44,26 53,27 0,0 61,0 0,0 62,-62 0,0 0,-62 0,0 -17,-62 -9,-53 17,-53 18,-44 0,0 168,-202 0,0 26,-89 27,-61 44,-62 61,-62 0,0 18,-53 18,-26 8,-9 18,-9 53,0 0,0 256,159 0,0 53,9 62,8 70,18 35,18 36,26 0,0 97,0 53,0 53,-9 53,-17 44,-18 35,-35 26,-53 0,0 -26,-300 0,0 44,-79 44,-53 53,-36 53,-26 62,-18 61,-9 168,-17 0,0 18,-9 17,-18 36,-44 35,-97 0,0 62,-61 0,0 194,0 0,0 9,8 17,27 9,62 18,79 26,79 0,0 194,291 0,0 106,44 150,45 0,0 132,88 0,0 71,114 0,0 26,230 0,0 89,167 0,0 8,80 0,97 0,53 -8,44 -18,53 -18,44 0,0 -97,62 -26,17 -9,18 -18,18 0,26 -8,106 0,0 17,88 18,53 35,62 0,0 141,97 0,0 212,53 0,0 53,26 62,27 53,17 61,18 133,17 150,9 0,0 52,36 71,53 132,132 0,0 203,167 0,0 53,9 53,18 53,35 53,53 0,0 35,141 27,80 35,88 0,0 53,35 18,27 26,52 0,0 -9,133 0,0 35,97 0,0 -52,35 -36,35 -17,44 -18,80 0,0 0,141 0,0 26,168 0,0 -26,17 0,0 -326,9 0,0 -150,27 -62,17 -53,18 -44,35 -44,44 -27,53 -26,71 0,0 -53,53 -35,44 -27,53 -26,70 0,0 -44,27 -53,17 -97,18 -89,9 -79,0 0,0 -9,44 -26,53 -36,44 -35,35 0,0 -17,35 0,36 8,70 27,80 26,97 0,0 9,106 0,0 -247,52 0,0 -53,27 -53,26 -88,53 0,0 -150,36 -159,26 -141,18 -141,0 0,0 -79,17 -53,36 0,0 0,35 9,26 17,36 44,61 0,0 -26,36 -9,35 0,26 18,36 17,26 36,27 79,61 0,0 97,141 0,0 35,18 27,27 9,17 0,27 0,70 0,0 -53,53 0,0 -89,44 -26,18 -18,18 -17,26 -9,26 0,98 0,0 26,26 36,44 26,53 9,35 0,36 0,0 -44,26 -44,9 -62,17 0,0 0,0 z m -6245,-6685 0,0 z m 8733,6686 0,0 z"
           id="path580" />
        <rect
           style="fill:none;stroke:none"
           x="1543"
           y="2874"
           width="8734"
           height="6687"
           id="rect582" />
        <rect
           style="fill:none;stroke:none"
           x="1543"
           y="2875"
           width="8733"
           height="6686"
           id="rect584" />
      </g>
    </g>
  </g>
</svg>
