<?xml version="1.0" encoding="UTF-8" standalone="no"?>
<!-- Created with Inkscape (http://www.inkscape.org/) -->

<svg
   xmlns:dc="http://purl.org/dc/elements/1.1/"
   xmlns:cc="http://creativecommons.org/ns#"
   xmlns:rdf="http://www.w3.org/1999/02/22-rdf-syntax-ns#"
   xmlns:svg="http://www.w3.org/2000/svg"
   xmlns="http://www.w3.org/2000/svg"
   xmlns:sodipodi="http://sodipodi.sourceforge.net/DTD/sodipodi-0.dtd"
   xmlns:inkscape="http://www.inkscape.org/namespaces/inkscape"
   width="8601"
   height="5267"
   id="svg4241"
   version="1.1"
   inkscape:version="0.48.3.1 r9886"
   sodipodi:docname="New document 12">
  <defs
     id="defs4243" />
  <sodipodi:namedview
     id="base"
     pagecolor="#ffffff"
     bordercolor="#666666"
     borderopacity="1.0"
     inkscape:pageopacity="0.0"
     inkscape:pageshadow="2"
     inkscape:zoom="0.12374369"
     inkscape:cx="355.31365"
     inkscape:cy="-259.44712"
     inkscape:document-units="px"
     inkscape:current-layer="layer1"
     showgrid="false"
     inkscape:window-width="1280"
     inkscape:window-height="936"
     inkscape:window-x="0"
     inkscape:window-y="24"
     inkscape:window-maximized="1" />
  <metadata
     id="metadata4246">
    <rdf:RDF>
      <cc:Work
         rdf:about="">
        <dc:format>image/svg+xml</dc:format>
        <dc:type
           rdf:resource="http://purl.org/dc/dcmitype/StillImage" />
        <dc:title></dc:title>
      </cc:Work>
    </rdf:RDF>
  </metadata>
  <g
     inkscape:label="Layer 1"
     inkscape:groupmode="layer"
     id="layer1"
     transform="translate(0,4214.6378)">
    <g
       transform="translate(-2424,-13297.638)"
       class="com.sun.star.drawing.CustomShape"
       id="g446">
      <g
         id="g448">
        <path
           style="fill:#ffff99;stroke:none"
           inkscape:connector-curvature="0"
           d="m 8342,14349 0,0 -26,-9 -53,-18 -115,-9 -176,0 0,0 -62,27 0,0 -80,-18 -44,-18 -17,-8 -9,-9 0,-36 18,-35 17,-35 27,-44 17,-44 0,0 0,-97 0,0 -53,-27 -44,-17 -26,-18 -27,-27 -8,-26 -9,-26 -18,-62 0,0 -26,-44 0,0 -124,0 -106,-27 0,0 -70,-106 0,0 -88,-26 -80,-35 -62,-36 -44,-26 0,0 -53,-27 0,0 -158,0 0,0 -45,36 -44,44 -53,44 -61,26 0,0 -53,53 0,0 -35,71 0,0 -18,88 -18,88 0,0 -70,-17 -27,-9 -17,-18 -27,-44 -9,-44 0,-53 18,-53 18,-53 26,-44 0,0 0,-70 0,0 -62,-36 -35,-17 -62,0 0,0 -220,44 -88,26 -89,44 0,0 -44,-9 -44,-8 -35,-18 -27,-18 -53,-53 -35,-53 0,0 -62,-70 0,0 -352,0 0,0 -36,-27 -26,-26 -35,-71 -27,-70 -26,-62 0,0 -71,-18 -18,-17 -17,-27 0,0 -97,-70 0,0 -177,-62 0,0 -61,-53 -36,-44 -26,-44 -18,-35 -9,-36 0,-35 -8,-106 0,0 -44,-88 0,0 -195,9 0,0 -79,-35 -26,-18 -18,-18 -18,-44 -8,-62 0,0 -45,-44 -35,-26 -62,-44 0,0 -176,-150 0,0 -150,-247 0,0 -106,0 -35,9 -44,17 0,0 -53,27 -53,35 0,0 -159,0 0,0 -53,-44 -35,-35 -26,-44 -27,-45 -26,-88 -9,-88 0,0 -133,-203 0,0 -52,-53 -53,-35 -62,-35 -53,-27 -115,-44 -106,-35 0,0 -35,-27 -17,-26 0,-27 0,-26 8,-44 27,-35 0,0 26,-27 18,-26 18,-53 0,0 17,-318 0,0 -35,-88 -9,-26 -9,-18 9,-9 18,-9 70,-9 0,0 53,36 0,0 27,53 17,35 27,26 26,18 36,9 35,-18 35,-35 0,0 44,-124 0,0 -26,-282 0,0 -80,-220 0,0 -17,-97 0,-45 9,-35 8,-35 18,-27 26,-35 36,-26 0,0 44,-71 0,0 167,71 0,0 159,0 0,0 35,-27 36,-26 35,-27 44,-35 0,0 44,-106 53,-79 27,-35 44,-36 97,-61 0,0 44,0 79,26 0,0 203,123 0,0 9,36 18,26 26,9 26,0 80,-9 70,-26 0,0 159,-27 0,0 71,-70 17,-27 27,-17 26,0 27,0 44,17 44,36 0,0 9,70 0,27 9,17 44,35 79,53 0,0 159,62 0,0 132,0 0,0 62,-26 62,-18 70,-18 88,-8 0,0 89,-45 35,-8 35,0 27,0 44,8 106,53 0,0 185,0 0,0 35,-35 18,-26 26,-27 44,-17 0,0 89,-71 44,-26 44,-18 44,0 53,0 70,26 71,27 0,0 123,0 133,-18 132,-9 141,0 0,0 124,62 0,0 61,62 53,35 62,27 0,0 9,105 0,0 35,45 44,61 18,36 9,35 0,44 -9,53 0,0 -79,132 0,0 0,168 0,0 8,114 9,106 0,106 18,115 17,106 36,106 26,44 35,53 36,52 44,45 0,0 97,61 53,27 62,35 0,0 194,27 0,0 35,61 44,53 53,44 53,36 62,26 70,27 71,17 88,18 0,0 70,53 71,53 35,17 44,18 53,18 62,8 0,0 476,-8 0,0 106,35 0,0 150,97 0,0 88,203 0,0 18,79 26,53 45,53 79,79 0,0 97,0 0,0 53,-79 0,0 79,-9 0,0 9,18 0,17 35,27 45,18 52,8 0,0 159,-97 0,0 44,-61 44,-62 45,-71 44,-53 0,0 17,-8 0,0 27,35 44,26 106,71 0,0 8,44 27,53 53,97 79,97 88,106 0,0 89,291 0,0 35,53 35,62 27,70 9,44 0,44 0,0 -53,71 -36,53 -9,62 0,114 0,0 18,62 27,71 8,44 9,35 -9,44 -8,44 0,0 0,97 0,0 -27,0 0,0 0,-17 -9,-9 -26,-27 -27,-17 -26,-18 0,0 -71,9 -44,17 -26,18 -35,35 0,0 0,53 17,62 27,150 0,0 -9,115 0,0 -62,17 0,0 -106,0 0,0 -141,-185 0,0 -62,-18 -61,-8 -45,17 -44,27 -26,44 -18,44 0,62 9,70 0,0 -26,35 -18,36 0,0 -62,-9 -53,-18 -53,-26 -26,-18 0,0 -18,-97 0,0 -79,-44 -79,-26 -124,-44 0,0 -53,-62 0,0 -88,0 -27,9 -26,8 -35,36 -62,53 0,0 -194,105 0,0 -79,27 -27,9 -26,17 -27,44 -53,71 0,0 -106,9 -35,18 -26,8 -27,18 -26,26 -62,89 0,0 -44,35 0,0 -80,18 -61,17 -115,36 0,0 0,0 z m -5918,-5266 0,0 z m 8600,5266 0,0 z"
           id="path450" />
        <rect
           style="fill:none;stroke:none"
           x="2424"
           y="9083"
           width="8601"
           height="5267"
           id="rect452" />
        <rect
           style="fill:none;stroke:none"
           x="2425"
           y="9084"
           width="8600"
           height="5266"
           id="rect454" />
      </g>
    </g>
  </g>
</svg>
