<?xml version="1.0" encoding="UTF-8" standalone="no"?>
<!-- Created with Inkscape (http://www.inkscape.org/) -->

<svg
   xmlns:dc="http://purl.org/dc/elements/1.1/"
   xmlns:cc="http://creativecommons.org/ns#"
   xmlns:rdf="http://www.w3.org/1999/02/22-rdf-syntax-ns#"
   xmlns:svg="http://www.w3.org/2000/svg"
   xmlns="http://www.w3.org/2000/svg"
   xmlns:sodipodi="http://sodipodi.sourceforge.net/DTD/sodipodi-0.dtd"
   xmlns:inkscape="http://www.inkscape.org/namespaces/inkscape"
   width="250"
   height="265"
   id="svg11044"
   version="1.1"
   inkscape:version="0.48.3.1 r9886"
   sodipodi:docname="New document 49">
  <defs
     id="defs11046" />
  <sodipodi:namedview
     id="base"
     pagecolor="#ffffff"
     bordercolor="#666666"
     borderopacity="1.0"
     inkscape:pageopacity="0.0"
     inkscape:pageshadow="2"
     inkscape:zoom="2.8"
     inkscape:cx="128.83011"
     inkscape:cy="66.775201"
     inkscape:document-units="px"
     inkscape:current-layer="layer1"
     showgrid="false"
     inkscape:window-width="1280"
     inkscape:window-height="936"
     inkscape:window-x="0"
     inkscape:window-y="24"
     inkscape:window-maximized="1" />
  <metadata
     id="metadata11049">
    <rdf:RDF>
      <cc:Work
         rdf:about="">
        <dc:format>image/svg+xml</dc:format>
        <dc:type
           rdf:resource="http://purl.org/dc/dcmitype/StillImage" />
        <dc:title></dc:title>
      </cc:Work>
    </rdf:RDF>
  </metadata>
  <g
     inkscape:label="Layer 1"
     inkscape:groupmode="layer"
     id="layer1"
     transform="translate(0,-787.36218)">
    <g
       transform="matrix(0.06423433,0,0,0.06423433,-655.31863,-77.969322)"
       style="visibility:visible"
       class="com.sun.star.drawing.CustomShape"
       id="g366">
      <g
         id="g368">
        <path
           d="m 11993,17595 0,0 -62,-52 -53,-45 -52,-26 -53,-26 0,0 8,-80 0,-62 -8,-53 -18,-44 0,0 -44,-35 0,0 -44,0 -36,9 -35,9 -26,17 -53,44 -44,53 0,0 -124,-26 0,0 -62,-88 -26,-36 -26,-17 0,0 -71,-88 -26,-27 -18,-9 -27,-9 -35,0 -97,0 0,0 -18,-35 -17,-35 -9,-35 -9,-36 0,-61 0,-53 0,0 27,-71 8,-71 -8,-61 -9,-27 -9,-26 0,0 -106,-27 -53,-26 -9,-9 0,-18 0,-61 0,0 -44,-150 0,0 -53,-80 0,0 -26,-97 -18,-35 -17,-18 -27,-17 -26,-9 -80,-9 0,0 -123,71 -62,26 -53,9 0,0 -9,-18 0,0 -8,-379 0,0 70,-159 0,0 71,-79 61,-62 71,-62 97,-70 0,0 106,-97 0,0 9,-186 0,0 44,-79 0,0 0,-97 0,-97 17,-80 9,-35 18,-18 0,0 9,-79 8,-62 -8,-61 -27,-53 0,0 -185,-159 0,0 0,-141 0,0 44,0 44,-9 97,-35 0,0 9,-53 0,-53 0,-53 -9,-53 -26,-88 0,-44 -9,-45 0,0 35,-26 35,-26 18,0 18,0 26,17 27,18 0,0 70,159 36,97 26,105 0,0 18,27 17,9 71,9 0,0 18,-36 17,-26 9,-71 0,-114 0,0 53,-45 0,0 26,45 27,53 44,141 0,0 70,106 45,61 61,71 0,0 177,26 0,0 159,300 0,0 158,212 0,0 9,71 0,0 -35,44 -27,35 -8,35 0,80 0,0 44,53 35,44 62,44 35,9 44,17 0,0 53,36 35,26 53,18 0,0 124,-9 0,0 326,-141 0,0 27,-71 17,-53 9,-62 0,-61 0,0 -35,-53 -27,-27 -61,-44 0,0 0,-106 0,-35 26,-35 0,0 62,-36 70,-44 62,-53 53,-61 0,0 0,-115 0,0 -18,-62 -26,-44 -18,-26 -26,-27 0,0 -9,-35 0,0 71,-18 0,0 35,-44 26,-44 18,-53 18,-26 26,-9 53,0 79,9 0,0 97,255 0,0 44,53 36,36 44,35 0,0 159,0 0,0 70,-53 71,-53 0,0 26,44 0,0 0,62 -9,79 -17,80 -18,35 -26,35 0,0 -62,18 -62,0 0,0 -141,-71 0,0 -115,0 -79,18 -35,9 -36,26 -79,62 0,0 -53,79 0,0 0,89 0,44 27,62 0,0 8,44 18,26 18,27 26,26 27,9 35,-9 44,-18 0,0 71,-8 26,-9 35,0 18,17 18,18 8,44 9,53 0,0 -62,212 0,0 -35,53 -26,44 0,44 9,35 26,36 35,26 53,26 71,27 0,0 -9,123 0,0 -9,62 -26,71 0,35 0,44 8,35 18,36 0,0 132,159 0,0 300,79 0,0 36,26 26,18 35,18 0,0 115,9 0,0 26,97 0,0 -26,35 -18,35 0,0 -97,62 -79,35 0,0 -62,0 -53,9 -53,18 -44,17 -88,44 -88,62 0,0 -35,71 -36,44 -35,35 0,0 -168,0 0,0 -88,97 -26,18 -27,17 -35,9 -26,0 0,0 -36,-53 -35,-35 -35,-18 -36,0 -35,9 -35,18 -62,44 0,0 -44,9 -35,0 -36,-9 -17,-9 -44,-35 -36,-35 0,0 -53,-9 -35,0 -35,0 -27,17 -26,18 -18,18 -35,61 0,0 -26,18 -27,9 -35,0 -27,-9 -53,-26 -26,-27 0,0 -71,0 0,0 -44,44 -26,36 -9,44 -9,79 0,0 35,53 36,53 9,26 0,36 0,44 -9,44 0,0 0,53 17,62 9,70 18,88 0,0 -35,27 -27,17 0,0 0,0 z m -1790,-4110 0,0 z m 3890,4111 0,0 z"
           id="path370"
           inkscape:connector-curvature="0"
           style="fill:#fffeee;stroke:none" />
        <rect
           x="10202"
           y="13485"
           width="3892"
           height="4112"
           id="rect372"
           style="fill:none;stroke:none" />
        <rect
           x="10204"
           y="13485"
           width="3890"
           height="4111"
           id="rect374"
           style="fill:none;stroke:none" />
      </g>
    </g>
    <path
       style="fill:#b3b3b3"
       d="m 108.39393,258.96881 c -3.38979,-2.3743 -6.56872,-7.8276 -7.0643,-12.11843 -1.10285,-9.54865 -9.104547,-11.79041 -16.900759,-4.73494 -5.381937,4.87059 -5.946354,4.68181 -16.336454,-5.46385 -5.919054,-5.7798 -12.820151,-10.50873 -15.335771,-10.50873 -6.274729,0 -8.377883,-6.8955 -6.21968,-20.39214 1.554405,-9.72072 1.009494,-11.57793 -3.76318,-12.82601 -3.688283,-0.96451 -7.36368,-6.70463 -10.838389,-16.92705 -5.353568,-15.74995 -13.219654,-22.14197 -19.50872,-15.85291 -7.0795999,7.0796 -10.5695341,3.26497 -10.5695341,-11.55291 0,-13.79681 0.86059,-15.55447 14.0963201,-28.7902 C 28.380794,107.37431 30.407874,103.61695 33.074231,88.066946 34.737677,78.36584 36.888771,66.958709 37.854443,62.717763 39.219057,56.72478 37.950957,53.4692 32.162246,48.10442 23.17419,39.774569 22.596775,33.077349 30.684311,30.962411 c 5.198678,-1.359485 5.844695,-3.340591 5,-15.333232 -1.289211,-18.3036975 5.574398,-18.818911 12.188083,-0.914893 5.322229,14.407891 12.08854,16.921334 13.46024,5 1.117429,-9.711458 5.029206,-10.2083486 7.356795,-0.934492 2.220177,8.845886 15.319465,24.50592 20.498688,24.50592 2.181226,0 6.108389,3.535715 8.727029,7.857143 2.618634,4.321429 7.202534,11.414183 10.186444,15.76168 3.93136,5.727923 4.93173,10.535334 3.63294,17.45848 -1.52558,8.132069 -0.624,10.472952 6.05795,15.728973 4.31765,3.39627 10.93527,6.94931 14.70583,7.89566 9.3141,2.33769 29.31132,-7.0621 32.42029,-15.239327 2.65956,-6.995169 0.84436,-15.176894 -3.36714,-15.176894 -5.96452,0 -1.83308,-12.151018 6.73425,-19.806183 8.48197,-7.578889 9.0141,-9.016769 6.14772,-16.611812 -2.58295,-6.84404 -2.24926,-9.412297 1.88655,-14.519805 7.28921,-9.001796 12.92993,-7.65411 18.87328,4.509228 3.92301,8.028603 7.24812,10.94508 13.26523,11.635023 4.41646,0.506403 9.88074,-0.615311 12.14286,-2.4927 3.42371,-2.841429 4.11294,-1.977074 4.11294,5.157994 0,11.067917 -6.1265,16.494937 -13.91525,12.326523 C 196.01001,49.854849 179,57.935706 179,72.876297 c 0,11.91246 4.47437,16.228829 14.70238,14.183226 7.08058,-1.416114 8.15476,-0.763826 8.15476,4.951911 0,3.620575 -1.59007,10.980136 -3.5335,16.354576 -3.25172,8.99248 -2.99853,10.2049 3.17493,15.20387 5.57821,4.51697 6.39478,7.10404 4.84676,15.35568 -2.69304,14.35513 3.5668,22.05006 23.29295,28.63293 9.07752,3.02929 17.46146,6.84288 18.63099,8.47465 C 250.94242,179.76282 240.13889,189 233.10363,189 c -8.41103,0 -19.37584,6.04261 -24.12943,13.2975 -2.41541,3.68638 -7.15363,6.7025 -10.52938,6.7025 -3.37575,0 -8.46485,2.10601 -11.30911,4.68003 -4.08498,3.69686 -6.03748,3.96124 -9.29411,1.25848 -2.54815,-2.11478 -7.89974,-2.71299 -14.0121,-1.5663 -6.02,1.12936 -10.64233,0.63696 -11.81377,-1.25848 -2.80284,-4.53507 -11.7394,-3.80854 -15.97829,1.29901 -2.47591,2.98328 -6.22703,3.84941 -11.57975,2.67376 -6.15449,-1.35175 -8.62033,-0.42573 -11.07383,4.15869 -1.98342,3.70604 -2.19736,7.75571 -0.57573,10.89767 3.23257,6.26318 6.14679,32.14285 3.6195,32.14285 -1.02875,0 -4.64391,-1.9426 -8.0337,-4.3169 z"
       id="path11067"
       inkscape:connector-curvature="0"
       transform="translate(0,787.36218)" />
  </g>
</svg>
